<svg xmlns="http://www.w3.org/2000/svg" width="500" height="500" viewBox="0 0 500 500" version="1.1">
	<path d="M 257.269 109.693 C 258.242 109.947, 259.592 109.930, 260.269 109.656 C 260.946 109.382, 260.150 109.175, 258.500 109.195 C 256.850 109.215, 256.296 109.439, 257.269 109.693 M 265 110.954 C 265.825 111.513, 267.363 111.976, 268.417 111.985 C 270.975 112.005, 270.177 111.433, 266.500 110.610 C 264.309 110.120, 263.905 110.213, 265 110.954 M 247.394 111.828 C 247.703 112.328, 250.215 113.036, 252.978 113.403 C 255.740 113.769, 258 114.512, 258 115.053 C 258 115.595, 259.012 115.799, 260.250 115.506 C 261.488 115.213, 263.850 115.397, 265.500 115.915 C 268.380 116.819, 268.320 116.860, 264 116.959 C 261.525 117.016, 256.711 117.032, 253.301 116.996 C 249.665 116.957, 245.531 117.602, 243.301 118.555 C 240.055 119.942, 231.145 122.956, 230.191 122.989 C 230.021 122.995, 230.183 122.512, 230.552 121.916 C 230.980 121.224, 230.369 120.961, 228.861 121.190 C 227.562 121.386, 226.607 122.083, 226.738 122.738 C 226.876 123.430, 226.336 123.683, 225.447 123.341 C 224.489 122.974, 224.027 123.255, 224.209 124.096 C 224.392 124.941, 222.908 125.834, 220.203 126.505 C 217.840 127.093, 216.184 127.851, 216.525 128.191 C 216.865 128.531, 215.674 129.132, 213.878 129.527 C 212.082 129.921, 210.005 130.852, 209.262 131.595 C 208.518 132.339, 206.018 133.433, 203.705 134.028 C 190.980 137.297, 189.137 138.080, 186.155 141.476 C 184.473 143.391, 180.830 146.354, 178.057 148.060 C 173.580 150.815, 172.654 151.042, 169.759 150.094 C 167.966 149.507, 164.250 148.602, 161.500 148.083 C 158.750 147.563, 155.773 146.857, 154.883 146.513 C 151.762 145.307, 139.290 160.139, 131.737 174.040 C 118.829 197.799, 113.216 224.326, 115.950 248.661 C 116.557 254.073, 117.276 259.512, 117.546 260.750 C 117.817 261.988, 117.638 263, 117.149 263 C 114.006 263, 112.773 227.640, 115.389 212.500 C 117.464 200.490, 121.810 187.696, 127.724 176.183 C 130.639 170.509, 132.569 166.148, 132.012 166.492 C 131.455 166.837, 131 166.390, 131 165.500 C 131 164.610, 130.528 164.174, 129.951 164.530 C 129.235 164.973, 129.273 165.624, 130.074 166.589 C 131.150 167.886, 130.671 168.428, 128.728 168.111 C 128.303 168.042, 127.488 169.217, 126.915 170.722 C 126.343 172.228, 125.341 173.789, 124.687 174.192 C 124.034 174.596, 123.440 176.822, 123.368 179.140 C 123.295 181.458, 122.613 183.838, 121.854 184.427 C 119.037 186.614, 117.022 190.962, 117.322 194.202 C 117.519 196.339, 116.630 199.437, 114.797 203 C 108.412 215.408, 107.127 244.802, 112.050 265.829 C 114.168 274.876, 114.541 278.976, 113.107 277.450 C 110.995 275.203, 106.159 243.247, 106.021 230.628 C 106.004 229.077, 105.742 228.969, 104.500 230 C 103.535 230.801, 103 233.017, 103 236.215 C 103 243.963, 105.046 265.276, 106.003 267.500 C 106.476 268.600, 107.077 270.850, 107.338 272.500 C 107.599 274.150, 108.099 276.400, 108.449 277.500 C 108.968 279.133, 108.207 279.958, 104.297 282 C 91.237 288.820, 70.159 304.864, 74.131 304.960 C 75.029 304.982, 82.004 308.076, 89.631 311.837 C 97.259 315.597, 105.638 319.483, 108.250 320.472 C 110.862 321.462, 113 322.815, 113 323.480 C 113 327.286, 105.493 361.030, 102.325 371.464 C 101.924 372.787, 103.454 371.878, 107.009 368.682 C 114.295 362.131, 126.833 353.948, 137.219 348.964 L 145.936 344.781 150.218 348.121 C 152.573 349.958, 155.702 352.594, 157.170 353.980 C 158.639 355.366, 161.114 357.512, 162.670 358.749 C 164.227 359.986, 167.139 362.352, 169.141 364.007 C 171.144 365.662, 174.744 367.951, 177.141 369.094 C 179.539 370.237, 183.975 372.530, 187 374.190 C 193.047 377.508, 199.829 380.308, 207.500 382.653 C 210.250 383.494, 213.955 384.805, 215.732 385.567 C 217.510 386.328, 219.653 386.687, 220.495 386.364 C 221.337 386.041, 222.582 386.207, 223.263 386.733 C 223.943 387.259, 226.525 388.214, 229 388.855 C 236.565 390.815, 266.177 391.670, 271.694 390.088 C 273.250 389.642, 275.980 389.490, 277.762 389.752 C 279.905 390.066, 281 389.814, 281 389.005 C 281 388.196, 281.858 387.998, 283.536 388.420 C 286.101 389.063, 293.181 387.362, 299.211 384.653 C 301.020 383.841, 304.167 382.895, 306.205 382.551 C 308.803 382.113, 309.750 381.512, 309.377 380.540 C 309.084 379.777, 309.743 378.673, 310.842 378.085 C 312.327 377.290, 312.950 377.334, 313.273 378.258 C 313.579 379.133, 315.367 378.615, 319.328 376.504 C 323.361 374.354, 324.483 373.345, 323.302 372.931 C 321.904 372.440, 322.017 372.102, 324.051 370.677 C 327.165 368.496, 328.603 368.533, 326.903 370.750 C 326.165 371.712, 326.701 371.488, 328.095 370.250 C 329.489 369.012, 331.125 368, 331.731 368 C 333.499 368, 348.771 353.164, 350.433 349.834 C 351.738 347.218, 351.744 346.968, 350.473 348.022 C 347.933 350.130, 348.867 347.581, 351.959 343.962 C 353.587 342.058, 354.937 341.125, 354.959 341.890 C 355.005 343.456, 360 336.494, 360 334.863 C 360 334.287, 360.900 332.671, 362 331.273 C 363.100 329.874, 364 327.946, 364 326.988 C 364 326.029, 364.675 324.685, 365.500 324 C 366.325 323.315, 366.986 322.023, 366.968 321.128 C 366.941 319.760, 366.702 319.810, 365.468 321.441 C 364.661 322.509, 364 322.832, 364 322.159 C 364 320.017, 366.631 314.549, 368.345 313.128 C 370.120 311.656, 370.664 309.472, 369 310.500 C 367.790 311.248, 367.718 309.993, 368.867 308.180 C 369.328 307.454, 374.683 304.459, 380.768 301.525 C 397.651 293.382, 408.865 285.179, 419.098 273.486 L 424.242 267.607 414.871 265.984 C 397.252 262.933, 384 259.596, 384 258.211 C 384 257.485, 385.536 249.828, 387.414 241.196 C 389.291 232.563, 391.145 223.056, 391.532 220.069 L 392.237 214.639 385.869 219.667 C 375.501 227.853, 374.326 228.469, 372.526 226.669 C 371.687 225.830, 371 224.661, 371 224.071 C 371 223.482, 370.581 223, 370.070 223 C 369.502 223, 369.491 224.225, 370.041 226.142 C 370.537 227.871, 370.704 229.671, 370.412 230.142 C 369.233 232.050, 368.140 230.774, 367.508 226.750 C 367.140 224.412, 366.456 221.150, 365.987 219.500 C 365.519 217.850, 364.579 214.475, 363.898 212 C 362.272 206.086, 354.035 185.917, 352.463 184 C 351.787 183.175, 350.228 180.475, 348.999 178 C 338.935 157.731, 317.035 135.677, 296.775 125.409 C 289.163 121.551, 288.333 121.370, 288.333 123.570 C 288.333 124.489, 290.855 126.407, 294.417 128.198 C 304.986 133.511, 314.802 141.005, 324.300 151.012 C 332.991 160.169, 335.398 163.312, 344.425 177.294 C 351.260 187.882, 359.749 209.170, 362.452 222.500 C 363.344 226.900, 364.312 231.287, 364.604 232.250 C 364.952 233.398, 364.596 234, 363.567 234 C 362.705 234, 361.939 233.213, 361.864 232.250 C 361.312 225.157, 360.786 222.753, 358.540 217.060 C 357.143 213.519, 356 209.833, 356 208.869 C 356 207.906, 355.550 206.840, 355 206.500 C 354.450 206.160, 354 205.009, 354 203.941 C 354 202.873, 353.550 202, 353 202 C 352.450 202, 352 201.186, 352 200.191 C 352 199.196, 351.339 197.509, 350.532 196.441 C 349.724 195.374, 349.049 193.557, 349.032 192.405 C 349.014 191.253, 348.099 189.495, 346.998 188.499 C 345.898 187.502, 343.691 183.924, 342.096 180.547 C 340.500 177.170, 338.476 173.810, 337.597 173.081 C 336.719 172.352, 335.996 171.248, 335.990 170.628 C 335.982 169.627, 326.550 158.855, 320.994 153.500 C 313.394 146.175, 312.022 145, 311.070 145 C 310.485 145, 308.317 143.505, 306.253 141.677 C 301.691 137.637, 293.449 133, 290.830 133 C 288.735 133, 277.824 122.094, 278.624 120.799 C 278.896 120.360, 278.243 120, 277.174 120 C 274.825 120, 267.841 117.095, 270.055 117.039 C 270.911 117.018, 274.736 118.122, 278.555 119.493 C 282.375 120.864, 283.925 121.711, 282 121.376 C 277.537 120.599, 278.334 121.472, 283.334 122.838 C 287.136 123.877, 287.156 123.867, 285.714 121.693 C 284.915 120.487, 283.415 119.364, 282.381 119.198 C 281.346 119.033, 279.600 118.485, 278.500 117.981 C 276.229 116.940, 261.526 113.440, 255.500 112.505 C 253.300 112.164, 250.450 111.668, 249.166 111.402 C 247.883 111.137, 247.085 111.329, 247.394 111.828 M 271.813 112.683 C 272.534 112.972, 273.397 112.936, 273.729 112.604 C 274.061 112.272, 273.471 112.036, 272.417 112.079 C 271.252 112.127, 271.015 112.364, 271.813 112.683 M 276 114 C 276.825 114.533, 278.175 114.945, 279 114.914 C 279.989 114.878, 279.819 114.567, 278.500 114 C 275.751 112.819, 274.172 112.819, 276 114 M 287.568 115.890 C 287.255 116.397, 285.986 116.596, 284.749 116.333 C 283.512 116.069, 284.480 116.794, 286.899 117.944 C 289.318 119.094, 291.531 119.803, 291.816 119.518 C 292.100 119.233, 291.808 119, 291.167 119 C 290.525 119, 290 118.352, 290 117.559 C 290 115.776, 288.342 114.638, 287.568 115.890 M 299.281 121.925 C 299.151 123.646, 305.493 127.840, 306.581 126.752 C 306.894 126.439, 306.210 125.884, 305.061 125.519 C 303.911 125.154, 303.199 124.488, 303.477 124.037 C 303.755 123.587, 302.954 122.544, 301.696 121.720 C 299.624 120.363, 299.397 120.382, 299.281 121.925 M 295 126.918 C 297.407 128.880, 299 129.520, 299 128.526 C 299 128.265, 297.538 127.338, 295.750 126.465 L 292.500 124.880 295 126.918 M 301.441 130.532 C 302.509 131.339, 303.859 131.986, 304.441 131.968 C 305.024 131.951, 304.626 131.276, 303.559 130.468 C 302.491 129.661, 301.141 129.014, 300.559 129.032 C 299.976 129.049, 300.374 129.724, 301.441 130.532 M 312.405 131.854 C 314.521 134.238, 315 134.456, 315 133.035 C 315 132.505, 313.988 131.539, 312.750 130.890 C 310.512 129.715, 310.510 129.720, 312.405 131.854 M 154.500 137 C 154.160 137.550, 154.359 138, 154.941 138 C 155.523 138, 156 137.550, 156 137 C 156 136.450, 155.802 136, 155.559 136 C 155.316 136, 154.840 136.450, 154.500 137 M 328.359 146 C 337.723 156.028, 344.368 164.839, 350.453 175.295 C 351.987 177.933, 353.462 179.872, 353.729 179.605 C 353.996 179.337, 352.871 176.729, 351.230 173.809 C 349.588 170.889, 348.462 167.908, 348.728 167.184 C 348.996 166.452, 348.331 165.638, 347.229 165.350 C 345.288 164.842, 344.799 164.109, 341.657 157 C 339.904 153.034, 326.927 139.753, 324.450 139.390 C 323.556 139.259, 321.864 138.330, 320.689 137.326 C 319.514 136.322, 322.966 140.225, 328.359 146 M 145.405 145.146 C 143.510 147.280, 143.512 147.285, 145.750 146.110 C 147.441 145.223, 148 145.217, 148 146.087 C 148 146.910, 148.448 146.873, 149.547 145.961 C 150.783 144.935, 150.834 144.511, 149.797 143.854 C 147.910 142.656, 147.511 142.774, 145.405 145.146 M 271.290 146.314 C 271.697 147.374, 269.153 147.537, 258.147 147.159 C 232.837 146.290, 228.756 146.436, 225.199 148.339 C 223.383 149.310, 221.630 150.800, 221.304 151.651 C 220.977 152.502, 221.907 158.441, 223.369 164.849 C 225.971 176.254, 226.566 183.947, 225.393 191.038 C 224.837 194.395, 224.631 194.555, 221.359 194.173 C 212.548 193.145, 211.247 204.568, 219.684 208.883 C 222.426 210.285, 228.517 210.329, 231.066 208.965 C 232.556 208.167, 233 208.256, 233 209.351 C 233 214.543, 264.305 219.406, 273.364 215.621 C 276.724 214.217, 281.055 209.636, 280.932 207.615 C 280.895 207.002, 280.387 207.489, 279.803 208.697 C 278.318 211.772, 272.610 214.293, 268.953 213.490 C 265.507 212.733, 264.944 210.771, 268.250 211.039 C 273.210 211.441, 275.197 210.890, 277.412 208.500 C 278.687 207.125, 280.169 206, 280.707 206 C 281.245 206, 283.413 202.317, 285.525 197.816 C 290.049 188.175, 291.167 180.430, 288.600 176.512 C 286.451 173.233, 285.514 173.344, 283.976 177.058 C 283.280 178.739, 280.767 182.114, 278.392 184.558 C 275.152 187.891, 273.317 189, 271.037 189 C 264.378 189, 261.632 181.081, 266.521 175.978 C 268.956 173.437, 268.990 173.221, 267.521 169.705 C 265.646 165.217, 265.563 159.980, 267.329 157.565 C 269.528 154.558, 272.965 157.299, 275.398 164 C 276.141 166.045, 275.099 156.716, 273.862 150.250 C 273.310 147.363, 272.392 145, 271.822 145 C 271.252 145, 271.013 145.591, 271.290 146.314 M 234.923 150.923 C 232.049 153.797, 231.036 157, 233 157 C 233.550 157, 234 156.395, 234 155.655 C 234 153.381, 237.492 151, 240.829 151 C 244.177 151, 245.086 149.631, 242.418 148.607 C 239.489 147.483, 237.860 147.986, 234.923 150.923 M 137.390 154.447 C 132.969 159.501, 132.186 161, 133.969 161 C 134.501 161, 134.695 161.787, 134.399 162.750 C 134.017 163.990, 134.390 163.832, 135.680 162.205 C 145.859 149.370, 145.822 149.429, 143.770 149.429 C 142.631 149.429, 139.904 151.574, 137.390 154.447 M 144.837 157.332 C 136.315 168.015, 128.928 180.790, 128.451 185.668 C 128.245 187.775, 127.185 192.083, 126.095 195.241 C 122.801 204.786, 120.224 227.369, 120.883 240.917 C 121.116 245.728, 121.803 242.301, 122.469 233 C 123.283 221.625, 126.435 205.131, 128.087 203.599 C 128.983 202.768, 129.140 203.050, 128.730 204.750 C 128.093 207.393, 129.472 207.804, 130.409 205.250 C 132.523 199.488, 134.899 194.740, 134.946 196.185 C 134.976 197.112, 134.561 199.024, 134.025 200.435 C 133.391 202.102, 133.391 203, 134.025 203 C 134.561 203, 135 202.495, 135 201.878 C 135 199.610, 140.446 186.898, 142.245 184.967 C 143.267 183.871, 143.840 182.550, 143.519 182.031 C 143.199 181.512, 144.076 180.341, 145.468 179.429 C 146.861 178.517, 148 176.870, 148 175.770 C 148 174.670, 149.656 172.253, 151.680 170.399 C 155.402 166.989, 155.574 164.536, 151.932 166.810 C 150.136 167.932, 150.063 167.872, 151.134 166.157 C 151.782 165.119, 153.030 164.434, 153.907 164.636 C 155.442 164.990, 162 159.827, 162 158.264 C 162 157.844, 160.334 156.150, 158.298 154.500 C 150.960 148.555, 152.015 148.333, 144.837 157.332 M 267.607 160.582 C 267.273 161.452, 267 163.043, 267 164.117 C 267 165.706, 267.344 165.886, 268.847 165.082 C 270.876 163.996, 273 165.365, 273 167.759 C 273 168.506, 273.417 168.860, 273.926 168.546 C 275.002 167.881, 273.683 162.528, 271.920 160.403 C 270.373 158.540, 268.358 158.623, 267.607 160.582 M 241.400 160.765 C 237.787 163.177, 236.883 172.003, 239.706 177.300 C 240.644 179.060, 241.340 180.774, 241.252 181.110 C 241.165 181.445, 244.089 181.999, 247.749 182.341 C 255.500 183.065, 255.962 182.689, 255.985 175.651 C 256.002 170.017, 253.800 164.775, 250.238 161.973 C 247.714 159.987, 243.440 159.403, 241.400 160.765 M 242.138 162.894 C 240.284 164.068, 239.181 170.787, 240.199 174.701 C 241.158 178.389, 242.927 180.069, 242.278 176.676 C 241.633 173.302, 245.028 169.557, 247.903 170.469 C 250.361 171.249, 253.474 177.321, 252.594 179.617 C 252.302 180.378, 252.450 181, 252.923 181 C 254.262 181, 255.054 176.547, 254.373 172.848 C 252.899 164.841, 246.842 159.914, 242.138 162.894 M 350.564 170.293 C 350.940 171.279, 351.499 171.834, 351.807 171.526 C 352.115 171.219, 351.808 170.412, 351.124 169.733 C 350.136 168.753, 350.022 168.868, 350.564 170.293 M 145.667 172.667 C 145.300 173.033, 145 173.798, 145 174.367 C 145 174.993, 145.466 174.934, 146.183 174.217 C 146.834 173.566, 147.134 172.801, 146.850 172.517 C 146.566 172.232, 146.033 172.300, 145.667 172.667 M 354.564 177.293 C 354.940 178.279, 355.499 178.834, 355.807 178.526 C 356.115 178.219, 355.808 177.412, 355.124 176.733 C 354.136 175.753, 354.022 175.868, 354.564 177.293 M 140.035 182.934 C 138.768 185.301, 138.709 186.298, 139.879 185.575 C 140.762 185.029, 142.138 181, 141.442 181 C 141.237 181, 140.605 181.870, 140.035 182.934 M 282.442 182.094 C 282.134 182.592, 282.370 183, 282.967 183 C 284.552 183, 281.354 188.891, 277.653 192.791 C 274.080 196.554, 265.769 199.439, 261.346 198.450 C 255.079 197.049, 254.969 196.972, 255.606 194.432 C 255.978 192.952, 255.783 192, 255.108 192 C 254.499 192, 254 192.460, 254 193.021 C 254 193.583, 252.809 195.842, 251.354 198.042 C 249.898 200.241, 249.032 202.365, 249.429 202.762 C 249.825 203.159, 250.589 202.700, 251.125 201.742 C 252.520 199.248, 253.334 199.483, 260.660 204.500 C 269.176 210.331, 273.993 210.699, 277.011 205.750 C 278.101 203.963, 278.994 201.636, 278.996 200.580 C 279 198.412, 285.056 184.680, 286.235 184.167 C 287.665 183.544, 287.007 182.235, 285.001 181.711 C 283.902 181.423, 282.750 181.596, 282.442 182.094 M 355 183.397 C 355 183.616, 356.302 186.428, 357.892 189.647 C 361.094 196.125, 368 215.728, 368 218.338 C 368 219.252, 368.450 220, 369 220 C 369.550 220, 370.007 219.438, 370.015 218.750 C 370.026 217.900, 370.376 217.980, 371.110 219 C 371.976 220.205, 372.049 220.106, 371.477 218.500 C 371.086 217.400, 369.942 213.854, 368.935 210.620 C 367.928 207.386, 366.069 203.612, 364.802 202.233 C 363.210 200.499, 362.886 199.588, 363.750 199.279 C 364.438 199.034, 365 198.197, 365 197.419 C 365 195.528, 358.925 182.741, 358.316 183.350 C 358.053 183.613, 358.361 184.806, 359 186 C 359.639 187.194, 359.893 188.441, 359.564 188.770 C 359.235 189.099, 358.424 187.935, 357.763 186.184 C 357.102 184.433, 356.210 183, 355.781 183 C 355.351 183, 355 183.179, 355 183.397 M 136.112 191.250 C 135.120 194.223, 135.154 194.335, 136.514 192.559 C 137.331 191.491, 138 190.029, 138 189.309 C 138 187.079, 137.244 187.857, 136.112 191.250 M 114.667 197.667 C 113.711 198.622, 113.845 200, 114.893 200 C 115.384 200, 116.045 199.325, 116.362 198.500 C 116.947 196.976, 115.881 196.452, 114.667 197.667 M 217.524 199.619 C 215.568 201.575, 216.341 202.792, 218.435 201.054 C 219.350 200.295, 221.083 200.079, 222.959 200.491 C 226.120 201.185, 227.269 199.701, 224.418 198.607 C 221.710 197.568, 219.208 197.935, 217.524 199.619 M 238.040 219.218 C 238.891 223.874, 240.659 225.562, 246.268 227.072 C 252.058 228.631, 254 227.617, 254 223.033 L 254 219.201 246.250 217.489 C 241.988 216.547, 238.225 215.614, 237.889 215.415 C 237.553 215.217, 237.621 216.928, 238.040 219.218 M 104.439 223.386 C 104.090 224.777, 104.038 226.496, 104.323 227.207 C 104.629 227.968, 104.904 227.677, 104.991 226.500 L 105.141 224.500 106 226.500 C 106.762 228.272, 106.867 228.187, 106.930 225.750 C 106.968 224.238, 107.034 222.674, 107.075 222.275 C 107.285 220.242, 104.985 221.211, 104.439 223.386 M 121.490 250.500 C 121.778 254.350, 122.900 260.875, 123.982 265 L 125.951 272.500 125.486 266.204 C 125.230 262.741, 124.566 259.058, 124.011 258.020 C 123.455 256.981, 122.968 254.189, 122.930 251.816 C 122.891 249.442, 122.433 246.600, 121.912 245.500 C 121.263 244.129, 121.130 245.701, 121.490 250.500 M 363.975 310.565 C 363.439 311.976, 363 313.519, 363 313.995 C 363 316.457, 353.364 335.098, 348.586 341.878 C 339.186 355.217, 324.291 367.819, 310.578 374.037 C 263.491 395.388, 201.335 384.890, 159.667 348.549 C 155.523 344.934, 151.881 342.383, 151.574 342.880 C 150.848 344.055, 164.490 355.723, 174.036 362.092 C 188.686 371.866, 208.365 379.970, 227.500 384.109 C 239.416 386.686, 262.706 387.647, 275.577 386.092 C 294.404 383.818, 313.096 376.757, 327.621 366.434 C 341.390 356.647, 355.204 338.771, 362.160 321.738 C 364.704 315.508, 366.206 312.025, 367.762 308.750 C 367.958 308.337, 367.405 308, 366.534 308 C 365.663 308, 364.512 309.154, 363.975 310.565 M 273.872 335.750 C 272.629 337.336, 272.664 337.371, 274.250 336.128 C 275.916 334.821, 276.445 334, 275.622 334 C 275.415 334, 274.627 334.788, 273.872 335.750 M 209.500 344 C 209.500 348.133, 209.889 350, 210.750 350 C 211.611 350, 212 348.133, 212 344 C 212 339.867, 211.611 338, 210.750 338 C 209.889 338, 209.500 339.867, 209.500 344 M 220 344 C 220 348.133, 220.389 350, 221.250 350 C 222.111 350, 222.500 348.133, 222.500 344 C 222.500 339.867, 222.111 338, 221.250 338 C 220.389 338, 220 339.867, 220 344 M 226.500 344 C 226.500 348.133, 226.889 350, 227.750 350 C 228.611 350, 229 348.133, 229 344 C 229 339.867, 228.611 338, 227.750 338 C 226.889 338, 226.500 339.867, 226.500 344 M 231.630 340.750 C 231.702 342.262, 232.089 344.293, 232.492 345.263 C 232.921 346.296, 232.660 347.708, 231.862 348.676 C 230.630 350.169, 230.716 350.213, 232.750 349.129 C 234.980 347.940, 235.652 345.985, 234.296 344.629 C 233.908 344.242, 233.571 342.744, 233.546 341.301 C 233.521 339.857, 233.050 338.524, 232.500 338.338 C 231.950 338.152, 231.559 339.237, 231.630 340.750 M 237.500 344 C 237.500 348.133, 237.889 350, 238.750 350 C 239.611 350, 240 348.133, 240 344 C 240 339.867, 239.611 338, 238.750 338 C 237.889 338, 237.500 339.867, 237.500 344 M 242.710 342.739 C 243.027 348.226, 243.556 350, 244.875 350 C 245.956 350, 245.181 346.101, 243.733 344.250 C 243.070 343.402, 243.139 343, 243.947 343 C 245.375 343, 244.945 338.803, 243.467 338.317 C 242.829 338.108, 242.540 339.799, 242.710 342.739 M 249.500 344 C 249.500 347.333, 249.944 350, 250.500 350 C 251.056 350, 251.500 347.333, 251.500 344 C 251.500 340.667, 251.056 338, 250.500 338 C 249.944 338, 249.500 340.667, 249.500 344 M 255.500 339 C 255.840 339.550, 256.316 340, 256.559 340 C 256.802 340, 257 339.550, 257 339 C 257 338.450, 256.523 338, 255.941 338 C 255.359 338, 255.160 338.450, 255.500 339 M 260.500 344 C 260.500 348.133, 260.889 350, 261.750 350 C 262.611 350, 263 348.133, 263 344 C 263 339.867, 262.611 338, 261.750 338 C 260.889 338, 260.500 339.867, 260.500 344 M 265.872 339.337 C 266.795 340.455, 266.925 341.410, 266.270 342.250 C 265.137 343.702, 266.540 350, 267.997 350 C 268.514 350, 268.655 349.265, 268.310 348.366 C 267.966 347.468, 267.642 344.918, 267.592 342.699 C 267.532 340.062, 266.981 338.494, 266 338.170 C 264.714 337.745, 264.696 337.912, 265.872 339.337 M 272.500 344.003 C 272.500 348.135, 272.889 350.001, 273.750 350 C 274.611 350, 275 348.133, 275 344 C 275 339.865, 274.611 338.001, 273.750 338.003 C 272.889 338.005, 272.500 339.873, 272.500 344.003 M 280.590 339.627 C 280.228 340.569, 280.324 341.601, 280.802 341.920 C 282.013 342.727, 283.965 348.701, 283.252 349.415 C 282.930 349.737, 283.417 350, 284.333 350 C 286.417 350, 286.409 349.582, 284.212 343.796 C 282.046 338.095, 281.444 337.401, 280.590 339.627 M 293.032 338.750 C 293.049 339.163, 293.724 340.374, 294.532 341.441 C 295.339 342.509, 296 344.871, 296 346.691 C 296 348.821, 296.487 350, 297.366 350 C 298.723 350, 298.402 346.541, 296.461 340.250 C 295.832 338.212, 292.956 336.954, 293.032 338.750 M 300 339.059 C 300 339.641, 300.450 339.840, 301 339.500 C 301.550 339.160, 302 338.684, 302 338.441 C 302 338.198, 301.550 338, 301 338 C 300.450 338, 300 338.477, 300 339.059 M 254.079 343.583 C 254.127 344.748, 254.364 344.985, 254.683 344.188 C 254.972 343.466, 254.936 342.603, 254.604 342.271 C 254.272 341.939, 254.036 342.529, 254.079 343.583 M 278.740 344.710 C 278.458 345.695, 277.903 347.288, 277.506 348.250 C 277.076 349.297, 277.231 350, 277.893 350 C 278.502 350, 278.911 349.663, 278.802 349.250 C 278.693 348.837, 278.959 347.454, 279.393 346.175 C 279.827 344.896, 279.974 343.640, 279.718 343.385 C 279.463 343.130, 279.023 343.726, 278.740 344.710 M 216.564 348.707 C 216.022 350.132, 216.136 350.247, 217.124 349.267 C 217.808 348.588, 218.115 347.781, 217.807 347.474 C 217.499 347.166, 216.940 347.721, 216.564 348.707 M 256.500 349 C 256.160 349.550, 256.359 350, 256.941 350 C 257.523 350, 258 349.550, 258 349 C 258 348.450, 257.802 348, 257.559 348 C 257.316 348, 256.840 348.450, 256.500 349 M 295.500 355 C 295.160 355.550, 295.332 356, 295.882 356 C 296.432 356, 297.160 355.550, 297.500 355 C 297.840 354.450, 297.668 354, 297.118 354 C 296.568 354, 295.840 354.450, 295.500 355 M 204 364.559 C 204 368.677, 204.372 370.888, 205 370.500 C 205.550 370.160, 206 367.209, 206 363.941 C 206 360.647, 205.554 358, 205 358 C 204.435 358, 204 360.853, 204 364.559 M 210 362.300 C 210 364.665, 210.540 367.140, 211.200 367.800 C 212.522 369.122, 217.610 369.440, 218.348 368.246 C 218.604 367.831, 217.393 367.494, 215.657 367.496 C 212.557 367.500, 212.500 367.415, 212.500 362.748 C 212.500 359.613, 212.075 357.997, 211.250 357.998 C 210.444 357.999, 210 359.528, 210 362.300 M 223.357 360.577 C 221.529 363.368, 222.319 367.945, 224.769 368.758 C 225.784 369.095, 225.796 368.646, 224.827 366.519 C 223.920 364.528, 223.893 363.122, 224.721 360.930 C 226.085 357.314, 225.581 357.184, 223.357 360.577 M 230.638 359.500 C 230.955 360.325, 231.391 361, 231.607 361 C 231.823 361, 232 360.325, 232 359.500 C 232 358.675, 231.564 358, 231.031 358 C 230.499 358, 230.322 358.675, 230.638 359.500 M 235 362.300 C 235 364.665, 235.540 367.140, 236.200 367.800 C 237.522 369.122, 242.610 369.440, 243.348 368.246 C 243.604 367.831, 242.393 367.494, 240.657 367.496 C 237.557 367.500, 237.500 367.415, 237.500 362.748 C 237.500 359.613, 237.075 357.997, 236.250 357.998 C 235.444 357.999, 235 359.528, 235 362.300 M 248.500 363.500 C 248.500 366.907, 248.928 369, 249.625 369 C 250.322 369, 250.750 366.907, 250.750 363.500 C 250.750 360.093, 250.322 358, 249.625 358 C 248.928 358, 248.500 360.093, 248.500 363.500 M 258 359.059 C 258 359.641, 258.450 359.840, 259 359.500 C 259.550 359.160, 260 358.684, 260 358.441 C 260 358.198, 259.550 358, 259 358 C 258.450 358, 258 358.477, 258 359.059 M 262 363.500 C 262 367.233, 262.402 369, 263.250 369.001 C 264.140 369.002, 264.401 367.419, 264.157 363.501 C 263.712 356.354, 262 356.352, 262 363.500 M 267.500 359 C 267.840 359.550, 268.316 360, 268.559 360 C 268.802 360, 269 359.550, 269 359 C 269 358.450, 268.523 358, 267.941 358 C 267.359 358, 267.160 358.450, 267.500 359 M 271.500 363.500 C 271.500 367.233, 271.902 369, 272.750 369 C 273.598 369, 274 367.233, 274 363.500 C 274 359.767, 273.598 358, 272.750 358 C 271.902 358, 271.500 359.767, 271.500 363.500 M 283 363.500 C 283 366.525, 283.450 369, 284 369 C 284.550 369, 285 366.525, 285 363.500 C 285 360.475, 284.550 358, 284 358 C 283.450 358, 283 360.475, 283 363.500 M 288.410 359.627 C 288.754 360.521, 288.639 361.759, 288.157 362.377 C 287.633 363.046, 287.849 364.860, 288.690 366.866 C 290.392 370.928, 291.310 370.568, 290.091 366.318 C 289.610 364.640, 289.576 362.686, 290.016 361.975 C 290.962 360.443, 290.207 358, 288.786 358 C 288.236 358, 288.067 358.732, 288.410 359.627 M 294.500 363.500 C 294.500 367.233, 294.902 369, 295.750 369 C 296.598 369, 297 367.233, 297 363.500 C 297 359.767, 296.598 358, 295.750 358 C 294.902 358, 294.500 359.767, 294.500 363.500 M 302.710 360.001 C 302.422 361.102, 302.540 361.784, 302.972 361.518 C 303.403 361.251, 304.024 362.263, 304.351 363.766 C 305.045 366.954, 306.662 369.672, 307.416 368.917 C 308.102 368.232, 304.830 358, 303.926 358 C 303.545 358, 302.998 358.901, 302.710 360.001 M 252.543 362.931 C 252.226 363.443, 252.425 364.144, 252.984 364.490 C 253.543 364.835, 254 364.416, 254 363.559 C 254 361.802, 253.400 361.544, 252.543 362.931 M 276.079 363.583 C 276.127 364.748, 276.364 364.985, 276.683 364.188 C 276.972 363.466, 276.936 362.603, 276.604 362.271 C 276.272 361.939, 276.036 362.529, 276.079 363.583 M 230 367 C 230 368.100, 230.450 369, 231 369 C 231.550 369, 232 368.100, 232 367 C 232 365.900, 231.550 365, 231 365 C 230.450 365, 230 365.900, 230 367 M 299.638 367.500 C 299.322 368.325, 299.499 369, 300.031 369 C 300.564 369, 301 368.325, 301 367.500 C 301 366.675, 300.823 366, 300.607 366 C 300.391 366, 299.955 366.675, 299.638 367.500 M 200.543 368.931 C 200.226 369.443, 200.425 370.144, 200.984 370.490 C 201.543 370.835, 202 370.416, 202 369.559 C 202 367.802, 201.400 367.544, 200.543 368.931 M 277 388 C 275.787 388.784, 275.931 388.972, 277.750 388.985 C 278.988 388.993, 280 388.550, 280 388 C 280 386.747, 278.939 386.747, 277 388" stroke="none" fill="black" fill-rule="evenodd"/>
</svg>