<svg xmlns="http://www.w3.org/2000/svg" width="520" height="520" viewBox="0 0 520 520" version="1.1">
	<path d="M 241 244.500 L 241 272 246.473 272 L 251.945 272 252.223 257.829 L 252.500 243.658 265.500 258.304 C 272.843 266.577, 279.268 272.961, 280.266 272.975 C 281.918 272.998, 282.015 271.239, 281.766 245.750 L 281.500 218.500 276.276 218.199 L 271.053 217.897 270.776 233.101 L 270.500 248.305 257.128 232.652 C 249.774 224.044, 243.136 217, 242.378 217 C 241.241 217, 241 221.803, 241 244.500 M 175 244.971 L 175 272 180.500 272 L 186 272 186 261.500 L 186 251 192.500 251 L 199 251 199 245.500 L 199 240 192.500 240 L 186 240 186 234.500 L 186 229 194.052 229 L 202.105 229 201.802 223.750 L 201.500 218.500 188.250 218.221 L 175 217.942 175 244.971 M 207 245 L 207 272 221 272 L 235 272 235 266.500 L 235 261 226.500 261 L 218 261 218 256.046 L 218 251.091 224.750 250.796 L 231.500 250.500 231.802 245.250 L 232.105 240 225.052 240 L 218 240 218 234.500 L 218 229 226 229 L 234 229 234 223.500 L 234 218 220.500 218 L 207 218 207 245 M 290 244.948 L 290 272 295.516 272 L 301.033 272 300.766 245.250 L 300.500 218.500 295.250 218.198 L 290 217.895 290 244.948 M 306 218.438 C 306 218.679, 309.150 224.269, 313 230.861 C 316.850 237.453, 320 243.133, 320 243.485 C 320 243.837, 316.400 250.171, 312 257.561 C 307.600 264.951, 304 271.223, 304 271.499 C 304 271.774, 306.815 272, 310.255 272 L 316.511 272 321.505 263.026 C 327.205 252.784, 326.438 252.670, 333.071 264.750 L 337.052 272 343.505 272 L 349.957 272 344.674 263.250 C 341.768 258.438, 337.946 251.960, 336.182 248.856 L 332.974 243.211 339.504 232.143 C 348.465 216.955, 348.341 218, 341.177 218 L 335.140 218 330.912 225.660 L 326.684 233.319 322.830 225.660 L 318.976 218 312.488 218 C 308.920 218, 306 218.197, 306 218.438 M 243 294 C 243 294.550, 243.477 295, 244.059 295 C 244.641 295, 244.840 294.550, 244.500 294 C 244.160 293.450, 243.684 293, 243.441 293 C 243.198 293, 243 293.450, 243 294 M 248.944 293.833 C 248.864 295.530, 248.876 307.867, 248.960 308.750 C 248.999 309.163, 249.416 308.892, 249.887 308.149 C 250.714 306.844, 250.331 293.997, 249.439 293.105 C 249.197 292.864, 248.975 293.192, 248.944 293.833 M 277 294 C 277 294.550, 277.477 295, 278.059 295 C 278.641 295, 278.840 294.550, 278.500 294 C 278.160 293.450, 277.684 293, 277.441 293 C 277.198 293, 277 293.450, 277 294 M 291 295.916 C 291 298.753, 290.806 298.911, 288.002 298.350 C 284.104 297.571, 282 299.376, 282 303.500 C 282 307.699, 283.717 309.036, 288.851 308.835 L 293 308.672 293 301.395 C 293 297.393, 292.550 293.840, 292 293.500 C 291.417 293.140, 291 294.148, 291 295.916 M 193 301.500 L 193 309 197.545 309 C 201.038 309, 202.659 308.432, 204.545 306.545 C 207.782 303.309, 207.644 300.491, 204.077 296.923 C 201.802 294.648, 200.250 294, 197.077 294 L 193 294 193 301.500 M 194.172 300.750 C 193.928 307, 194.902 308.400, 198.885 307.525 C 207.640 305.602, 206.778 296, 197.850 296 C 194.376 296, 194.356 296.025, 194.172 300.750 M 225.211 297.538 C 224.460 298.389, 224.355 299, 224.961 299 C 225.532 299, 226 300.538, 226 302.418 C 226 307.507, 226.888 309.008, 229.857 308.937 C 232.434 308.875, 232.444 308.851, 230.250 307.969 C 228.448 307.244, 228 306.276, 228 303.106 C 228 300.176, 228.455 299.028, 229.750 298.689 C 231.417 298.254, 231.417 298.226, 229.750 298.116 C 228.787 298.052, 228 297.550, 228 297 C 228 295.580, 226.720 295.827, 225.211 297.538 M 210 303.500 C 210 306.525, 210.450 309, 211 309 C 211.550 309, 212 306.525, 212 303.500 C 212 300.475, 211.550 298, 211 298 C 210.450 298, 210 300.475, 210 303.500 M 215.362 299.500 C 214.477 301.805, 215.720 304, 217.910 304 C 218.994 304, 220.191 304.500, 220.569 305.112 C 221.567 306.726, 218.922 308.012, 216.008 307.329 C 214.084 306.879, 213.761 307.022, 214.623 307.944 C 215.240 308.605, 217.265 309, 219.123 308.823 C 221.692 308.577, 222.573 307.985, 222.807 306.346 C 223.048 304.652, 222.355 303.942, 219.557 303.019 C 217.601 302.373, 216 301.478, 216 301.029 C 216 299.830, 218.769 298.974, 220.500 299.638 C 221.325 299.955, 222 299.716, 222 299.107 C 222 297.411, 216.028 297.764, 215.362 299.500 M 234.873 301.720 C 234.642 304.041, 234.769 306.741, 235.156 307.720 C 235.607 308.861, 235.885 307.987, 235.930 305.285 C 235.983 302.080, 236.500 300.803, 238.086 299.954 C 239.233 299.340, 239.919 298.585, 239.610 298.276 C 239.301 297.968, 238.406 298.248, 237.621 298.899 C 236.513 299.819, 236.094 299.795, 235.744 298.792 C 235.496 298.081, 235.105 299.399, 234.873 301.720 M 243 303.500 C 243 306.525, 243.450 309, 244 309 C 244.550 309, 245 306.525, 245 303.500 C 245 300.475, 244.550 298, 244 298 C 243.450 298, 243 300.475, 243 303.500 M 251.395 299.170 C 250.903 299.966, 251.226 300.127, 252.408 299.674 C 255.007 298.676, 258 300.724, 258 303.500 C 258 306.289, 255.028 308.305, 252.322 307.349 C 250.916 306.853, 250.759 306.987, 251.635 307.937 C 253.412 309.867, 257.286 308.763, 258.907 305.865 C 260.228 303.504, 260.203 302.959, 258.667 300.615 C 256.865 297.864, 252.712 297.039, 251.395 299.170 M 263 302.178 C 263 307.599, 264.336 309.002, 269.324 308.814 L 273 308.676 273 303.338 C 273 300.402, 272.611 298, 272.136 298 C 271.661 298, 271.273 299.848, 271.273 302.107 C 271.273 309.130, 265.731 310.390, 265.183 303.492 C 264.720 297.656, 263 296.621, 263 302.178 M 277 303.500 C 277 306.525, 277.450 309, 278 309 C 278.550 309, 279 306.525, 279 303.500 C 279 300.475, 278.550 298, 278 298 C 277.450 298, 277 300.475, 277 303.500 M 297.655 299.829 C 294.426 303.397, 296.881 309, 301.674 309 C 304.186 309, 307 306.002, 307 303.326 C 307 298.745, 300.752 296.407, 297.655 299.829 M 310 303.652 C 310 306.593, 310.450 309, 311 309 C 311.550 309, 312 307.255, 312 305.122 C 312 302.222, 312.567 300.857, 314.250 299.710 C 316.485 298.186, 316.478 298.176, 313.250 298.240 L 310 298.304 310 303.652 M 318.403 299.158 C 317.908 299.958, 318.383 300.133, 319.940 299.726 C 322.752 298.991, 325 299.798, 325 301.544 C 325 302.313, 323.630 303.005, 321.750 303.187 C 319.034 303.449, 318.500 303.910, 318.500 306 C 318.500 308.252, 318.922 308.514, 322.750 308.644 L 327 308.789 327 304.594 C 327 302.288, 326.460 299.860, 325.800 299.200 C 324.269 297.669, 319.340 297.640, 318.403 299.158 M 284.571 300.571 C 283.707 301.436, 283 302.754, 283 303.500 C 283 304.793, 285.592 308, 286.637 308 C 288.610 308, 291 305.535, 291 303.500 C 291 302.121, 290.163 300.623, 289.066 300.035 C 286.564 298.696, 286.431 298.712, 284.571 300.571 M 299.750 300.082 C 297.271 301.523, 297.527 305.677, 300.183 307.098 C 302.045 308.094, 302.637 307.931, 304.210 305.989 C 305.809 304.014, 305.873 303.441, 304.691 301.661 C 302.998 299.112, 301.979 298.786, 299.750 300.082 M 105.191 300.747 C 112.171 300.918, 123.871 300.919, 131.191 300.748 C 138.511 300.577, 132.800 300.436, 118.500 300.436 C 104.200 300.435, 98.211 300.575, 105.191 300.747 M 395.750 300.747 C 403.038 300.918, 414.962 300.918, 422.250 300.747 C 429.538 300.577, 423.575 300.437, 409 300.437 C 394.425 300.437, 388.462 300.577, 395.750 300.747 M 319.667 304.667 C 318.587 305.747, 318.896 306.746, 320.500 307.362 C 322.557 308.151, 325 307.082, 325 305.393 C 325 303.979, 320.912 303.422, 319.667 304.667 M 277 323 C 277 323.550, 277.477 324, 278.059 324 C 278.641 324, 278.840 323.550, 278.500 323 C 278.160 322.450, 277.684 322, 277.441 322 C 277.198 322, 277 322.450, 277 323 M 292.211 326.538 C 291.460 327.389, 291.355 328, 291.961 328 C 292.532 328, 293 329.538, 293 331.418 C 293 336.507, 293.888 338.008, 296.857 337.937 C 299.434 337.875, 299.444 337.851, 297.250 336.969 C 295.448 336.244, 295 335.276, 295 332.106 C 295 329.176, 295.455 328.028, 296.750 327.689 C 298.417 327.254, 298.417 327.226, 296.750 327.116 C 295.788 327.052, 295 326.550, 295 326 C 295 324.580, 293.720 324.827, 292.211 326.538 M 209.631 328 C 209.529 328.275, 209.724 330.750, 210.065 333.500 L 210.686 338.500 210.843 334.285 C 210.960 331.151, 211.529 329.787, 213.064 328.966 C 216.054 327.366, 218 329.398, 218 334.122 C 218 336.255, 218.477 338, 219.059 338 C 219.641 338, 219.845 337.558, 219.511 337.017 C 218.526 335.425, 220.074 329.186, 221.598 328.601 C 224.549 327.468, 226 329.118, 226 333.607 C 226 336.023, 226.450 338, 227 338 C 228.314 338, 228.289 331.408, 226.965 328.934 C 225.819 326.794, 222.043 326.357, 220.242 328.158 C 219.380 329.020, 218.738 329.027, 217.721 328.184 C 216.418 327.102, 210.018 326.957, 209.631 328 M 232.434 328.107 C 231.971 328.856, 232.453 328.991, 233.923 328.525 C 236.058 327.847, 239 329.352, 239 331.122 C 239 331.605, 237.411 332, 235.469 332 C 233.239 332, 231.723 332.558, 231.357 333.513 C 230.418 335.958, 232.960 338.065, 236.554 337.823 C 239.445 337.629, 239.872 337.223, 240.206 334.357 C 240.800 329.273, 239.528 327, 236.091 327 C 234.456 327, 232.810 327.498, 232.434 328.107 M 244.519 332.640 C 246.465 337.038, 246.757 338.588, 245.846 339.685 C 245.205 340.458, 244.077 340.860, 243.340 340.577 C 242.603 340.294, 242 340.530, 242 341.101 C 242 341.672, 243.012 341.995, 244.250 341.820 C 245.922 341.582, 247.349 339.737, 249.804 334.637 C 253.514 326.928, 253.464 324.195, 249.746 331.510 L 247.354 336.216 245.594 331.608 C 244.627 329.074, 243.427 327, 242.930 327 C 242.432 327, 243.148 329.538, 244.519 332.640 M 256.200 328.200 C 255.540 328.860, 255 330.795, 255 332.500 C 255 336.306, 256.563 338, 260.078 338 C 263.282 338, 265.250 335.908, 265.250 332.500 C 265.250 331.128, 264.689 329.330, 264.003 328.503 C 262.508 326.702, 257.877 326.523, 256.200 328.200 M 268.863 328.665 C 268.635 329.674, 268.706 332.300, 269.021 334.500 L 269.594 338.500 270.060 333.676 C 270.525 328.860, 269.648 325.191, 268.863 328.665 M 271 328 C 271 328.550, 271.423 329, 271.941 329 C 272.459 329, 273.160 328.550, 273.500 328 C 273.840 327.450, 273.416 327, 272.559 327 C 271.702 327, 271 327.450, 271 328 M 277 332.500 C 277 335.525, 277.450 338, 278 338 C 278.550 338, 279 335.525, 279 332.500 C 279 329.475, 278.550 327, 278 327 C 277.450 327, 277 329.475, 277 332.500 M 282.667 327.667 C 280.895 329.439, 282.210 331.914, 285.500 333 C 287.425 333.635, 289 334.522, 289 334.971 C 289 336.253, 286.410 336.920, 283.940 336.274 C 282.383 335.867, 281.908 336.042, 282.403 336.842 C 283.428 338.501, 288.530 338.271, 290 336.500 C 291.563 334.617, 289.900 332.269, 286.677 331.810 C 283.368 331.339, 283.896 328.459, 287.250 328.688 C 288.762 328.792, 290 328.454, 290 327.938 C 290 326.876, 283.691 326.642, 282.667 327.667 M 301.403 328.158 C 300.908 328.958, 301.383 329.133, 302.940 328.726 C 305.752 327.991, 308 328.798, 308 330.544 C 308 331.313, 306.630 332.005, 304.750 332.187 C 302.034 332.449, 301.500 332.910, 301.500 335 C 301.500 337.252, 301.922 337.514, 305.750 337.644 L 310 337.789 310 333.594 C 310 331.288, 309.460 328.860, 308.800 328.200 C 307.269 326.669, 302.340 326.640, 301.403 328.158 M 257.571 329.571 C 256.707 330.436, 256 331.754, 256 332.500 C 256 333.793, 258.592 337, 259.637 337 C 261.610 337, 264 334.535, 264 332.500 C 264 331.121, 263.163 329.623, 262.066 329.035 C 259.564 327.696, 259.431 327.712, 257.571 329.571 M 233 334.531 C 233 336.625, 235.697 337.496, 237.513 335.989 C 239.823 334.072, 239.281 333, 236 333 C 233.973 333, 233 333.497, 233 334.531 M 302.667 333.667 C 301.587 334.747, 301.896 335.746, 303.500 336.362 C 305.557 337.151, 308 336.082, 308 334.393 C 308 332.979, 303.912 332.422, 302.667 333.667" stroke="none" fill="black" fill-rule="evenodd"/>
</svg>