<svg xmlns="http://www.w3.org/2000/svg" width="700" height="700" viewBox="0 0 700 700" version="1.1">
	<path d="M 334.554 112.436 C 331.529 113.558, 318.853 125.637, 280.237 164.199 C 252.533 191.865, 228.996 216.170, 227.933 218.210 C 225.426 223.022, 225.444 230.224, 227.975 235.434 C 230.766 241.179, 328.142 338.352, 333.218 340.458 C 337.976 342.432, 345.037 342.428, 349.782 340.450 C 353.936 338.719, 449.387 244.298, 453.616 237.737 C 456.659 233.017, 457.553 226.800, 456.026 220.990 C 454.956 216.918, 450.171 211.813, 404.673 166.201 C 377.078 138.537, 353.069 115.007, 351.319 113.912 C 347.074 111.256, 339.529 110.592, 334.554 112.436 M 388.203 157.854 C 387.161 158.514, 387.199 158.921, 388.396 159.914 C 389.640 160.946, 389.861 160.807, 389.731 159.076 C 389.645 157.934, 389.558 157.007, 389.537 157.015 C 389.517 157.024, 388.916 157.401, 388.203 157.854 M 389.079 164.583 C 389.127 165.748, 389.364 165.985, 389.683 165.188 C 389.972 164.466, 389.936 163.603, 389.604 163.271 C 389.272 162.939, 389.036 163.529, 389.079 164.583 M 396.235 166.708 C 394.990 166.947, 394.197 167.510, 394.474 167.958 C 394.751 168.407, 394.312 169.326, 393.499 170.001 C 392.281 171.012, 391.853 170.811, 391.073 168.864 C 389.774 165.619, 389.780 167.667, 391.083 172.361 C 391.931 175.415, 396.377 180.503, 412.328 196.672 C 423.423 207.919, 433.042 218.332, 433.705 219.811 C 435.363 223.512, 435.293 230.548, 433.565 233.800 C 431.471 237.742, 352.078 316.519, 348.300 318.403 C 344.609 320.245, 339.366 320.463, 335.315 318.945 C 331.548 317.533, 251.188 237.413, 249.396 233.282 C 247.732 229.447, 247.598 224.195, 249.064 220.315 C 249.649 218.767, 259.774 207.812, 271.564 195.971 C 283.354 184.130, 293 174.170, 293 173.838 C 293 173.247, 282.863 168, 281.721 168 C 280.305 168, 232.002 216.835, 230.584 219.700 C 228.640 223.628, 228.552 229.005, 230.361 233.282 C 232.096 237.384, 327.053 333.357, 332.588 336.603 C 337.269 339.348, 343.367 339.737, 348.282 337.603 C 350.118 336.806, 373.050 314.585, 401.689 285.853 C 439.087 248.332, 452.042 234.735, 452.522 232.500 C 452.877 230.850, 453.359 228.889, 453.593 228.143 C 453.828 227.397, 453.527 224.922, 452.925 222.643 C 451.998 219.136, 448.132 214.785, 427.740 194.299 C 414.491 180.988, 403.167 170.373, 402.576 170.709 C 401.984 171.045, 401.829 170.957, 402.232 170.512 C 402.634 170.067, 402.003 168.870, 400.829 167.852 C 399.655 166.833, 398.650 166.061, 398.597 166.136 C 398.544 166.211, 397.481 166.468, 396.235 166.708 M 392 168.559 C 392 169.416, 392.457 169.835, 393.016 169.490 C 393.575 169.144, 393.774 168.443, 393.457 167.931 C 392.600 166.544, 392 166.802, 392 168.559 M 274.292 198.250 C 260.147 212.459, 251.896 221.496, 251.461 223.257 C 249.558 230.958, 249.358 230.710, 292.820 274.278 C 336.247 317.811, 336.539 318.048, 344.654 316.547 C 348.063 315.917, 353.087 311.217, 388.858 275.200 C 411.054 252.850, 429.617 233.508, 430.108 232.217 C 431.535 228.464, 431.131 222.714, 429.243 219.908 C 427.511 217.331, 412.046 201.683, 400.418 190.739 C 396.344 186.906, 394.378 185.597, 394.465 186.775 C 394.536 187.743, 394.956 189.120, 395.397 189.834 C 395.839 190.549, 395.948 191.385, 395.640 191.694 C 395.332 192.002, 395.736 193.827, 396.540 195.749 C 397.343 197.671, 397.964 200.202, 397.919 201.372 C 397.858 202.973, 397.393 202.546, 396.042 199.647 C 395.053 197.528, 393.995 196.200, 393.689 196.695 C 393.382 197.190, 393.545 198.249, 394.051 199.048 C 394.556 199.846, 394.976 201.681, 394.985 203.125 C 394.998 205.489, 394.327 205.966, 388.221 207.929 C 380.267 210.486, 378.624 211.378, 379.128 212.865 C 379.366 213.566, 381.317 213.119, 384.544 211.622 L 389.587 209.283 389.849 211.392 C 390.735 218.517, 390.821 218.359, 385.250 219.868 C 382.363 220.650, 380 221.591, 380 221.959 C 380 222.328, 381.587 223.387, 383.527 224.312 C 387.044 225.989, 387.050 226.002, 385.502 228.997 C 384.647 230.649, 383.724 232, 383.449 232 C 383.175 232, 379.874 230.451, 376.114 228.557 C 369.786 225.371, 365 224.725, 365 227.057 C 365 227.510, 367.276 229.800, 370.057 232.145 C 374.363 235.776, 375.021 236.787, 374.486 238.955 C 373.577 242.643, 373.221 242.831, 364.745 244.091 L 357.033 245.238 359.085 248.119 C 360.213 249.704, 361.856 251, 362.736 251 C 363.616 251, 367.186 251.496, 370.668 252.103 C 376.144 253.056, 376.998 253.496, 376.985 255.353 C 376.957 259.170, 375.612 260.205, 371.646 259.461 C 369.641 259.085, 368 259.091, 368 259.475 C 368 259.859, 369.451 262.194, 371.224 264.663 L 374.449 269.153 371.974 271.054 C 370.613 272.100, 369.275 272.952, 369 272.948 C 368.725 272.944, 366.848 270.661, 364.828 267.874 L 361.156 262.807 360.275 267.153 C 359.453 271.210, 359.197 271.478, 356.454 271.174 C 354.838 270.995, 353.335 270.669, 353.116 270.450 C 352.897 270.230, 353.267 266.641, 353.940 262.474 C 355.034 255.693, 354.981 254.620, 353.437 252.264 L 351.712 249.631 348.342 256.316 C 345.208 262.532, 344.741 263, 341.670 263 C 338.615 263, 338.151 262.546, 335.463 256.922 C 333.865 253.580, 332.257 250.659, 331.888 250.431 C 331.520 250.203, 330.511 251.098, 329.645 252.419 C 328.257 254.537, 328.228 255.719, 329.396 262.437 C 330.125 266.627, 330.446 270.205, 330.110 270.389 C 329.775 270.573, 328.309 271.007, 326.854 271.355 C 323.975 272.042, 323 270.793, 323 266.418 C 323 262.898, 321.750 263.427, 318.116 268.488 C 314.957 272.887, 314.844 272.944, 312.446 271.373 C 309.415 269.387, 309.405 268.671, 312.352 264.683 C 316.639 258.882, 316.633 258.809, 311.858 259.170 C 307.615 259.491, 307.492 259.417, 307.193 256.332 L 306.886 253.164 314.389 251.953 C 319.978 251.052, 322.460 250.139, 324.117 248.375 C 325.340 247.073, 326.139 245.806, 325.892 245.558 C 325.645 245.311, 322.341 244.614, 318.551 244.008 C 310.332 242.695, 310.400 242.730, 309.552 239.351 C 308.979 237.069, 309.628 235.927, 314.028 231.471 L 319.174 226.261 316.550 225.602 C 314.591 225.110, 312.328 225.837, 307.617 228.472 C 304.147 230.412, 300.861 232, 300.314 232 C 299.505 232, 297 227.882, 297 226.552 C 297 226.357, 298.688 225.189, 300.750 223.956 L 304.500 221.714 298.750 219.774 C 292.883 217.794, 292.062 216.621, 294.005 212.990 C 294.987 211.155, 295.142 211.156, 300.662 213.056 C 303.770 214.125, 306.512 215, 306.755 215 C 306.999 215, 306.253 213.399, 305.099 211.443 C 302.423 206.907, 302.434 206.829, 306.031 204.783 L 309.049 203.065 312.745 210.535 C 316.055 217.225, 319.064 220.269, 320.726 218.607 C 321.042 218.291, 320.801 215.013, 320.189 211.322 C 319.026 204.301, 319.403 202.925, 323.027 200.986 C 324.250 200.331, 326.554 201.056, 331.359 203.607 C 337.991 207.129, 338 207.131, 338 204.788 C 338 203.231, 335.898 200.381, 331.750 196.312 C 326.687 191.346, 322.797 188.836, 311.263 183.091 C 303.433 179.191, 296.895 176, 296.734 176 C 296.573 176, 286.474 186.012, 274.292 198.250 M 392.980 192.524 C 392.284 193.362, 391.968 194.301, 392.276 194.610 C 392.585 194.919, 393.340 194.233, 393.954 193.086 C 395.264 190.638, 394.778 190.358, 392.980 192.524 M 346 204 C 346 206.214, 346.752 206.461, 349 204.985 C 350.333 204.109, 350.333 203.891, 349 203.015 C 346.752 201.539, 346 201.786, 346 204 M 328.360 212.750 C 328.631 213.713, 329.144 216.372, 329.500 218.660 C 330.004 221.910, 330.656 222.948, 332.480 223.406 C 333.764 223.728, 335.531 224.267, 336.407 224.603 C 337.721 225.107, 338 224.414, 338 220.649 C 338 216.322, 337.775 215.952, 333.662 213.542 C 328.533 210.536, 327.699 210.412, 328.360 212.750 M 350.250 213.405 C 346.140 215.429, 346 215.654, 346 220.249 C 346 222.862, 346.239 225, 346.532 225 C 346.825 225, 348.577 224.368, 350.425 223.596 C 353.448 222.332, 353.857 221.673, 354.496 217.032 C 354.886 214.194, 355.047 211.746, 354.853 211.592 C 354.659 211.438, 352.587 212.254, 350.250 213.405 M 362.625 214.125 C 362.281 215.844, 362 217.827, 362 218.531 C 362 220.588, 365.938 219.025, 367.759 216.245 C 369.287 213.914, 369.271 213.671, 367.503 212.379 C 364.597 210.254, 363.307 210.716, 362.625 214.125 M 352.243 230.707 L 347.986 232.171 350.061 235.086 C 351.744 237.449, 352.833 237.981, 355.818 237.900 C 357.843 237.845, 360.535 237.508, 361.799 237.150 C 364.046 236.515, 364.011 236.417, 360.299 232.871 L 356.500 229.242 352.243 230.707 M 322.500 233.477 C 320.066 235.575, 319.087 236.963, 320 237.022 C 320.825 237.076, 323.638 237.471, 326.252 237.901 C 330.821 238.653, 331.100 238.558, 333.483 235.433 L 335.963 232.183 332.832 231.091 C 328.098 229.441, 326.848 229.730, 322.500 233.477 M 338.918 240.115 L 336.699 243.231 339.210 248.358 L 341.720 253.485 344.300 248.394 L 346.880 243.303 344.690 240.169 C 343.486 238.445, 342.193 237.027, 341.818 237.017 C 341.443 237.008, 340.138 238.402, 338.918 240.115 M 292.277 344.478 C 271.804 345.102, 254.821 345.845, 254.537 346.129 C 254.253 346.414, 272.963 347.214, 296.114 347.909 C 330.009 348.925, 346.951 348.925, 383.094 347.909 C 407.781 347.215, 427.801 346.468, 427.583 346.250 C 427.064 345.731, 380.659 344.169, 352 343.706 C 339.625 343.506, 312.750 343.854, 292.277 344.478 M 140.637 369.465 C 133.814 371.897, 128.941 377.777, 127.598 385.197 C 126.949 388.783, 126.789 388.902, 122.215 389.197 C 117.700 389.487, 117.487 389.638, 117.187 392.750 L 116.873 396 121.937 396 L 127 396 127 420.500 L 127 445 131.500 445 L 136 445 136 420.500 L 136 396 142 396 L 148 396 148 392.500 L 148 389 141.869 389 L 135.738 389 136.332 385.344 C 137.040 380.978, 141.178 376.339, 145.141 375.469 C 147.607 374.927, 148 374.371, 148 371.421 C 148 367.516, 146.914 367.227, 140.637 369.465 M 587.500 371.638 C 581.450 373.600, 576.098 375.584, 575.606 376.047 C 574.694 376.905, 576.686 383.009, 577.871 382.990 C 579.565 382.964, 602.091 375.172, 602.130 374.600 C 602.232 373.087, 600.042 368.003, 599.302 368.035 C 598.861 368.055, 593.550 369.676, 587.500 371.638 M 190.714 369.619 C 190.321 370.012, 190 372.283, 190 374.667 L 190 379 194.555 379 L 199.110 379 198.805 374.250 C 198.507 369.602, 198.424 369.494, 194.964 369.202 C 193.020 369.039, 191.107 369.226, 190.714 369.619 M 538 374 L 538 379 542 379 L 546 379 546 374 L 546 369 542 369 L 538 369 538 374 M 36.572 389.487 C 34.412 390.257, 31.375 391.825, 29.822 392.973 L 27 395.060 27 391.972 C 27 388.959, 26.899 388.892, 22.750 389.193 L 18.500 389.500 18.234 417.250 L 17.968 445 22.484 445 L 27 445 27 426.968 C 27 413.925, 27.381 408.025, 28.376 405.643 C 30.227 401.213, 36.436 396.271, 41.152 395.474 C 44.737 394.869, 45 394.591, 45 391.412 C 45 388.527, 44.652 388.007, 42.750 388.044 C 41.513 388.068, 38.733 388.717, 36.572 389.487 M 70.500 389.340 C 56.600 393.941, 48.679 403.968, 48.648 417 C 48.621 428.307, 54.254 437.464, 64.500 442.766 C 68.409 444.790, 71.383 445.450, 78.132 445.794 C 87.850 446.289, 92.095 445.285, 99.206 440.810 C 103.322 438.219, 110 430.188, 110 427.829 C 110 427.373, 108.131 427, 105.846 427 C 102.214 427, 101.247 427.520, 98.152 431.136 C 93.470 436.605, 88.107 438.950, 80.218 438.978 C 73.132 439.003, 67.855 437.164, 63.624 433.197 C 60.381 430.156, 57.055 423.633, 57.022 420.250 L 57 418 84.636 418 L 112.272 418 111.655 413.497 C 110.382 404.210, 104.058 395.643, 95.320 391.368 C 88.727 388.142, 77.009 387.185, 70.500 389.340 M 175.566 389.582 C 173.403 390.374, 170.892 391.692, 169.988 392.511 C 167.551 394.716, 166 394.323, 166 391.500 C 166 389.250, 165.600 389, 162 389 L 158 389 158 417 L 158 445 161.906 445 L 165.813 445 166.156 426.250 C 166.463 409.506, 166.720 407.126, 168.554 404.003 C 171.127 399.623, 176.190 396.153, 181.171 395.357 C 184.732 394.787, 185 394.508, 185 391.372 C 185 388.343, 184.720 388.007, 182.250 388.070 C 180.738 388.109, 177.730 388.789, 175.566 389.582 M 230.142 389.999 C 216.900 394.763, 209.179 406.180, 210.242 419.424 C 211.457 434.559, 223.019 445.062, 239.324 445.844 C 248.527 446.285, 254.547 444.835, 260.039 440.857 C 262.208 439.285, 264.212 438, 264.491 438 C 265.517 438, 264.961 444.157, 263.653 447.282 C 261.526 452.363, 255.050 457.549, 249.029 458.993 C 238.853 461.434, 226.889 458.058, 222.619 451.541 C 221.298 449.525, 220.133 449, 216.977 449 C 212.444 449, 212.137 449.867, 215.016 454.525 C 219.407 461.631, 227.836 465.905, 239.050 466.714 C 253.008 467.720, 265.041 462.091, 270.213 452.136 L 273 446.772 273 417.886 L 273 389 269 389 L 265 389 265 393.006 L 265 397.013 260.836 393.996 C 252.554 387.997, 240.186 386.386, 230.142 389.999 M 304.142 389.933 C 291.762 394.540, 284.022 405.217, 284.006 417.712 C 283.992 427.614, 291.145 438.472, 300.743 443.118 C 309.541 447.377, 322.881 447.121, 331.961 442.520 C 336.940 439.997, 344.392 432.433, 345.293 428.988 C 345.751 427.235, 345.312 427, 341.574 427 C 337.812 427, 336.963 427.463, 334.032 431.109 C 329.542 436.696, 324.222 438.953, 315.500 438.969 C 309.564 438.979, 307.718 438.533, 303.357 436.031 C 297.548 432.700, 294.055 427.832, 293.269 421.972 L 292.737 418 320.380 418 L 348.024 418 347.369 413.750 C 345.882 404.091, 339.860 395.990, 330.726 391.361 C 323.569 387.734, 311.757 387.100, 304.142 389.933 M 376.566 389.582 C 374.403 390.374, 371.892 391.692, 370.988 392.511 C 368.551 394.716, 367 394.323, 367 391.500 C 367 389.250, 366.600 389, 363 389 L 359 389 359 417 L 359 445 362.906 445 L 366.813 445 367.156 426.175 C 367.498 407.462, 367.517 407.324, 370.316 403.096 C 373.192 398.753, 379.327 395.065, 383.750 395.022 C 385.651 395.003, 386 394.456, 386 391.500 C 386 388.331, 385.740 388.007, 383.250 388.070 C 381.738 388.109, 378.730 388.789, 376.566 389.582 M 409.268 389.955 C 402.765 392.296, 399.020 394.924, 395.057 399.929 C 382.878 415.305, 389.933 437.752, 409.075 444.533 C 418.429 447.846, 432.386 445.994, 439.615 440.480 C 441.403 439.116, 443.122 438, 443.433 438 C 443.745 438, 444 439.575, 444 441.500 C 444 444.968, 444.040 445, 448.387 445 L 452.773 445 452.937 420.525 C 453.026 407.064, 452.802 394.464, 452.439 392.525 C 451.817 389.209, 451.546 389, 447.889 389 C 444.024 389, 444 389.025, 444 392.966 L 444 396.932 439.428 393.847 C 430.557 387.860, 419.172 386.391, 409.268 389.955 M 487.500 388.867 C 469.651 393.563, 459.841 411.014, 465.953 427.197 C 468.808 434.759, 476.502 441.940, 484.413 444.429 C 492.531 446.982, 505.763 446.343, 512.415 443.076 C 517.099 440.775, 525 433.746, 525 431.879 C 525 430.376, 515.276 430.838, 514.688 432.370 C 514.399 433.124, 511.788 434.924, 508.885 436.370 C 504.664 438.473, 502.195 438.996, 496.554 438.978 C 488.112 438.952, 482.836 436.855, 478.347 431.743 C 474.209 427.030, 472.683 422.065, 473.195 414.984 C 473.726 407.636, 477.193 402.147, 483.728 398.305 C 487.893 395.857, 489.518 395.502, 496.500 395.517 C 505 395.536, 510.391 397.456, 514.405 401.894 C 515.785 403.420, 517.506 404, 520.655 404 C 523.045 404, 525 403.551, 525 403.003 C 525 400.809, 517.506 393.906, 512.426 391.420 C 508.239 389.372, 505.180 388.702, 498.766 388.429 C 494.220 388.236, 489.150 388.433, 487.500 388.867 M 579.500 389.340 C 565.591 393.944, 557.847 403.781, 557.767 416.945 C 557.675 432.044, 568.197 443.731, 583.733 445.786 C 598.961 447.800, 611.840 441.801, 618.216 429.723 C 621.523 423.459, 621.434 411.329, 618.033 404.670 C 615.044 398.818, 609.347 393.488, 603.122 390.718 C 597.385 388.165, 585.197 387.454, 579.500 389.340 M 652.139 389.097 C 650.291 389.656, 647.029 391.219, 644.889 392.570 L 641 395.025 641 392.013 C 641 389.165, 640.781 389, 637 389 L 633 389 633 417 L 633 445 637 445 L 641 445 641.006 428.250 C 641.012 410.071, 641.758 405.630, 645.567 401.103 C 651.156 394.460, 663.531 393.117, 670.459 398.401 C 676.884 403.302, 677.420 405.329, 677.825 426.250 L 678.187 445 682.094 445 L 686 445 685.978 425.750 C 685.959 409.272, 685.693 405.921, 684.129 402.478 C 681.862 397.488, 677.331 392.871, 672.320 390.446 C 667.899 388.305, 657.129 387.586, 652.139 389.097 M 190.714 389.619 C 190.321 390.012, 190 402.633, 190 417.667 L 190 445 194.516 445 L 199.032 445 198.766 417.250 L 198.500 389.500 194.964 389.202 C 193.020 389.039, 191.107 389.226, 190.714 389.619 M 538 417 L 538 445 542 445 L 546 445 546 417 L 546 389 542 389 L 538 389 538 417 M 72.764 395.936 C 67.604 397.603, 62.980 401.178, 60.491 405.425 C 59.121 407.763, 58 409.974, 58 410.338 C 58 410.702, 67.900 411, 80 411 C 104.245 411, 103.895 411.108, 99.731 404.929 C 96.068 399.493, 89.184 395.840, 81.803 395.415 C 78.337 395.215, 74.269 395.450, 72.764 395.936 M 233 396.314 C 231.075 396.924, 227.416 399.503, 224.868 402.045 C 217.151 409.748, 216.182 420.615, 222.394 429.796 C 226.784 436.284, 232.375 439, 241.342 439 C 255.864 439, 265.029 430.274, 264.972 416.500 C 264.938 408.168, 257.387 398.312, 249.321 396.072 C 244.567 394.752, 237.601 394.855, 233 396.314 M 307.558 396.492 C 302.468 398.305, 299.052 400.872, 296.250 404.990 C 292.093 411.097, 291.772 411, 316.107 411 C 340.680 411, 339.547 411.400, 334.785 404.410 C 329.242 396.272, 317.643 392.899, 307.558 396.492 M 412.239 396.335 C 399.376 401, 393.547 416.726, 400.368 428.365 C 404.489 435.397, 409.699 438.395, 418.576 438.844 C 427.761 439.308, 432.218 437.836, 437.425 432.621 C 451.726 418.299, 440.833 394.731, 420.072 395.076 C 417.557 395.118, 414.032 395.684, 412.239 396.335 M 580.625 396.469 C 568.983 400.619, 562.736 415.356, 567.896 426.500 C 571.751 434.826, 578.958 439, 589.479 439 C 603.664 439, 612.152 430.742, 612.186 416.906 C 612.225 401.199, 596.295 390.884, 580.625 396.469 M 130.500 509.022 C 101.051 514.933, 85.987 543.434, 99.204 568.232 C 114.141 596.256, 160.608 599.130, 177.175 573.054 C 181.496 566.253, 181.280 566, 171.148 566 C 162.624 566, 162.177 566.114, 159.069 569.084 C 154.014 573.915, 148.504 575.953, 140.428 575.978 C 132.036 576.004, 125.751 574.068, 120.693 569.898 C 109.584 560.742, 107.912 543.841, 117.022 532.789 C 118.676 530.783, 122.794 527.760, 126.174 526.071 C 131.425 523.447, 133.432 523, 139.963 523 C 146.203 523, 148.572 523.481, 152.856 525.616 C 155.743 527.054, 158.809 529.304, 159.668 530.616 C 161.141 532.864, 161.799 533, 171.177 533 L 181.125 533 178.374 527.946 C 170.516 513.508, 149.513 505.206, 130.500 509.022 M 220.263 509.514 C 211.374 511.445, 202.805 516.363, 196.543 523.127 C 189.137 531.126, 186.635 537.786, 186.635 549.500 C 186.635 561.508, 189.120 567.917, 197.071 576.417 C 215.332 595.938, 247.599 596.011, 265.782 576.574 C 287.989 552.835, 275.168 516.443, 242.131 509.440 C 234.026 507.722, 228.423 507.741, 220.263 509.514 M 289.405 510.388 C 289.169 511.002, 289.094 529.054, 289.238 550.502 L 289.500 589.500 310.250 589.770 L 331 590.041 331 582.520 L 331 575 318.514 575 L 306.027 575 305.764 542.250 L 305.500 509.500 297.666 509.386 C 292.723 509.314, 289.675 509.684, 289.405 510.388 M 342.750 509.667 C 341.121 510.114, 341 512.897, 341 550.073 L 341 590 349 590 L 357 590 357 559.333 C 357 542.467, 357.274 528.941, 357.609 529.276 C 357.944 529.611, 362.781 543.298, 368.359 559.692 L 378.500 589.500 385.500 589.500 L 392.500 589.500 402.668 559.500 L 412.835 529.500 413.168 559.500 L 413.500 589.500 421.761 589.791 L 430.023 590.081 429.761 549.791 L 429.500 509.500 417.894 509.352 C 411.511 509.271, 405.841 509.496, 405.294 509.852 C 404.747 510.208, 400.560 521.750, 395.990 535.500 C 391.419 549.250, 387.136 561.801, 386.470 563.392 C 385.330 566.118, 384.729 564.686, 375.981 538.392 C 370.876 523.051, 366.264 510.215, 365.731 509.868 C 364.600 509.129, 345.325 508.961, 342.750 509.667 M 475.500 509.765 C 474.950 510.169, 473.726 512.175, 472.779 514.222 C 468.710 523.026, 440 588.944, 440 589.484 C 440 589.810, 443.935 589.948, 448.744 589.789 L 457.487 589.500 461.980 578.726 L 466.473 567.952 481.964 568.226 L 497.455 568.500 501.922 579.250 L 506.390 590 515.302 590 C 522.044 590, 524.086 589.696, 523.690 588.750 C 523.402 588.063, 519.705 579.625, 515.474 570 C 511.244 560.375, 503.961 543.725, 499.291 533 C 494.622 522.275, 490.160 512.487, 489.377 511.250 C 488.169 509.341, 487.087 509.002, 482.227 509.015 C 479.077 509.024, 476.050 509.361, 475.500 509.765 M 535.250 509.662 C 534.279 510.054, 534 519.086, 534 550.083 L 534 590 542 590 L 550 590 550.032 560.750 C 550.059 535.486, 550.254 531.751, 551.461 533.344 C 552.230 534.359, 559.466 547.521, 567.542 562.594 L 582.225 590 593.112 590 L 604 590 604 550.045 L 604 510.091 600.750 509.513 C 598.111 509.044, 593.074 509.194, 587.750 509.901 C 587.337 509.955, 586.996 522.938, 586.991 538.750 L 586.981 567.500 584.170 562.500 C 582.624 559.750, 575.808 547.150, 569.023 534.500 C 562.238 521.850, 555.997 510.938, 555.153 510.250 C 553.645 509.022, 537.982 508.560, 535.250 509.662 M 220.324 524.580 C 214.625 526.678, 207.680 533.023, 205.120 538.469 C 202.615 543.798, 202.242 554.250, 204.375 559.355 C 206.343 564.064, 211.541 569.645, 216.887 572.788 C 221.073 575.249, 222.426 575.500, 231.500 575.500 C 242.901 575.500, 246.700 574.071, 253.201 567.335 C 258.086 562.274, 260.144 557.045, 260.187 549.584 C 260.244 539.587, 255.534 531.741, 246.183 526.261 C 242.381 524.033, 240.240 523.553, 233.070 523.320 C 227.223 523.130, 223.173 523.531, 220.324 524.580 M 477.217 543.183 C 474.907 548.775, 473.182 553.515, 473.383 553.716 C 473.584 553.917, 477.612 553.951, 482.333 553.791 L 490.919 553.500 486.868 544 C 484.641 538.775, 482.503 534.166, 482.117 533.758 C 481.731 533.350, 479.526 537.591, 477.217 543.183" stroke="none" fill="black" fill-rule="evenodd"/>
</svg>