<svg xmlns="http://www.w3.org/2000/svg" width="1000" height="1000" viewBox="0 0 1000 1000" version="1.1">
	<path d="M 177.459 366.250 C 177.197 366.938, 177.098 395.850, 177.241 430.500 L 177.500 493.500 239.500 493.776 C 273.600 493.928, 302.512 493.807, 303.750 493.507 L 306 492.962 306 429.588 C 306 372.722, 305.838 366.152, 304.418 365.607 C 303.548 365.273, 274.734 365, 240.387 365 C 191.349 365, 177.835 365.268, 177.459 366.250 M 740.295 385.181 C 730.215 387.863, 732.865 402, 743.448 402 C 750.736 402, 754.835 395.450, 751.538 389.073 C 750.664 387.383, 749.845 386, 749.718 386 C 749.591 386, 748.140 385.624, 746.493 385.164 C 744.847 384.704, 742.058 384.712, 740.295 385.181 M 360.618 395.051 C 354.163 396.668, 345.036 402.119, 341.443 406.504 C 339.579 408.779, 336.805 413.308, 335.278 416.570 C 332.779 421.906, 332.507 423.551, 332.554 433 C 332.623 446.812, 334.895 452.919, 342.923 460.865 C 350.880 468.741, 357.291 471.216, 371.200 471.782 C 382.371 472.237, 393 470.171, 393 467.545 C 393 466.464, 390.040 455.770, 389.609 455.295 C 389.507 455.182, 387.641 455.725, 385.462 456.501 C 383.283 457.277, 378.575 457.922, 375 457.934 C 359.838 457.985, 351.829 449.040, 351.882 432.114 C 351.915 421.649, 355.774 414.372, 363.500 410.203 C 367.759 407.905, 381.369 407.981, 385.768 410.327 C 388.303 411.679, 389.140 411.782, 389.501 410.785 C 391.766 404.532, 393 400.545, 393 399.483 C 393 395.681, 370.432 392.593, 360.618 395.051 M 417.254 413.960 C 404.091 418.697, 397.218 430.059, 398.221 445.421 C 398.763 453.708, 401.289 459.341, 406.910 464.796 C 412.681 470.397, 419.254 472.377, 430.034 471.762 C 439.630 471.215, 444.747 469.078, 450.196 463.339 C 456.931 456.248, 459.689 442.364, 456.536 431.425 C 454.264 423.543, 446.699 415.879, 438.907 413.565 C 431.923 411.491, 423.698 411.641, 417.254 413.960 M 495.500 413.192 C 493.850 413.761, 490.810 415.548, 488.745 417.164 L 484.990 420.103 483.995 417.486 C 483.448 416.047, 483 414.449, 483 413.935 C 483 413.421, 479.850 413, 476 413 L 469 413 469 442 L 469 471 477.979 471 L 486.959 471 487.229 450.789 L 487.500 430.578 490.898 428.289 C 495.202 425.390, 500.067 425.312, 502.595 428.102 C 504.314 429.999, 504.530 432.200, 504.807 450.602 L 505.114 471 514.057 471 L 523 471 523.015 451.250 C 523.024 440.387, 523.361 431.024, 523.765 430.442 C 526.949 425.857, 535.359 424.531, 538.595 428.102 C 540.314 429.999, 540.530 432.200, 540.807 450.602 L 541.114 471 550.057 471 L 559 471 558.994 449.750 C 558.991 438.008, 558.519 426.810, 557.940 424.723 C 554.190 411.221, 536.294 407.758, 523.258 418.012 L 520.656 420.059 517.578 417.216 C 515.885 415.653, 513.241 413.840, 511.703 413.187 C 508.338 411.759, 499.649 411.762, 495.500 413.192 M 587.382 414.012 C 578.004 417.730, 572.093 425.435, 570.086 436.554 C 567.854 448.920, 572.206 460.574, 581.352 466.723 C 587.623 470.939, 591.716 471.988, 601.934 471.994 C 609.853 472, 622 469.612, 622 468.050 C 622 467.229, 618.901 456.614, 618.551 456.237 C 618.417 456.092, 616.571 456.699, 614.449 457.586 C 609.793 459.531, 598.051 459.181, 593.500 456.961 C 590.532 455.513, 586.609 449.441, 587.603 447.833 C 587.886 447.375, 596.481 447, 606.703 447 L 625.288 447 624.611 438.890 C 623.127 421.092, 615.669 413.042, 600 412.326 C 594.214 412.061, 591.330 412.447, 587.382 414.012 M 660.350 413.928 C 658.029 414.982, 655.106 417.422, 653.718 419.464 L 651.237 423.115 650.359 418.307 L 649.481 413.500 642.490 413.500 L 635.500 413.500 635.235 442.250 L 634.969 471 643.985 471 L 653 471 653.082 455.750 C 653.127 447.363, 653.377 439.192, 653.637 437.594 C 655.202 427.976, 661.926 424.401, 672.565 427.529 C 674.433 428.078, 674.748 427.490, 675.879 421.352 C 677.017 415.175, 676.972 414.453, 675.374 413.284 C 672.825 411.420, 665.148 411.750, 660.350 413.928 M 697.324 413.439 C 682.272 418.146, 674.133 432.189, 677.070 448.384 C 679.895 463.965, 690.120 472.016, 707.068 472.005 C 714.417 472, 725 469.721, 725 468.143 C 725 467.714, 724.306 465.027, 723.459 462.173 C 721.989 457.225, 721.791 457.018, 719.209 457.741 C 713.619 459.307, 704.312 458.624, 701.321 456.429 C 696.507 452.895, 694.853 448.479, 695.223 440.151 C 695.533 433.154, 695.723 432.642, 699.177 429.477 C 703.746 425.289, 709.469 424.274, 716.453 426.411 C 719.178 427.245, 721.459 427.831, 721.524 427.713 C 722.845 425.307, 724.815 416.415, 724.170 415.770 C 722.573 414.173, 712.573 412.023, 707 412.079 C 703.975 412.109, 699.621 412.721, 697.324 413.439 M 782.600 414.412 C 772.141 418.820, 766.894 425.647, 765.039 437.258 C 762.816 451.174, 768.266 463.265, 779.500 469.338 C 782.876 471.163, 785.137 471.500, 794 471.500 C 805.897 471.500, 809.964 470.027, 816.420 463.379 C 826.117 453.395, 826.893 432.605, 817.972 421.782 C 810.651 412.900, 794.280 409.489, 782.600 414.412 M 734.667 413.667 C 734.300 414.033, 734 427.083, 734 442.667 L 734 471 743 471 L 752 471 752 442 L 752 413 743.667 413 C 739.083 413, 735.033 413.300, 734.667 413.667 M 423.213 426.468 C 418.768 428.451, 416.718 433.544, 416.689 442.671 C 416.657 452.896, 420.855 458.933, 428.027 458.978 C 435.379 459.024, 439.208 453.439, 439.274 442.576 C 439.354 429.448, 432.326 422.400, 423.213 426.468 M 592.837 426.250 C 590.724 427.960, 588 432.168, 588 433.723 C 588 434.665, 590.363 435, 597 435 C 605.976 435, 606 434.993, 606 432.455 C 606 426.841, 597.221 422.703, 592.837 426.250 M 789 427.203 C 784.830 430.022, 783.134 434.324, 783.056 442.282 C 782.989 449.168, 784.755 453.875, 788.514 456.832 C 793.911 461.078, 801.743 458.599, 804.471 451.781 C 807.518 444.165, 805.551 431.175, 800.748 427.202 C 797.680 424.663, 792.756 424.664, 789 427.203 M 178.200 507.200 C 176.466 508.934, 176.466 632.066, 178.200 633.800 C 179.934 635.534, 303.066 635.534, 304.800 633.800 C 306.534 632.066, 306.534 508.934, 304.800 507.200 C 303.066 505.466, 179.934 505.466, 178.200 507.200 M 319.200 507.200 C 317.616 508.784, 317.457 630.117, 319.035 633.066 C 320.042 634.946, 321.801 635, 382.500 635 C 443.199 635, 444.958 634.946, 445.965 633.066 C 447.543 630.117, 447.384 508.784, 445.800 507.200 C 444.066 505.466, 320.934 505.466, 319.200 507.200 M 546.270 514.715 C 540.371 515.822, 537.989 525.080, 542.455 529.545 C 545.805 532.896, 552.744 533.003, 555.688 529.750 C 562.315 522.427, 556.305 512.833, 546.270 514.715 M 496.873 524.876 C 491.146 526.090, 482.710 530.628, 478.545 534.734 C 476.445 536.805, 473.342 541.425, 471.650 545 C 469.073 550.444, 468.507 553.008, 468.166 560.783 C 467.553 574.742, 469.837 581.704, 477.832 590.252 C 485.628 598.586, 494.496 601.972, 508.568 601.989 C 517.005 601.999, 527.242 600.036, 528.383 598.189 C 528.729 597.630, 526.346 586.858, 525.530 585.295 C 525.472 585.182, 523.641 585.725, 521.462 586.501 C 516.127 588.401, 506.400 588.356, 500.672 586.404 C 489.700 582.665, 484.230 567.690, 488.538 553.183 C 490.687 545.947, 496.050 540.667, 502.927 539.018 C 508.952 537.572, 517.665 538.258, 522.045 540.523 L 524.917 542.008 526.959 535.399 C 528.081 531.764, 529 528.654, 529 528.489 C 529 528.323, 526.862 527.427, 524.250 526.496 C 518.980 524.619, 502.645 523.652, 496.873 524.876 M 576 534.443 L 576 542.885 571.750 543.193 L 567.500 543.500 567.202 549.750 L 566.905 556 571.452 556 L 576 556 576.024 570.250 C 576.057 590.110, 577.666 595.502, 584.590 598.949 C 590.234 601.759, 609.569 601.124, 611.458 598.067 C 611.729 597.629, 611.436 594.815, 610.807 591.814 L 609.662 586.359 603.128 586.429 C 594.470 586.523, 594.034 585.677, 594.015 568.750 L 594 556 601.500 556 L 609 556 609 549.500 L 609 543 601.500 543 L 594 543 594 534.500 L 594 526 585 526 L 576 526 576 534.443 M 540.667 543.667 C 540.300 544.033, 540 557.083, 540 572.667 L 540 601 549 601 L 558 601 558 572 L 558 543 549.667 543 C 545.083 543, 541.033 543.300, 540.667 543.667 M 615 543.511 C 615 543.832, 620.400 556.708, 627 572.124 C 633.600 587.539, 639 600.586, 639 601.116 C 639 605.621, 629.779 616.258, 624.309 618.063 L 621.045 619.140 624.535 626.070 C 626.688 630.344, 628.644 633, 629.641 633 C 632.731 633, 641.919 626.884, 646.526 621.760 C 653.279 614.248, 653.653 613.398, 667.486 574 C 672.217 560.525, 676.518 548.466, 677.044 547.203 C 677.570 545.940, 678 544.477, 678 543.953 C 678 543.420, 674.058 543, 669.057 543 L 660.115 543 655.154 558.250 C 652.425 566.638, 649.872 575.075, 649.479 577 C 648.280 582.878, 647.798 582.568, 645.422 574.387 C 644.162 570.049, 641.171 561.325, 638.775 555 L 634.419 543.500 624.709 543.214 C 619.369 543.056, 615 543.190, 615 543.511" stroke="none" fill="black" fill-rule="evenodd"/>
</svg>