<svg xmlns="http://www.w3.org/2000/svg" width="1020" height="1020" viewBox="0 0 1020 1020" version="1.1">
	<path d="M 220.926 397.455 C 210.914 399.454, 204.203 405.322, 201.879 414.109 C 199.204 424.227, 204.613 432.608, 217.700 438.620 C 221.990 440.591, 227.343 443.065, 229.596 444.117 C 235.055 446.666, 236.835 450.405, 234.243 453.876 C 230.102 459.423, 221.146 458.702, 210.162 451.939 C 207.936 450.569, 207.612 450.739, 203.412 455.473 C 200.985 458.208, 199 460.772, 199 461.172 C 199 462.699, 206.030 467.162, 211.422 469.057 C 227.340 474.652, 243.016 470.744, 249.482 459.570 C 253.335 452.911, 253.246 444.322, 249.260 438.175 C 246.520 433.949, 240.291 430.199, 228 425.374 C 221.363 422.769, 217.998 420.177, 218.015 417.682 C 218.063 410.918, 227.086 408.965, 236.989 413.574 L 242.477 416.129 244.315 413.815 C 245.325 412.542, 247.018 410.484, 248.076 409.242 C 250.437 406.472, 250.451 406.077, 248.250 404.336 C 240.800 398.443, 229.823 395.678, 220.926 397.455 M 751.776 397.554 C 735.903 401.402, 727 414.488, 727 433.971 C 727 452.896, 735.611 466.115, 750.837 470.563 C 760.438 473.368, 773.464 470.625, 780.525 464.311 C 787.846 457.765, 792.222 446.685, 792.297 434.500 C 792.396 418.403, 786.042 405.751, 775 400.061 C 772.207 398.622, 759.744 395.720, 757.918 396.083 C 757.688 396.129, 754.924 396.791, 751.776 397.554 M 84 434.084 L 84 470.169 100.750 469.827 C 119.555 469.444, 123.170 468.455, 130.731 461.624 C 137.025 455.938, 140.311 447.535, 140.811 435.847 C 141.627 416.810, 134.120 404.590, 118.734 399.911 C 113.872 398.433, 109.364 398.014, 98.250 398.008 L 84 398 84 434.084 M 162 434 L 162 470 170 470 L 178 470 178 434 L 178 398 170 398 L 162 398 162 434 M 264.204 404.750 L 264.500 411.500 274.250 411.786 L 284 412.072 284 441.036 L 284 470 292 470 L 300 470 300 441 L 300 412 310 412 L 320 412 320 405 L 320 398 291.954 398 L 263.909 398 264.204 404.750 M 339 434 L 339 470 347.500 470 L 356 470 356 457 L 356 444 360.292 444 L 364.584 444 368.726 451.750 C 371.004 456.012, 374.135 461.859, 375.684 464.742 L 378.500 469.983 387.357 469.992 C 397.809 470.002, 397.758 471.617, 387.856 454.106 C 382.522 444.675, 381.149 441.495, 382.163 440.925 C 384.994 439.332, 388.886 435.354, 390.896 432 C 392.511 429.304, 392.993 426.828, 392.996 421.218 C 393.001 412.503, 391.519 408.541, 386.663 404.277 C 380.866 399.187, 375.032 398, 355.818 398 L 339 398 339 434 M 415 434 L 415 470 423 470 L 431 470 431 434 L 431 398 423 398 L 415 398 415 434 M 456 433.997 L 456 470.153 475.250 469.826 C 493.301 469.520, 494.780 469.351, 499 467.107 C 507.139 462.778, 510.234 458.020, 510.303 449.734 C 510.374 441.249, 507.716 436.383, 501.364 433.369 L 498.123 431.831 501.501 428.865 C 505.667 425.208, 507.379 420.300, 506.756 413.809 C 506.162 407.634, 503.679 404.226, 497.428 401.006 C 492.848 398.646, 491.495 398.481, 474.282 398.171 L 456 397.841 456 433.997 M 530 421.790 C 530 447.385, 530.940 454.301, 535.298 460.766 C 541.903 470.564, 558.467 474.562, 570.946 469.372 C 581.385 465.030, 585.484 457.736, 586.979 440.837 C 588.105 428.118, 588.327 405.884, 587.375 401.125 L 586.750 398 579.375 398 C 575.319 398, 571.993 398.337, 571.985 398.750 C 571.976 399.163, 571.835 409.850, 571.671 422.500 C 571.481 437.130, 570.928 446.849, 570.151 449.207 C 567.557 457.081, 556.905 460.157, 551.190 454.682 C 546.784 450.461, 546 445.295, 546 420.486 L 546 398 538 398 L 530 398 530 421.790 M 612 434 L 612 470 620 470 L 628 470 628 434 L 628 398 620 398 L 612 398 612 434 M 652 433.912 L 652 470 666.318 470 C 685.505 470, 692.511 467.909, 700.124 459.910 C 706.402 453.313, 709.497 440.562, 708.028 427.344 C 706.612 414.595, 699.824 405.054, 689.177 400.844 C 684.354 398.938, 681.129 398.542, 667.750 398.212 L 652 397.824 652 433.912 M 814 434 L 814 470 822 470 L 830 470 830 457 L 830 444 834.466 444 L 838.932 444 842.827 451.053 C 844.969 454.932, 848.022 460.770, 849.611 464.025 L 852.500 469.945 861.825 469.973 L 871.150 470 868.230 464.750 C 866.624 461.863, 863.219 455.900, 860.663 451.500 C 858.106 447.100, 856.012 443.013, 856.007 442.417 C 856.003 441.822, 857.782 439.903, 859.960 438.152 C 865.623 433.601, 867.526 429.024, 867.378 420.306 C 867.280 414.490, 866.755 412.257, 864.637 408.644 C 859.612 400.069, 852.771 398, 829.451 398 L 814 398 814 434 M 901.684 398.750 C 901.243 399.512, 897.194 412.287, 887.976 442 C 882.419 459.914, 880.598 465.550, 879.499 468.250 C 878.853 469.835, 879.587 470, 887.299 470 L 895.812 470 898.057 461.500 L 900.303 453 911.109 453 L 921.915 453 924.012 460.250 C 925.165 464.238, 926.295 468.063, 926.523 468.750 C 926.811 469.619, 929.525 470, 935.437 470 C 941.778 470, 943.838 469.683, 943.547 468.750 C 943.333 468.063, 941.814 463.225, 940.172 458 C 938.531 452.775, 935.302 442.425, 932.997 435 C 930.692 427.575, 928.245 419.700, 927.560 417.500 C 926.875 415.300, 925.231 410.015, 923.907 405.755 L 921.500 398.010 911.809 398.005 C 906.479 398.002, 901.923 398.337, 901.684 398.750 M 471.999 418.750 L 472 427 477.435 427 C 486.612 427, 491 424.251, 491 418.500 C 491 412.813, 488.416 411.308, 477.749 410.783 L 471.997 410.500 471.999 418.750 M 101 433.886 L 101 457 104.851 457 C 117.289 457, 124.007 448.954, 123.994 434.072 C 123.981 418.783, 119.635 413.391, 105.750 411.440 L 101 410.773 101 433.886 M 356 421 L 356 431 362.852 431 C 368.329 431, 370.386 430.542, 373.102 428.717 C 376.045 426.739, 376.541 425.806, 376.803 421.751 C 376.970 419.175, 376.627 416.172, 376.042 415.078 C 374.705 412.581, 369.202 411.013, 361.750 411.006 L 356 411 356 421 M 668 434 L 668 457 672.378 457 C 681.058 457, 689.062 451.003, 690.701 443.271 C 691.839 437.899, 691.548 427.123, 690.152 422.928 C 688.292 417.342, 683.332 413.201, 677.082 412.016 C 667.083 410.119, 668 407.900, 668 434 M 753.396 412.429 C 747.320 415.074, 743.824 422.906, 743.824 433.872 C 743.824 442.486, 745.500 448.097, 749.416 452.588 C 755.013 459.008, 764.162 458.996, 769.812 452.561 C 773.957 447.841, 775.424 442.818, 775.403 433.430 C 775.389 426.907, 774.917 424.414, 772.943 420.431 C 768.795 412.063, 761.293 408.992, 753.396 412.429 M 830 421.106 L 830 431.212 838.092 430.844 C 845.760 430.496, 846.337 430.306, 849.092 427.223 C 850.692 425.433, 852 422.880, 852 421.549 C 852 414.178, 847.340 411, 836.532 411 L 830 411 830 421.106 M 910.244 414.500 C 908.335 421.538, 904 438.848, 904 439.434 C 904 439.745, 907.405 440, 911.567 440 C 918.962 440, 919.118 439.949, 918.413 437.750 C 917.629 435.307, 917.338 434.201, 913.738 420 L 911.329 410.500 910.244 414.500 M 472 448.641 L 472 458.282 480.573 457.747 C 491.470 457.067, 494 455.195, 494 447.811 C 494 443.423, 493.696 442.785, 490.750 440.989 C 488.250 439.465, 485.711 439.007, 479.750 439.004 L 472 439 472 448.641 M 606.346 537.433 C 600.278 539.331, 594.416 543.918, 592.062 548.610 C 589.539 553.637, 589.343 561.814, 591.630 566.632 C 593.159 569.855, 600.410 577, 602.150 577 C 602.919 577, 610.106 580.108, 618.754 584.179 C 621.635 585.536, 623.215 587.009, 623.651 588.746 C 625.747 597.098, 612.900 599.521, 601.282 592.964 C 594.945 589.387, 596.352 588.847, 589.556 597.465 L 586.611 601.198 589.056 603.100 C 590.400 604.146, 593.975 606.226, 597 607.724 C 601.916 610.158, 603.614 610.450, 613 610.473 C 622.048 610.496, 624.091 610.184, 627.771 608.219 C 633.632 605.089, 637.572 600.705, 639.432 595.244 C 641.321 589.701, 641.368 587.961, 639.774 582.640 C 637.817 576.108, 632.821 572.039, 619.974 566.514 C 608.375 561.525, 606.089 559.924, 606.032 556.750 C 605.967 553.210, 609.623 551, 615.540 551 C 619.106 551, 622.476 551.712, 625 553 C 627.156 554.100, 629.501 554.986, 630.210 554.969 C 630.920 554.952, 633.058 552.871, 634.963 550.344 L 638.425 545.751 635.463 543.378 C 631.282 540.030, 626.965 538.131, 620.937 536.988 C 614.317 535.733, 611.509 535.818, 606.346 537.433 M 384 573.906 L 384 610 392 610 L 400 610 400 598.138 L 400 586.275 408.529 585.583 C 423.200 584.393, 430.460 580.503, 434.598 571.617 C 439.863 560.310, 436.487 547.645, 426.581 541.534 L 421.662 538.500 402.831 538.156 L 384 537.813 384 573.906 M 457 574 L 457 610 480 610 L 503 610 503.152 605.750 C 503.318 601.132, 503.306 597.928, 503.119 596.750 C 503.054 596.337, 496.475 596, 488.500 596 L 474 596 474 588 L 474 580 482.750 579.829 C 490.732 579.673, 493.073 579.558, 496.750 579.142 C 497.607 579.044, 498 576.958, 498 572.500 L 498 566 486 566 L 474 566 474 558.500 L 474 551 488.264 551 L 502.528 551 502.817 544.500 L 503.107 538 480.053 538 L 457 538 457 574 M 520 544.462 L 520 550.925 529.250 551.212 L 538.500 551.500 538.765 580.750 L 539.030 610 547.500 610 L 555.970 610 556.235 580.750 L 556.500 551.500 566.250 551.214 L 576 550.928 576 544.464 L 576 538 548 538 L 520 538 520 544.462 M 400 561.394 L 400 572 406.550 572 C 417.018 572, 421 568.828, 421 560.491 C 421 558.364, 420.109 556.076, 418.597 554.318 C 416.399 551.763, 415.500 551.492, 408.097 551.156 L 400 550.788 400 561.394" stroke="none" fill="black" fill-rule="evenodd"/>
</svg>