<svg xmlns="http://www.w3.org/2000/svg" width="510" height="510" viewBox="0 0 510 510" version="1.1">
	<path d="M 34 170.500 L 34 179 49 179 L 64 179 64 221.535 L 64 264.070 74.250 263.785 L 84.500 263.500 84.717 221.500 L 84.933 179.500 99.467 179.223 L 114 178.947 114 170.473 L 114 162 74 162 L 34 162 34 170.500 M 455 171 L 455 180 465 180 L 475 180 475 171 L 475 162 465 162 L 455 162 455 171 M 144.463 189.878 C 142.242 190.887, 138.995 193.464, 137.246 195.606 L 134.067 199.500 134.034 194.750 L 134 190 125 190 L 116 190 116 227 L 116 264 125.906 264 L 135.813 264 136.207 240.750 C 136.540 221.081, 136.882 216.839, 138.425 213.212 C 141.283 206.489, 148.368 204.070, 155.062 207.532 C 157.956 209.029, 158.051 208.999, 159.118 206.282 C 161.010 201.465, 164 192.716, 164 191.995 C 164 191.004, 154.262 187.996, 151.135 188.022 C 149.686 188.034, 146.683 188.869, 144.463 189.878 M 346 189.319 C 339.258 190.898, 335.315 192.944, 331.860 196.661 C 328.463 200.314, 324.593 208.018, 325.669 208.984 C 326.126 209.394, 329.425 210.266, 333 210.922 C 336.575 211.578, 340.228 212.325, 341.118 212.583 C 342.213 212.900, 343.152 212.048, 344.022 209.948 C 344.728 208.241, 346.250 206.228, 347.403 205.473 C 350.626 203.365, 357.123 202.687, 361.868 203.964 C 365.316 204.893, 366.429 205.783, 367.576 208.527 C 370.636 215.852, 370.464 215.975, 351.500 220.062 C 333.003 224.047, 326.903 227.704, 323.980 236.560 C 322.203 241.944, 323.278 251.312, 326.160 255.571 C 334.176 267.411, 352.112 269.081, 366.268 259.305 C 370.483 256.394, 370.361 256.367, 371.694 260.500 L 372.662 263.500 382.453 263.788 C 391.509 264.054, 392.191 263.941, 391.550 262.288 C 388.658 254.827, 388 248.483, 387.994 228.040 C 387.991 216.127, 387.521 204.816, 386.942 202.731 C 385.545 197.701, 380.278 192.626, 374.342 190.591 C 367.831 188.359, 352.951 187.691, 346 189.319 M 432.436 189.019 C 429.365 189.963, 422.132 196.384, 421.850 198.417 C 421.767 199.012, 421.430 197.475, 421.100 195 L 420.500 190.500 411.500 190.500 L 402.500 190.500 402.500 227 L 402.500 263.500 412.132 263.785 L 421.763 264.070 422.218 241.285 C 422.594 222.427, 422.979 217.764, 424.452 214.231 C 427.662 206.533, 434.136 203.950, 441.143 207.574 C 442.816 208.439, 444.346 208.988, 444.541 208.792 C 444.737 208.596, 446.221 204.695, 447.839 200.122 L 450.782 191.807 447.370 190.381 C 442.796 188.470, 436.186 187.867, 432.436 189.019 M 169.183 219.750 C 169.486 248.195, 169.597 249.681, 171.706 253.624 C 176.083 261.807, 183.014 265.467, 194 265.398 C 201.748 265.350, 207.877 262.913, 213.872 257.496 L 218 253.767 218 258.884 L 218 264 227 264 L 236 264 236 226.964 L 236 189.928 226.250 190.214 L 216.500 190.500 216 215.500 C 215.658 232.586, 215.111 241.178, 214.273 242.642 C 210.520 249.192, 202.108 252.326, 195.591 249.602 C 189.614 247.105, 189.085 244.619, 188.336 215.524 L 187.679 190 178.273 190 L 168.866 190 169.183 219.750 M 243 190.750 C 243 191.162, 249.525 207.662, 257.500 227.415 C 265.475 247.168, 272 263.498, 272 263.703 C 272 263.907, 276.099 263.946, 281.109 263.788 L 290.219 263.500 304.083 228.620 C 311.709 209.436, 318.220 192.882, 318.553 191.834 C 319.124 190.033, 318.599 189.944, 308.959 190.214 L 298.760 190.500 293.333 205 C 290.347 212.975, 286.374 223.982, 284.502 229.461 C 282.630 234.939, 280.869 238.764, 280.588 237.961 C 274.104 219.426, 264.565 193.077, 263.860 191.750 C 263.069 190.263, 261.434 190, 252.965 190 C 247.484 190, 243 190.338, 243 190.750 M 455.238 226.750 L 455.500 263.500 465.250 263.786 L 475 264.072 475 227.036 L 475 190 464.988 190 L 454.975 190 455.238 226.750 M 356.662 231.499 C 346.348 234.204, 343 236.706, 343 241.709 C 343 251.555, 355.200 255.154, 363.593 247.785 C 367.244 244.578, 368.986 239.893, 368.994 233.250 C 369.001 228.200, 369.158 228.222, 356.662 231.499 M 116.009 282.700 C 113.482 284.958, 112.479 287.107, 110.962 293.509 C 108.736 302.903, 108.562 306.162, 110.200 307.800 C 114.648 312.248, 124.424 301.810, 122.604 294.557 C 121.870 291.634, 120.210 290.967, 117 292.305 C 114.510 293.343, 114.509 293.349, 116.750 293.743 C 118.576 294.065, 119 294.794, 119 297.619 C 119 302.269, 116.466 307, 113.974 307 C 112.412 307, 112.001 306.321, 112.006 303.750 C 112.010 301.962, 112.665 299.249, 113.463 297.719 C 114.261 296.190, 114.703 294.390, 114.447 293.719 C 114.190 293.049, 114.566 290.475, 115.281 288 C 116.423 284.051, 116.980 283.439, 119.830 283 C 123.577 282.423, 124.527 280.646, 121.332 280.191 C 120.038 280.007, 117.890 281.020, 116.009 282.700 M 163.473 283.327 C 161.563 285.237, 160 287.709, 160 288.821 C 160 290.233, 159.135 291.031, 157.126 291.472 C 153.889 292.183, 151.006 294.971, 148.617 299.700 C 146.600 303.691, 146.561 306.391, 148.495 307.996 C 149.699 308.995, 150.471 308.922, 152.460 307.618 C 155.511 305.619, 156 305.603, 156 307.500 C 156 308.325, 156.247 309, 156.550 309 C 158.042 309, 163 305.811, 163 304.852 C 163 304.130, 162.479 304.187, 161.476 305.020 C 160.638 305.716, 159.722 306.055, 159.441 305.775 C 159.161 305.494, 160.184 300.367, 161.715 294.382 C 164.486 283.554, 164.516 283.498, 167.789 283 C 171.626 282.417, 172.526 280.646, 169.223 280.177 C 167.683 279.958, 165.822 280.978, 163.473 283.327 M 250 281.265 C 248.625 281.944, 246.603 284.431, 245.507 286.792 C 244.269 289.459, 242.664 291.297, 241.268 291.648 C 240.032 291.958, 237.673 293.747, 236.025 295.624 C 229.521 303.032, 231.291 312.822, 238.087 307.027 L 240.500 304.969 237.886 305.559 C 234.508 306.321, 233.821 304.560, 235.543 299.553 C 236.950 295.460, 238.414 294.040, 241.250 294.015 C 243.330 293.997, 243.434 295.420, 241.733 300.624 C 239.172 308.460, 240.828 310.917, 245.640 306.422 C 247.213 304.953, 247.702 304.321, 246.726 305.018 C 243.929 307.015, 243.690 305.664, 245.453 297.820 C 248.873 282.600, 248.682 283, 252.539 283 C 254.949 283, 256 282.544, 256 281.500 C 256 279.687, 253.399 279.585, 250 281.265 M 347.570 282.250 C 343.859 285.534, 337.873 309.011, 340.750 308.996 C 342.197 308.989, 348.219 304.886, 347.637 304.304 C 347.313 303.980, 346.352 304.293, 345.500 305 C 344.648 305.707, 343.681 306.015, 343.351 305.684 C 342.387 304.720, 348.114 283.011, 349.364 282.889 C 349.989 282.828, 351.512 282.861, 352.750 282.961 C 354.206 283.079, 355 282.589, 355 281.572 C 355 279.212, 350.542 279.619, 347.570 282.250 M 138 284.500 C 138 285.325, 138.675 286, 139.500 286 C 140.325 286, 141 285.325, 141 284.500 C 141 283.675, 140.325 283, 139.500 283 C 138.675 283, 138 283.675, 138 284.500 M 424.459 284.067 C 423.539 285.556, 424.606 286.365, 426.520 285.631 C 427.404 285.292, 427.847 284.561, 427.504 284.007 C 426.694 282.696, 425.289 282.723, 424.459 284.067 M 443.918 286.116 C 441.922 288.918, 441.891 289.129, 443.611 288.208 C 444.662 287.646, 446.375 286.244, 447.416 285.093 C 449.029 283.311, 449.074 283, 447.723 283 C 446.850 283, 445.138 284.402, 443.918 286.116 M 61.830 286.027 C 59.812 287.093, 57.225 289.280, 56.080 290.887 C 53.067 295.120, 53.409 303, 56.607 303 C 58.463 303, 58.372 301.554, 56.414 299.928 C 55.308 299.011, 55.010 297.701, 55.429 295.604 C 57.350 285.998, 74 280.566, 74 289.545 C 74 291.995, 71.109 295, 68.752 295 C 67.409 295, 67.316 294.441, 68.154 291.406 C 68.699 289.430, 68.981 287.648, 68.779 287.446 C 67.991 286.658, 64.057 288.283, 64.605 289.170 C 65.555 290.707, 61.863 304.137, 59.971 306.029 C 58.313 307.687, 58.461 307.804, 62.998 308.405 C 68.730 309.166, 72.014 308.069, 74.869 304.440 C 77.522 301.067, 77.577 298.475, 75.043 296.304 C 73.100 294.641, 73.100 294.619, 75.043 293.258 C 77.503 291.534, 77.566 287.822, 75.171 285.655 C 72.718 283.435, 66.403 283.611, 61.830 286.027 M 301.942 285.472 C 300.535 286.237, 298.845 288.045, 298.187 289.489 C 296.807 292.518, 297.580 294.527, 302.147 299.785 C 305.635 303.800, 305.662 304.429, 302.481 307.610 C 299.354 310.737, 294.966 310.561, 293.513 307.250 C 292.297 304.478, 290 304.292, 290 306.965 C 290 311.554, 299.069 312.496, 303.923 308.411 C 308.198 304.814, 308.067 300.924, 303.500 295.868 C 299.348 291.272, 299.207 290.093, 302.449 287.048 C 305.246 284.420, 307.640 284.853, 308.883 288.211 L 309.717 290.467 310.465 288.109 C 311.724 284.145, 307.043 282.697, 301.942 285.472 M 91.615 293.088 C 86.168 297.373, 83.834 307.178, 87.950 308.484 C 89.904 309.104, 95.327 306.898, 96.496 305.007 C 97.319 303.674, 96.401 303.733, 94.119 305.158 C 93.099 305.795, 91.509 306.025, 90.585 305.671 C 89.245 305.157, 89.038 304.263, 89.564 301.263 C 90.358 296.740, 92.701 292.734, 94.251 293.250 C 96.419 293.973, 96.081 295.845, 93.303 298.506 L 90.500 301.192 93.720 299.586 C 98.186 297.358, 99.855 294.098, 97.435 292.329 C 95.055 290.588, 94.741 290.629, 91.615 293.088 M 134.210 292.695 C 132.444 293.550, 131 294.699, 131 295.247 C 131 295.796, 131.686 295.676, 132.524 294.980 C 134.985 292.938, 135.187 294.358, 133.368 300.901 C 131.321 308.264, 132.291 310.343, 136.381 307.363 C 137.787 306.338, 138.951 305.107, 138.969 304.628 C 138.986 304.148, 138.314 304.324, 137.476 305.020 C 136.638 305.716, 135.787 306.108, 135.586 305.893 C 135.385 305.677, 136.018 302.457, 136.994 298.737 C 137.970 295.018, 138.464 291.787, 138.093 291.558 C 137.723 291.329, 135.975 291.840, 134.210 292.695 M 182.557 292.056 C 177.898 292.874, 174.595 296.282, 172.865 302.057 C 171.824 305.529, 171.887 306.315, 173.314 307.742 C 174.855 309.284, 175.179 309.244, 177.985 307.169 C 180.949 304.978, 181 304.974, 181 306.970 C 181 308.087, 181.268 309, 181.596 309 C 182.864 309, 188 305.521, 188 304.662 C 188 304.163, 187.314 304.324, 186.476 305.020 C 184.020 307.059, 183.804 305.656, 185.471 298.471 C 186.333 294.750, 186.918 291.629, 186.770 291.535 C 186.621 291.441, 184.726 291.676, 182.557 292.056 M 201 293 C 198.474 295.526, 198.496 296.227, 201.250 301.015 C 203.343 304.654, 203.385 305.042, 201.846 306.582 C 200.057 308.372, 198 307.762, 198 305.441 C 198 304.648, 197.292 304, 196.427 304 C 194.458 304, 194.913 306.916, 197.095 308.290 C 199.498 309.803, 203.922 308.264, 205.194 305.473 C 206.154 303.367, 205.939 302.465, 203.740 299.375 C 201.147 295.731, 201.065 293, 203.548 293 C 204.282 293, 205.160 293.450, 205.500 294 C 206.408 295.468, 208 295.218, 208 293.607 C 208 292.297, 205.970 291, 203.918 291 C 203.413 291, 202.100 291.900, 201 293 M 262.237 292.543 C 259.498 294.466, 256 301.038, 256 304.260 C 256 306.714, 257.667 309.003, 259.450 308.996 C 261.003 308.991, 267.311 304.977, 266.710 304.377 C 266.427 304.093, 265.311 304.414, 264.230 305.089 C 263.149 305.763, 261.530 306.034, 260.632 305.689 C 257.852 304.622, 258.825 302.130, 262.817 300.093 C 267.967 297.466, 269.685 295.310, 268.335 293.166 C 266.888 290.869, 264.910 290.667, 262.237 292.543 M 325.382 291.982 C 322.988 292.949, 319.582 298.119, 318.604 302.271 C 317.636 306.382, 319.553 309.329, 322.686 308.543 C 325.851 307.748, 330 305.074, 330 303.828 C 330 303.310, 329 303.587, 327.777 304.443 C 324.371 306.829, 322 306.442, 322 303.500 C 322 302.004, 322.572 301, 323.423 301 C 325.619 301, 331 296.041, 331 294.018 C 331 292.628, 328.768 290.649, 327.668 291.063 C 327.576 291.098, 326.547 291.512, 325.382 291.982 M 362.381 292.162 C 357.507 294.524, 353.744 307.197, 357.490 308.635 C 359.282 309.322, 366.196 305.913, 366.822 304.034 C 367.141 303.077, 366.600 303.167, 364.911 304.350 C 361.697 306.601, 359 306.471, 359 304.064 C 359 302.844, 360.491 301.290, 363.032 299.862 C 367.365 297.426, 369.298 293.436, 366.885 291.908 C 365.217 290.852, 365.068 290.860, 362.381 292.162 M 383 292.251 C 377.473 295.012, 374.274 307.017, 378.621 308.685 C 380.265 309.316, 387.635 306.301, 386.709 305.376 C 386.413 305.080, 385.204 305.356, 384.022 305.988 C 382.389 306.862, 381.527 306.852, 380.436 305.947 C 378.597 304.421, 378.617 301.852, 380.503 297.338 C 381.916 293.958, 382.223 293.774, 385.567 294.317 C 388.540 294.800, 389.073 294.617, 388.802 293.209 C 388.384 291.041, 386.159 290.673, 383 292.251 M 404.030 292.279 C 398.112 295.274, 394.891 305.665, 399.071 308.281 C 400.711 309.307, 408 306.599, 408 304.963 C 408 304.518, 406.656 304.824, 405.013 305.644 C 401.164 307.564, 400 306.755, 400 302.163 C 400 296.830, 402.486 293.647, 406.088 294.368 C 409.187 294.987, 411.092 293.306, 408.878 291.904 C 407.108 290.782, 406.968 290.793, 404.030 292.279 M 421.465 291.993 C 419.053 292.922, 416.252 296, 417.819 296 C 418.403 296, 419.160 295.550, 419.500 295 C 421.075 292.451, 421.768 294.406, 420.532 297.910 C 418.686 303.141, 418.247 308.214, 419.599 308.684 C 420.203 308.894, 421.778 308.150, 423.099 307.031 C 424.716 305.661, 424.929 305.195, 423.750 305.605 C 421.553 306.369, 421.521 304.976, 423.576 298.057 C 425.266 292.365, 424.702 290.746, 421.465 291.993 M 439.881 292.503 C 434.962 295.177, 432.353 304.210, 435.571 307.429 C 438.024 309.881, 440.902 309.298, 444.600 305.600 C 447.341 302.859, 448 301.420, 448 298.171 C 448 294.185, 446.045 290.960, 443.679 291.040 C 443.030 291.062, 441.322 291.720, 439.881 292.503 M 460.746 292.625 C 457.827 294.154, 456.986 295.326, 459.500 294.362 C 461.346 293.653, 461.363 294.823, 459.616 302.250 C 458.513 306.934, 458.503 308, 459.560 308 C 460.274 308, 461.577 305.528, 462.455 302.506 C 463.511 298.875, 464.902 296.455, 466.557 295.370 C 467.935 294.468, 469.243 293.909, 469.463 294.130 C 469.683 294.350, 469.156 297.072, 468.291 300.178 C 467.427 303.284, 467.004 306.568, 467.352 307.474 C 467.934 308.991, 468.224 308.981, 470.992 307.346 C 472.646 306.368, 474 305.161, 474 304.662 C 474 304.163, 473.314 304.324, 472.476 305.020 C 470.030 307.050, 469.657 305.455, 471.388 300.376 C 474.371 291.621, 473.248 289.664, 467.486 293.574 C 463.942 295.979, 463.765 296.006, 464.274 294.061 C 464.997 291.294, 464.035 290.902, 460.746 292.625 M 262.272 294.217 C 260.604 296.300, 259.747 300, 260.933 300 C 262.541 300, 266.178 296.035, 265.750 294.750 C 265.182 293.046, 263.426 292.777, 262.272 294.217 M 324.035 294.934 C 322.784 297.271, 322.682 300, 323.845 300 C 325.241 300, 328 296.462, 328 294.671 C 328 292.382, 325.305 292.561, 324.035 294.934 M 361.557 295.223 C 359.858 297.647, 359.508 300, 360.845 300 C 362.241 300, 365 296.462, 365 294.671 C 365 292.334, 363.401 292.590, 361.557 295.223 M 439.740 294.750 C 435.698 299.254, 437.338 309.045, 441.691 306.402 C 445.238 304.249, 446.031 293, 442.636 293 C 441.907 293, 440.603 293.788, 439.740 294.750 M 152.477 296.394 C 151.615 297.711, 150.645 300.411, 150.323 302.394 C 149.817 305.516, 150.003 306, 151.714 306 C 154.007 306, 156.496 303.475, 157.382 300.250 C 157.722 299.012, 158.255 297.100, 158.567 296 C 159.430 292.961, 154.519 293.279, 152.477 296.394 M 177.538 296.302 C 175.019 300.146, 174.472 304.860, 176.456 305.621 C 178.809 306.524, 180.837 304.191, 182.500 298.667 C 183.902 294.006, 183.901 294, 181.475 294 C 180.043 294, 178.427 294.945, 177.538 296.302 M 65.983 300.063 C 65.381 302.297, 64.641 304.772, 64.338 305.563 C 63.935 306.612, 64.582 307, 66.738 307 C 71.589 307, 74.915 301.751, 72.368 298.115 C 69.909 294.604, 67.233 295.421, 65.983 300.063" stroke="none" fill="black" fill-rule="evenodd"/>
</svg>