<svg xmlns="http://www.w3.org/2000/svg" width="500" height="500" viewBox="0 0 500 500" version="1.1">
	<path d="M 191.105 157.373 C 189.450 159.368, 190.839 162, 193.548 162 C 196.365 162, 197.346 160.666, 196.497 157.991 C 195.770 155.700, 192.778 155.357, 191.105 157.373 M 191.459 173.250 C 191.196 173.938, 191.097 199.700, 191.240 230.500 L 191.500 286.500 216.500 287.009 C 238.332 287.453, 242.070 287.764, 246 289.462 C 249.725 291.071, 252.911 291.413, 264.500 291.448 C 277.666 291.489, 278.917 291.320, 285.500 288.626 C 295.119 284.688, 295.506 284.221, 292.665 279.972 C 290.394 276.575, 261.568 180.099, 262.535 179.132 C 263.548 178.119, 279.799 181.301, 283.962 183.328 L 288.424 185.500 288.462 192.500 L 288.500 199.500 291.750 199.813 L 295 200.127 295 190.176 L 295 180.225 288.750 177.647 C 279.208 173.711, 274.314 172.711, 264.500 172.691 C 241.985 172.645, 220.838 185.869, 211.235 206 C 206.497 215.933, 205 222.294, 205 232.500 C 205 242.615, 206.497 249.078, 211.023 258.500 C 214.754 266.267, 224.928 279.329, 228 280.296 C 228.825 280.556, 222.412 280.820, 213.750 280.884 L 198 281 198 226.500 L 198 172 194.969 172 C 193.301 172, 191.722 172.563, 191.459 173.250 M 248.870 181.957 C 227.326 188.662, 212.043 209.839, 212.032 233 C 212.027 244.746, 217.116 258.374, 224.696 266.911 L 228.613 271.322 230.795 263.911 C 241.953 226.004, 254.979 180.649, 254.765 180.451 C 254.619 180.315, 251.967 180.993, 248.870 181.957 M 251.013 213.220 C 246.984 227.124, 243.486 239.265, 243.240 240.200 C 242.836 241.738, 244.286 241.929, 258.398 242.200 C 271.211 242.446, 274.003 242.251, 274.001 241.108 C 273.999 239.194, 259.825 189.690, 259.002 188.720 C 258.638 188.291, 255.043 199.316, 251.013 213.220 M 240.516 249.250 C 240.284 249.938, 238.702 255.450, 237 261.500 C 235.298 267.550, 233.714 273.069, 233.479 273.764 C 232.872 275.560, 241.339 280.633, 249 283.065 C 258.209 285.988, 270.837 285.946, 280.119 282.962 C 283.980 281.720, 286.737 280.433, 286.245 280.102 C 285.753 279.771, 283.359 272.413, 280.925 263.752 L 276.500 248.003 258.719 248.002 C 245.384 248, 240.832 248.313, 240.516 249.250 M 202.665 346.983 C 200.768 353.805, 200.621 355.255, 202.080 352.750 C 203.326 350.612, 207 350.425, 207 352.500 C 207 353.325, 207.409 354, 207.908 354 C 208.698 354, 205.780 342.447, 204.724 341.390 C 204.507 341.173, 203.580 343.690, 202.665 346.983 M 203.800 346.274 C 203.507 347.799, 203.688 349.307, 204.201 349.624 C 205.802 350.614, 206.246 349.239, 205.270 346.313 L 204.331 343.500 203.800 346.274 M 213.394 346.416 C 213.095 347.194, 212.997 349.107, 213.175 350.666 C 213.426 352.854, 214.070 353.555, 216 353.740 C 218.464 353.977, 218.467 353.966, 216.250 353.022 C 214.751 352.384, 214 351.209, 214 349.500 C 214 347.775, 214.737 346.639, 216.250 346.031 L 218.500 345.127 216.219 345.063 C 214.964 345.029, 213.693 345.637, 213.394 346.416 M 223.394 346.416 C 223.095 347.194, 222.997 349.107, 223.175 350.666 C 223.420 352.798, 224.061 353.533, 225.765 353.633 C 227.650 353.744, 227.692 353.690, 226.015 353.314 C 223.320 352.708, 223.099 346.382, 225.750 345.689 C 227.390 345.261, 227.388 345.225, 225.719 345.116 C 224.739 345.052, 223.693 345.637, 223.394 346.416 M 233.043 346.919 C 232.443 348.041, 232.236 350.093, 232.584 351.479 C 233.074 353.430, 233.814 353.969, 235.858 353.864 C 238.089 353.749, 238.163 353.662, 236.335 353.305 C 233.061 352.667, 232.469 350, 235.601 350 C 237.658 350, 238.079 349.576, 237.820 347.760 C 237.403 344.837, 234.437 344.315, 233.043 346.919 M 243 346.345 C 243 347.085, 243.900 348.505, 245 349.500 C 247.585 351.840, 247.525 352.760, 244.750 353.294 L 242.500 353.728 244.781 353.864 C 248.016 354.057, 248.922 351.024, 246.175 349.200 C 243.393 347.353, 243.417 346.251, 246.250 345.706 C 248.179 345.334, 248.108 345.253, 245.750 345.136 C 244.046 345.052, 243 345.511, 243 346.345 M 253.447 347.356 C 252.416 351.461, 253.268 353.500, 256.014 353.500 C 258.248 353.500, 258.500 353.094, 258.500 349.500 C 258.500 346.132, 258.150 345.450, 256.285 345.185 C 254.630 344.950, 253.913 345.498, 253.447 347.356 M 264.175 349.750 L 264.349 354.500 264.729 350.313 C 264.990 347.433, 265.638 345.986, 266.804 345.679 C 268.015 345.360, 267.856 345.199, 266.250 345.116 C 264.193 345.010, 264.015 345.408, 264.175 349.750 M 273.286 349.500 C 273.294 352.250, 273.488 353.256, 273.718 351.736 C 273.947 350.216, 273.941 347.966, 273.704 346.736 C 273.467 345.506, 273.279 346.750, 273.286 349.500 M 279.447 347.356 C 278.489 351.173, 279.298 353.468, 281.725 353.815 C 283.370 354.050, 284.088 353.499, 284.553 351.644 C 285.511 347.827, 284.702 345.532, 282.275 345.185 C 280.630 344.950, 279.912 345.501, 279.447 347.356 M 290 346.345 C 290 347.085, 290.900 348.505, 292 349.500 C 294.585 351.840, 294.525 352.760, 291.750 353.294 L 289.500 353.728 291.781 353.864 C 295.016 354.057, 295.922 351.024, 293.175 349.200 C 290.393 347.353, 290.417 346.251, 293.250 345.706 C 295.179 345.334, 295.108 345.253, 292.750 345.136 C 291.046 345.052, 290 345.511, 290 346.345 M 234 347.500 C 234 348.325, 234.675 349, 235.500 349 C 236.325 349, 237 348.325, 237 347.500 C 237 346.675, 236.325 346, 235.500 346 C 234.675 346, 234 346.675, 234 347.500 M 254.416 347.358 C 253.507 349.726, 254.369 352.500, 256.014 352.500 C 256.989 352.500, 257.500 351.497, 257.500 349.583 C 257.500 346.422, 255.366 344.883, 254.416 347.358 M 280.416 347.358 C 279.507 349.726, 280.369 352.500, 282.014 352.500 C 282.989 352.500, 283.500 351.497, 283.500 349.583 C 283.500 346.422, 281.366 344.883, 280.416 347.358" stroke="none" fill="black" fill-rule="evenodd"/>
</svg>