<svg xmlns="http://www.w3.org/2000/svg" width="276" height="276" viewBox="0 0 276 276" version="1.1">
	<path d="M 118 6.461 C 87.015 10.990, 58.232 26.740, 37.843 50.322 C 5.122 88.169, -3.555 137.082, 13.774 186.004 C 23.876 214.527, 49.110 242.416, 78.014 257.007 C 114.532 275.441, 161.468 275.441, 197.986 257.007 C 249.100 231.205, 277.800 175.630, 269.513 118.500 C 265.733 92.439, 255.689 70.600, 238.157 50.322 C 208.856 16.431, 163.377 -0.170, 118 6.461 M 124 95.294 C 120.169 97.232, 118.608 101.283, 120.031 105.595 C 121.050 108.682, 125.213 112.157, 126.403 110.912 C 127.005 110.282, 127.590 93.998, 127.009 94.015 C 126.729 94.023, 125.375 94.599, 124 95.294 M 138.356 113.370 C 136.257 115.176, 135.600 116.637, 135.600 119.500 C 135.600 122.363, 136.257 123.824, 138.356 125.630 C 142.926 129.560, 143.500 128.876, 143.500 119.500 C 143.500 110.124, 142.926 109.440, 138.356 113.370 M 124.500 128.208 C 121.374 130.001, 120.066 132.221, 120.032 135.795 C 119.996 139.471, 123.681 144.001, 126.705 143.999 C 128.282 143.998, 128.479 143.119, 128.329 136.749 C 128.099 126.960, 128.103 126.996, 127.250 127.030 C 126.838 127.047, 125.600 127.577, 124.500 128.208 M 48.084 180.250 C 48.222 182.297, 58.403 200.330, 59.646 200.729 C 60.277 200.932, 63.314 196.396, 66.396 190.650 C 72.303 179.638, 72.558 179, 71.059 179 C 70.542 179, 67.954 183.046, 65.309 187.990 C 62.664 192.935, 60.193 196.985, 59.818 196.990 C 59.443 196.996, 57.001 192.950, 54.391 188 C 50.032 179.733, 47.870 177.077, 48.084 180.250 M 79.849 189.498 C 76.740 195.276, 74.607 200.257, 75.108 200.567 C 75.609 200.876, 76.802 199.753, 77.759 198.071 C 79.437 195.123, 79.750 195.012, 86.427 195.006 C 93.008 195, 93.493 195.162, 96.137 198.250 C 97.667 200.037, 98.930 201.050, 98.943 200.500 C 98.994 198.442, 88.264 179.490, 86.910 179.246 C 86.032 179.088, 83.370 182.953, 79.849 189.498 M 102 189.441 C 102 195.323, 102.437 200.152, 103 200.500 C 103.640 200.895, 104.014 197.584, 104.040 191.309 L 104.080 181.500 113.370 191.414 C 119.112 197.542, 123.107 201.052, 123.830 200.605 C 125.314 199.688, 125.477 179, 124 179 C 123.407 179, 123 182.667, 123 188 C 123 192.950, 122.632 197, 122.182 197 C 121.731 197, 117.649 192.950, 113.110 188 C 108.570 183.050, 104.213 179, 103.428 179 C 102.282 179, 102 181.061, 102 189.441 M 127.533 179.947 C 127.201 180.484, 129.229 181.025, 132.224 181.197 L 137.500 181.500 137.787 191.286 C 138.157 203.922, 140 203.218, 140 190.441 L 140 181 145 181 C 147.750 181, 150 180.550, 150 180 C 150 178.708, 128.330 178.656, 127.533 179.947 M 153 189.962 C 153 197.145, 153.356 200.898, 154 200.500 C 154.550 200.160, 155 198.109, 155 195.941 L 155 192 161.425 192 L 167.850 192 170.195 196.250 C 171.865 199.279, 173.180 200.500, 174.770 200.500 C 175.996 200.500, 176.901 200.050, 176.780 199.500 C 176.658 198.950, 176.001 198.628, 175.318 198.785 C 174.635 198.942, 173.182 197.316, 172.088 195.173 L 170.100 191.276 172.522 190.172 C 176.034 188.572, 176.815 184.371, 174.105 181.659 C 172.260 179.813, 170.575 179.450, 162.474 179.153 L 153 178.807 153 189.962 M 181 190 L 181 201 190.941 201 C 196.490 201, 201.155 200.558, 201.500 200 C 201.896 199.360, 198.677 199, 192.559 199 L 183 199 183 195 L 183 191 188.750 190.850 C 191.912 190.768, 195.738 190.721, 197.250 190.746 C 198.762 190.772, 200 190.389, 200 189.896 C 200 189.403, 196.175 189, 191.500 189 L 183 189 183 185 L 183 181 192 181 C 197.333 181, 201 180.593, 201 180 C 201 179.400, 197 179, 191 179 L 181 179 181 190 M 207.519 181.390 C 205.911 182.998, 205.311 184.475, 205.685 185.905 C 206.408 188.666, 206.502 188.713, 215.139 190.528 C 219.188 191.379, 223.175 192.763, 224 193.602 C 225.336 194.962, 225.241 195.341, 223.139 197.065 C 219.678 199.902, 213.208 199.630, 208.522 196.451 C 204.536 193.745, 202.791 193.837, 205.107 196.631 C 209.022 201.351, 220.128 202.514, 224.596 198.671 C 226.746 196.821, 227.167 195.801, 226.642 193.709 C 225.942 190.921, 223.050 189.649, 214.103 188.194 C 209.047 187.373, 206.894 185.037, 208.930 182.584 C 210.677 180.480, 219.274 180.420, 221 182.500 C 222.556 184.375, 225.120 184.476, 224.414 182.635 C 223.608 180.537, 219.379 179, 214.407 179 C 210.998 179, 209.331 179.578, 207.519 181.390 M 155 185.500 L 155 190 161.435 190 C 171.842 190, 176.138 187.138, 171.977 182.977 C 170.359 181.359, 168.638 181, 162.500 181 L 155 181 155 185.500 M 83.517 186.967 C 82.133 189.698, 81 192.173, 81 192.467 C 81 192.760, 83.695 193, 86.989 193 L 92.978 193 90.281 187.500 C 88.797 184.475, 87.235 182, 86.809 182 C 86.382 182, 84.901 184.235, 83.517 186.967 M 87 215.500 C 87 218.525, 87.325 219, 89.393 219 C 90.709 219, 92.069 218.262, 92.416 217.359 C 93.204 215.304, 92.215 212, 90.810 212 C 90.150 212, 90.218 212.557, 90.989 213.487 C 92.532 215.346, 91.607 218, 89.418 218 C 88.159 218, 87.876 217.296, 88.213 215 C 88.455 213.350, 88.282 212, 87.827 212 C 87.372 212, 87 213.575, 87 215.500 M 97.252 215.500 C 97.263 217.700, 97.468 218.482, 97.707 217.238 C 97.946 215.994, 97.937 214.194, 97.687 213.238 C 97.437 212.282, 97.241 213.300, 97.252 215.500 M 103 213.378 C 103 214.136, 104.013 215.508, 105.250 216.428 L 107.500 218.100 105.250 217.644 C 104.013 217.393, 103 217.595, 103 218.094 C 103 219.400, 106.751 219.211, 107.585 217.863 C 107.975 217.232, 107.223 215.859, 105.894 214.778 L 103.500 212.830 105.751 213.322 C 106.990 213.592, 107.751 213.405, 107.442 212.907 C 106.557 211.474, 103 211.852, 103 213.378 M 112.660 212.769 C 113.298 213.174, 114.018 214.855, 114.260 216.503 L 114.700 219.500 114.850 216.333 C 114.933 214.592, 115.563 212.940, 116.250 212.662 C 116.938 212.385, 116.150 212.129, 114.500 212.094 C 112.850 212.059, 112.022 212.363, 112.660 212.769 M 121 215.691 C 121 219.129, 121.098 219.249, 122.429 217.441 C 123.760 215.632, 123.903 215.619, 124.536 217.250 C 124.909 218.213, 125.671 219, 126.229 219 C 126.891 219, 126.873 218.552, 126.180 217.716 C 125.538 216.943, 125.463 215.869, 125.991 215.014 C 127.206 213.048, 126.320 212, 123.441 212 C 121.294 212, 121 212.444, 121 215.691 M 131.252 215.500 C 131.263 217.700, 131.468 218.482, 131.707 217.238 C 131.946 215.994, 131.937 214.194, 131.687 213.238 C 131.437 212.282, 131.241 213.300, 131.252 215.500 M 137 215.500 C 137 218.702, 137.270 219.101, 139.250 218.820 C 142.480 218.361, 142.442 212.649, 139.205 212.180 C 137.277 211.901, 137 212.318, 137 215.500 M 146.327 215 C 146.476 218.021, 146.842 218.500, 149 218.500 C 151.158 218.500, 151.524 218.021, 151.673 215 C 151.841 211.593, 151.828 211.580, 151.163 214.500 C 150.782 216.175, 149.826 217.500, 149 217.500 C 148.174 217.500, 147.218 216.175, 146.837 214.500 C 146.172 211.580, 146.159 211.593, 146.327 215 M 156.384 213.442 C 155.389 216.034, 156.476 218.494, 158.760 218.820 C 159.992 218.995, 161 218.700, 161 218.163 C 161 217.626, 160.039 217.439, 158.864 217.746 C 156.955 218.245, 156.777 217.970, 157.191 215.152 C 157.680 211.821, 157.308 211.033, 156.384 213.442 M 159.500 213 C 159.840 213.550, 160.568 214, 161.118 214 C 161.668 214, 161.840 213.550, 161.500 213 C 161.160 212.450, 160.432 212, 159.882 212 C 159.332 212, 159.160 212.450, 159.500 213 M 166.252 215.500 C 166.263 217.700, 166.468 218.482, 166.707 217.238 C 166.946 215.994, 166.937 214.194, 166.687 213.238 C 166.437 212.282, 166.241 213.300, 166.252 215.500 M 172 213.059 C 172 213.641, 172.450 213.840, 173 213.500 C 173.550 213.160, 174 212.684, 174 212.441 C 174 212.198, 173.550 212, 173 212 C 172.450 212, 172 212.477, 172 213.059 M 175.786 214.998 C 176.224 217.979, 176.062 218.249, 174.134 217.745 C 172.959 217.438, 172.249 217.595, 172.558 218.093 C 173.502 219.621, 175.875 219.103, 176.926 217.138 C 177.631 215.821, 177.539 214.752, 176.612 213.484 C 175.454 211.901, 175.358 212.078, 175.786 214.998 M 182.152 215.500 C 182.228 219.093, 182.301 219.204, 182.868 216.594 L 183.500 213.688 184.919 216.344 C 186.907 220.065, 188.024 219.650, 187.864 215.250 C 187.780 212.929, 187.563 212.357, 187.294 213.750 C 187.056 214.988, 186.627 216, 186.341 216 C 186.055 216, 184.976 214.988, 183.944 213.750 L 182.067 211.500 182.152 215.500 M 122 214 C 122 214.550, 122.675 215, 123.500 215 C 124.325 215, 125 214.550, 125 214 C 125 213.450, 124.325 213, 123.500 213 C 122.675 213, 122 213.450, 122 214 M 138 214 C 138 214.550, 138.423 215, 138.941 215 C 139.459 215, 140.160 214.550, 140.500 214 C 140.840 213.450, 140.416 213, 139.559 213 C 138.702 213, 138 213.450, 138 214 M 138 217 C 138 217.550, 138.675 218, 139.500 218 C 140.325 218, 141 217.550, 141 217 C 141 216.450, 140.325 216, 139.500 216 C 138.675 216, 138 216.450, 138 217" stroke="none" fill="black" fill-rule="evenodd"/>
</svg>