<svg xmlns="http://www.w3.org/2000/svg" width="1080" height="1081" viewBox="0 0 1080 1081" version="1.1">
	<path d="M 850.339 84.740 C 849.329 89.763, 849.326 111.996, 850.334 119.500 C 852.008 131.964, 855.343 144.882, 859.757 156 C 862.268 162.325, 864.588 167.728, 864.911 168.006 C 865.235 168.285, 866.485 170.310, 867.688 172.506 C 868.892 174.703, 870.338 176.393, 870.902 176.262 C 871.466 176.131, 871.710 176.593, 871.443 177.288 C 870.570 179.563, 881.149 193.274, 892.438 204.500 C 902.958 214.961, 913.077 222.771, 923 228.089 C 925.475 229.415, 927.725 230.765, 928 231.089 C 928.931 232.185, 951.473 240.751, 955.500 241.539 C 957.700 241.969, 959.950 242.461, 960.500 242.632 C 968.793 245.211, 995.260 247.201, 1006.159 246.064 C 1009.380 245.729, 1009.686 245.470, 1008.709 243.906 C 1008.099 242.929, 1007.170 242.395, 1006.645 242.719 C 1006.120 243.044, 1005.992 242.823, 1006.359 242.228 C 1007.100 241.029, 998.139 226.348, 988.213 212.500 C 984.664 207.550, 981.702 203.435, 981.631 203.355 C 981.559 203.275, 979.250 202.911, 976.500 202.545 C 973.750 202.179, 968.838 201.007, 965.585 199.940 C 962.332 198.873, 959.161 198, 958.539 198 C 957.918 198, 953.379 195.934, 948.454 193.410 C 931.560 184.749, 919.403 174.089, 909.214 159 C 905.347 153.273, 898.046 139.247, 898.017 137.488 C 898.008 136.931, 896.875 132.931, 895.500 128.599 C 894.125 124.267, 893 118.554, 893 115.904 C 893 111.146, 892.913 111.016, 886.147 105.617 C 878.466 99.489, 856.685 83.922, 853.297 82.139 C 851.252 81.063, 851.040 81.248, 850.339 84.740 M 304 359.500 L 304 390 309.500 390 C 314.675 390, 315 389.855, 315 387.541 L 315 385.083 319.952 388.161 C 324.444 390.953, 325.509 391.201, 331.415 390.825 C 336.795 390.482, 338.583 389.887, 341.713 387.397 C 343.796 385.740, 346.545 382.385, 347.822 379.942 C 351.088 373.695, 350.546 363.293, 346.647 357.402 C 340.792 348.553, 328.548 345.725, 320.152 351.281 C 317.868 352.792, 315.951 353.684, 315.892 353.264 C 315.833 352.844, 315.872 347.212, 315.978 340.750 L 316.173 329 310.086 329 L 304 329 304 359.500 M 277.495 330.838 C 276.819 331.515, 276.895 336.007, 277.630 338.750 C 278.160 340.726, 278.881 341, 283.558 341 C 286.486 341, 289.091 340.662, 289.346 340.249 C 289.602 339.836, 289.567 337.340, 289.270 334.703 L 288.730 329.908 283.360 330.125 C 280.407 330.245, 277.768 330.566, 277.495 330.838 M 747.874 337.037 C 731.276 338.976, 711.480 347.151, 697.155 357.983 C 678.904 371.782, 665.260 392.952, 659.270 416.763 C 656.793 426.611, 656.862 453.904, 659.389 463.500 C 663.815 480.305, 671.967 496.119, 682.653 508.627 C 694.572 522.579, 715.921 535.495, 735.500 540.599 C 748.282 543.931, 768.843 544.383, 781.500 541.609 C 812.062 534.912, 839.115 514.320, 852.857 487.294 L 854.996 483.087 859.248 484.631 C 861.587 485.479, 870.475 488.635, 879 491.643 C 887.525 494.652, 902.405 500.012, 912.066 503.556 C 921.728 507.100, 931.050 510, 932.782 510 C 936.969 510, 942.728 504.965, 943.550 500.585 C 944.313 496.518, 942.005 490.688, 938.834 488.673 C 936.865 487.423, 874.559 464.712, 867 462.490 C 862.714 461.230, 862.255 460.379, 863.098 455.258 C 864.330 447.771, 864.060 430.224, 862.586 422 C 852.846 367.655, 802.839 330.617, 747.874 337.037 M 420.647 340.185 C 420.306 341.458, 420.021 343.906, 420.014 345.625 C 420.002 348.329, 420.421 348.834, 423.125 349.375 C 424.844 349.719, 427.544 350, 429.125 350 C 431.591 350, 432.002 349.609, 432.014 347.250 C 432.021 345.738, 432.287 343.531, 432.605 342.346 C 433.237 339.992, 432.529 339.616, 425.384 338.508 C 421.668 337.932, 421.207 338.095, 420.647 340.185 M 213.250 347.255 C 207.629 348.216, 207.642 348.193, 208.954 354.996 C 209.893 359.865, 209.229 360.957, 205.309 360.985 C 202.397 361.005, 201.770 362.260, 202.563 366.483 C 203.194 369.845, 203.408 370, 207.437 370 L 211.652 370 213.413 380.065 C 216.096 395.392, 220.152 398.991, 233.056 397.494 C 238.652 396.844, 238.999 396.648, 238.986 394.152 C 238.979 392.693, 238.702 390.490, 238.371 389.257 C 237.843 387.284, 237.314 387.086, 233.995 387.617 C 228.749 388.456, 226.559 386.030, 225.124 377.792 C 223.308 367.361, 223.350 367.220, 228.512 366.446 C 230.994 366.074, 233.227 365.441, 233.475 365.041 C 233.722 364.640, 233.650 362.617, 233.313 360.544 L 232.702 356.775 226.971 357.424 L 221.239 358.072 220.550 352.552 C 220.170 349.516, 219.554 346.880, 219.180 346.695 C 218.806 346.509, 216.137 346.761, 213.250 347.255 M 283.200 350.749 C 278.787 351.048, 277.979 351.392, 278.374 352.804 C 278.635 353.737, 279.186 361.250, 279.598 369.500 C 280.010 377.750, 280.426 384.950, 280.521 385.500 C 280.617 386.050, 280.764 387.705, 280.848 389.178 C 280.998 391.824, 281.068 391.849, 286.750 391.290 C 289.913 390.979, 292.589 390.660, 292.697 390.582 C 293.449 390.039, 290.304 350.638, 289.500 350.527 C 288.950 350.451, 286.115 350.551, 283.200 350.749 M 474.658 362.031 L 471.825 374.061 467.977 370.095 C 460.341 362.227, 448.814 362.104, 440.635 369.803 C 432.641 377.329, 431.754 392.427, 438.822 400.662 C 443.740 406.391, 453.345 408.554, 460.532 405.551 C 463.929 404.132, 464 404.151, 464 406.504 C 464 408.428, 464.747 409.113, 467.750 409.947 C 474.314 411.770, 474.589 411.588, 476.348 404.250 C 484.831 368.860, 488.128 355.254, 488.554 353.876 C 488.935 352.640, 487.986 351.982, 484.585 351.126 C 482.126 350.507, 479.524 350, 478.802 350 C 477.948 350, 476.499 354.206, 474.658 362.031 M 360.036 362.074 C 357.787 382.441, 358.774 388.062, 365.299 392.040 C 369.241 394.444, 381.115 394.721, 385 392.500 C 388.337 390.592, 389 390.654, 389 392.871 C 389 394.367, 390.026 394.878, 394.117 395.421 C 396.931 395.794, 399.355 395.965, 399.503 395.800 C 400.196 395.029, 403.718 356.420, 403.149 355.841 C 402.792 355.478, 400.252 355.028, 397.504 354.841 L 392.508 354.500 391.894 359.500 C 391.557 362.250, 390.957 367.960, 390.561 372.190 C 389.632 382.105, 387.355 385, 380.482 385 C 370.774 385, 369.592 382.515, 371.197 365.484 C 371.842 358.638, 372.174 352.854, 371.935 352.631 C 371.696 352.409, 369.200 351.917, 366.388 351.538 L 361.276 350.850 360.036 362.074 M 261.388 353.433 C 259.676 354.178, 257.314 355.820, 256.138 357.082 L 254 359.377 254 356.549 L 254 353.720 248.395 354.299 C 245.312 354.617, 242.645 355.022, 242.468 355.198 C 242.132 355.535, 245.524 386.041, 246.547 391.881 L 247.140 395.262 252.206 394.662 C 254.992 394.332, 257.477 393.856, 257.729 393.604 C 257.981 393.353, 257.639 388.190, 256.970 382.132 C 256.301 376.074, 256.041 369.971, 256.393 368.571 C 257.196 365.370, 261.105 362.763, 266.167 362.050 C 268.316 361.747, 270.058 361.163, 270.037 360.750 C 270.017 360.337, 270 358.200, 270 356 C 270 352.294, 269.798 352.003, 267.250 352.039 C 265.738 352.061, 263.100 352.688, 261.388 353.433 M 138 357.168 C 136.075 357.712, 134.114 358.530, 133.642 358.986 C 132.781 359.819, 134.545 366.741, 136.031 368.360 C 136.465 368.833, 139.149 368.447, 141.998 367.501 C 146.505 366.004, 147.097 365.504, 146.564 363.640 C 146.227 362.463, 145.681 360.262, 145.351 358.750 C 144.702 355.780, 143.689 355.562, 138 357.168 M 323.325 358.426 C 317.607 360.974, 314.833 367.935, 316.965 374.394 C 320.420 384.862, 336.183 384.463, 339.044 373.835 C 341.939 363.084, 332.856 354.179, 323.325 358.426 M 417.567 359.202 C 417.057 360.824, 411 395.604, 411 396.905 C 411 397.805, 421.785 400.558, 422.488 399.837 C 422.875 399.441, 427.981 370.397, 428.726 364.355 C 429.284 359.821, 429.273 359.811, 421.737 358.540 C 419.077 358.091, 417.854 358.285, 417.567 359.202 M 172.500 367.502 C 164.359 370.380, 160.602 378.411, 164.566 384.460 C 166.631 387.613, 170.518 388.861, 181.958 390.047 C 187.167 390.588, 191.840 391.440, 192.342 391.942 C 192.843 392.443, 192.974 393.967, 192.633 395.327 C 191.518 399.769, 183.400 401.228, 174.577 398.573 L 169.837 397.147 168.387 400.617 C 167.589 402.526, 167.168 404.463, 167.451 404.921 C 168.352 406.379, 176.667 408, 183.246 408 C 194.672 408, 203 401.960, 203 393.672 C 203 386.117, 195.942 382, 182.991 382 C 176.086 382, 173 380.791, 173 378.086 C 173 375.141, 178.065 373.677, 186.402 374.212 L 193.761 374.684 194.804 371.288 C 195.767 368.149, 195.658 367.820, 193.358 366.946 C 189.672 365.545, 177.087 365.880, 172.500 367.502 M 744.997 367.294 C 734.387 370.289, 723.458 380.560, 717.180 393.437 C 712.203 403.644, 710.599 410.459, 710.693 421 C 710.803 433.301, 714.716 444.765, 721.815 453.577 C 731.012 464.992, 740.308 470.014, 752.230 470.005 C 768.706 469.993, 780.370 459.249, 780.461 444 C 780.493 438.699, 780.003 436.655, 777.808 432.920 C 773.600 425.764, 772.628 425.293, 768.770 428.546 C 764.230 432.374, 759.883 434.004, 754.282 433.978 C 741.670 433.920, 733.146 424.307, 734.221 411.353 C 735.334 397.924, 747.952 390.496, 765.504 392.937 C 791.682 396.578, 809.970 417.580, 809.970 444 C 809.970 470.535, 791.020 492.870, 763.792 498.427 C 754.108 500.403, 749.860 500.402, 740.254 498.417 C 720.174 494.270, 702.153 480.373, 691.294 460.663 C 688.328 455.279, 687.982 454.942, 688.556 458 C 689.531 463.193, 694.679 475.172, 698.258 480.575 C 708.730 496.385, 725.781 508.166, 744.558 512.566 C 755.200 515.060, 773.047 514.162, 783.500 510.606 C 795.234 506.614, 804.380 500.819, 813.620 491.521 C 820.201 484.898, 822.616 481.565, 826.368 473.925 C 832.797 460.837, 834.443 453.922, 834.443 440 C 834.443 426.889, 832.837 419.504, 827.554 408.317 C 818.829 389.840, 802.737 375.642, 783.278 369.251 C 776.919 367.163, 773.128 366.635, 762.500 366.360 C 754.024 366.140, 747.933 366.466, 744.997 367.294 M 98.500 375.542 C 92.492 376.795, 72.291 384.385, 70.603 386.024 C 70.078 386.533, 73.057 395.324, 77.778 407.197 C 82.218 418.364, 86.826 430.111, 88.017 433.303 C 89.208 436.494, 90.512 438.969, 90.913 438.803 C 91.314 438.636, 97.283 436.321, 104.177 433.657 C 118.462 428.138, 125.077 423.665, 129.468 416.556 C 132.188 412.152, 132.500 410.818, 132.500 403.574 C 132.500 396.612, 132.093 394.697, 129.544 389.665 C 123.484 377.706, 112.369 372.649, 98.500 375.542 M 448.157 377.150 C 441.144 384.323, 443.808 395.525, 453.122 398.033 C 460.373 399.985, 466.606 395.353, 467.700 387.201 C 468.719 379.601, 463.711 374, 455.896 374 C 451.989 374, 450.741 374.508, 448.157 377.150 M 143.750 376.604 C 141.137 377.405, 139.005 378.384, 139.011 378.780 C 139.018 379.176, 140.403 384, 142.091 389.500 C 143.778 395, 146.290 403.325, 147.671 408 C 149.053 412.675, 150.334 416.654, 150.518 416.843 C 150.701 417.031, 153.365 416.454, 156.437 415.561 C 162.983 413.658, 163.083 416.361, 155.579 392.237 C 152.739 383.108, 149.984 375.528, 149.457 375.393 C 148.931 375.258, 146.363 375.803, 143.750 376.604 M 499.429 381.829 C 489.131 386.667, 484.162 400.156, 488.865 410.509 C 492.558 418.638, 500.697 423.367, 511.105 423.432 C 529.148 423.544, 538.720 400.853, 526.197 387.658 C 519.716 380.830, 507.308 378.128, 499.429 381.829 M 100 384.748 C 95.468 385.465, 85.817 389.314, 85.323 390.601 C 84.853 391.824, 96.515 422.534, 98.176 424.450 C 99.299 425.745, 110.476 421.637, 114.800 418.339 C 118.943 415.179, 121 410.588, 121 404.500 C 121 392.148, 111.241 382.969, 100 384.748 M 504.288 390.581 C 499.901 392.810, 496.545 399.764, 497.472 404.704 C 498.280 409.007, 502.905 413.728, 506.789 414.213 C 516.519 415.428, 523.838 406.648, 520.760 397.453 C 518.469 390.611, 510.647 387.348, 504.288 390.581 M 544.907 396.750 C 544.334 398.262, 540.970 406.336, 537.432 414.691 C 533.895 423.046, 531 430.298, 531 430.805 C 531 431.689, 538.525 435, 540.534 435 C 541.065 435, 543.503 430.226, 545.951 424.391 C 548.699 417.842, 551.274 413.211, 552.681 412.289 C 554.951 410.802, 560.867 410.887, 565.674 412.475 C 567.437 413.058, 568.146 412.617, 569.424 410.146 C 570.291 408.471, 571 406.457, 571 405.671 C 571 403.347, 565.465 401.666, 559.959 402.318 C 555.075 402.897, 554.996 402.864, 555.598 400.464 C 556.142 398.300, 555.674 397.789, 551.523 396.010 C 548.944 394.904, 546.635 394, 546.392 394 C 546.149 394, 545.481 395.238, 544.907 396.750 M 578.230 414.058 C 566.877 419.829, 561.895 433.429, 567.250 444.030 C 570.867 451.190, 579.970 455.847, 587.564 454.422 C 590.919 453.793, 591.068 453.881, 590.494 456.168 C 589.885 458.594, 589.958 458.657, 598.146 462.773 C 598.502 462.951, 601.150 458.463, 604.032 452.799 C 606.913 447.134, 611.038 439.204, 613.197 435.177 C 617.594 426.975, 617.414 425.952, 611.213 423.905 C 608.121 422.885, 607.439 422.943, 606.584 424.298 C 605.741 425.635, 605.254 425.306, 603.532 422.236 C 598.580 413.408, 586.921 409.640, 578.230 414.058 M 582.232 423.228 C 578.652 424.954, 575.667 430.667, 575.667 435.794 C 575.667 439.603, 576.163 440.756, 578.826 443.135 C 584.315 448.040, 589.311 448.133, 594.894 443.436 C 598.311 440.561, 600.194 435.222, 599.325 430.876 C 598.450 426.499, 592.756 421.985, 588.215 422.068 C 586.172 422.105, 583.479 422.627, 582.232 423.228 M 345 503 L 345 577.053 359.750 576.777 L 374.500 576.500 374.500 503 L 374.500 429.500 359.750 429.223 L 345 428.947 345 503 M 269.347 474.095 C 243.099 478.480, 224.053 500.722, 224.012 527.040 C 223.964 557.286, 247.760 581.405, 277.500 581.253 C 292.584 581.176, 303.710 576.746, 314.948 566.342 C 328.981 553.350, 334.936 533.570, 330.386 515.064 C 327.959 505.190, 323.411 497.360, 315.394 489.251 C 306.954 480.714, 299.053 476.556, 287.287 474.458 C 278.566 472.903, 276.704 472.866, 269.347 474.095 M 426.164 482.520 C 407.433 486.821, 392.052 502.692, 388.097 521.799 C 386.729 528.410, 386.720 540.073, 388.079 545.972 C 392.449 564.935, 408.989 580.025, 430.208 584.408 C 462.291 591.034, 488.311 574.515, 494.619 543.515 C 500.207 516.053, 483.970 491.040, 455.565 483.350 C 447.745 481.233, 433.515 480.831, 426.164 482.520 M 134.831 482.958 C 104.906 488.423, 82.972 506.032, 74.491 531.398 C 64.895 560.103, 76.341 596.389, 100.359 613.405 C 113.508 622.722, 124.350 626.130, 140.934 626.160 C 154.744 626.185, 166.089 623.522, 179 617.226 C 186.803 613.421, 189.932 611.156, 196.514 604.547 C 209.831 591.175, 215.391 577.626, 215.408 558.500 C 215.417 548.560, 213.130 533.446, 211.126 530.204 C 210.526 529.233, 203.758 530.826, 165.500 540.937 C 134.351 549.170, 137.088 547.865, 138.932 553.601 C 139.445 555.195, 140.583 559.087, 141.460 562.250 C 142.614 566.408, 143.533 568, 144.778 567.998 C 145.725 567.997, 155.725 565.523, 167 562.500 C 178.275 559.477, 187.613 557.003, 187.750 557.002 C 187.887 557.001, 187.995 559.138, 187.988 561.750 C 187.942 580.232, 174.468 596.942, 156.500 600.800 C 147.689 602.692, 145.746 602.813, 139.060 601.887 C 116.600 598.776, 100 576.835, 100 550.258 C 100 531.350, 109.987 516.419, 127.225 509.554 C 133.435 507.082, 135.891 506.654, 144 506.636 C 154.925 506.611, 161.969 508.803, 169.543 514.585 C 172.004 516.463, 174.281 518, 174.603 518 C 174.925 518, 179.200 513.852, 184.104 508.783 L 193.019 499.566 189.885 497.033 C 183.748 492.073, 174.493 486.941, 168.045 484.922 C 160.679 482.615, 142.573 481.545, 134.831 482.958 M 267.748 491.486 C 258.010 494.166, 249.363 501.472, 244.315 511.287 C 240.474 518.756, 239.868 531.999, 242.989 540.282 C 249.055 556.379, 265.227 566.542, 281.699 564.606 C 289.269 563.716, 298.355 559.534, 301.404 555.537 C 312.236 541.335, 305.707 518.305, 289.175 512.400 C 281.454 509.643, 273.885 511.543, 269.814 517.262 C 265.822 522.868, 267.697 532.817, 273.067 534.521 C 274.600 535.008, 275.962 534.453, 277.982 532.517 C 284.162 526.596, 293.764 528.864, 295.944 536.759 C 298.291 545.258, 289.748 552.427, 277.413 552.311 C 252.901 552.080, 241.801 521.653, 259.640 503.591 C 265.751 497.404, 272.919 494.602, 282.500 494.656 C 288.145 494.688, 292.119 495.323, 296 496.811 L 301.500 498.921 298.597 496.551 C 291.771 490.979, 277.881 488.698, 267.748 491.486 M 434.398 503.887 C 420.918 507.362, 411.249 521.483, 412.265 536.211 C 413.413 552.867, 425.528 564.023, 442.432 563.990 C 452.067 563.972, 462.358 556.957, 467.145 547.143 C 470.397 540.478, 470.959 526.956, 468.240 520.809 C 465.454 514.511, 460.661 509.470, 454.682 506.548 C 449.072 503.807, 439.554 502.558, 434.398 503.887 M 521.931 522.250 C 519.646 529.538, 513.098 550.324, 507.381 568.442 C 501.663 586.561, 497.326 601.708, 497.742 602.102 C 498.572 602.888, 521.016 610, 522.665 610 C 523.227 610, 525.516 604.263, 527.752 597.250 C 543.453 548.004, 541.774 552.369, 546.675 548.055 C 552.993 542.493, 559.511 541.104, 568.717 543.355 C 580.913 546.338, 587 552.720, 587 562.524 C 587 567.123, 580.537 589.727, 571.466 616.852 C 570.114 620.895, 569.225 624.554, 569.489 624.983 C 569.754 625.411, 570.990 625.992, 572.235 626.274 C 573.481 626.556, 579.155 628.217, 584.844 629.966 C 590.534 631.714, 595.345 632.988, 595.536 632.797 C 595.912 632.422, 604.332 606.481, 610.917 585.413 C 617.935 562.961, 618.425 554.811, 613.391 544.297 C 604.968 526.708, 575.659 516.967, 555 524.890 C 551.975 526.050, 549.407 526.999, 549.294 526.999 C 549.181 527, 549.744 525.143, 550.544 522.874 C 551.345 520.605, 552 518.196, 552 517.521 C 552 516.350, 531.010 509, 527.668 509 C 526.514 509, 524.962 512.586, 521.931 522.250 M 962 523.555 C 954.173 525.236, 941.003 531.570, 935.500 536.300 C 930.158 540.892, 924.425 549.400, 921.813 556.613 C 920.236 560.970, 919.661 564.969, 919.602 572 C 919.469 587.699, 924.201 600.754, 933.778 611.116 C 944.058 622.240, 954.871 627, 969.859 627 C 986.313 627, 1000.882 621.142, 1012.069 610.027 C 1018.317 603.818, 1025 592.989, 1025 589.071 C 1025 587.864, 1022.565 586.872, 1015.250 585.099 C 1009.888 583.799, 1005.050 582.565, 1004.499 582.357 C 1003.949 582.148, 1002.472 584.215, 1001.218 586.950 C 996.935 596.284, 990.941 601.455, 980.972 604.416 C 974.114 606.452, 970.664 606.419, 964.500 604.255 C 959.273 602.420, 949.526 593.923, 950.229 591.813 C 950.437 591.189, 966.305 585.341, 985.493 578.817 C 1004.680 572.293, 1020.581 566.752, 1020.829 566.505 C 1021.884 565.450, 1015.429 549.962, 1011.394 543.868 C 1003.757 532.333, 993.705 525.341, 981.520 523.088 C 974.081 521.713, 970.136 521.808, 962 523.555 M 853.500 536.374 C 840.782 538.862, 841.815 536.573, 845.166 554.827 C 846.344 561.243, 846.867 566.515, 846.373 566.987 C 845.893 567.445, 841.726 568.522, 837.112 569.381 C 832.499 570.239, 828.510 571.157, 828.247 571.420 C 827.678 571.989, 831.080 591.207, 831.919 592.161 C 832.239 592.524, 835.650 592.203, 839.500 591.447 C 850.825 589.225, 851.643 589.372, 852.296 593.750 C 854.283 607.082, 858.397 628.509, 860.034 634.055 C 866.194 654.928, 879.941 661.180, 909.045 656.347 C 920.622 654.424, 920.047 655.549, 917.145 640.500 C 915.630 632.641, 915.162 631.532, 913.455 631.749 C 912.380 631.886, 907.900 632.276, 903.500 632.615 C 896.242 633.174, 895.243 633.027, 892.730 631.027 C 888.817 627.914, 887.256 624.390, 885.561 614.840 C 884.747 610.253, 883.180 601.570, 882.079 595.544 C 880.978 589.519, 880.237 584.429, 880.433 584.234 C 880.628 584.039, 886.123 582.959, 892.644 581.835 C 899.165 580.711, 904.831 579.484, 905.236 579.109 C 905.973 578.427, 902.666 559.332, 901.632 558.298 C 901.330 557.997, 895.596 558.735, 888.890 559.938 C 876.201 562.216, 875.041 562.054, 875.024 558 C 875.021 557.175, 874.065 551.438, 872.901 545.250 L 870.783 534 867.642 534.111 C 865.914 534.172, 859.550 535.191, 853.500 536.374 M 961.385 545.565 C 955.899 547.580, 949.415 553.266, 946.833 558.328 C 944.226 563.437, 942.977 575.387, 945.105 574.851 C 945.872 574.658, 956.959 570.976, 969.743 566.669 L 992.985 558.839 990.072 554.605 C 985.439 547.871, 979.746 544.630, 972 544.317 C 968.049 544.157, 963.887 544.647, 961.385 545.565 M 666 555.567 C 656.217 557.685, 647.374 562.478, 640.379 569.453 C 630.312 579.491, 626 590.665, 626 606.713 C 626 629.359, 637.942 646.593, 659.500 655.057 C 664.824 657.148, 667.134 657.413, 680 657.413 C 692.866 657.413, 695.176 657.148, 700.500 655.057 C 722.242 646.521, 734.020 629.280, 733.988 606.040 C 733.967 590.915, 729.496 579.563, 719.612 569.534 C 706.771 556.505, 686.298 551.171, 666 555.567 M 670.500 577.279 C 658.140 582.329, 652.275 590.331, 651.279 603.499 C 649.854 622.335, 662.203 636.342, 680.138 636.233 C 691.611 636.163, 700.424 630.759, 705.797 620.500 C 708.046 616.206, 708.420 614.230, 708.450 606.500 C 708.502 592.596, 704.004 584.544, 693 578.843 C 687.740 576.118, 675.434 575.263, 670.500 577.279 M 751.667 576.667 C 750.703 577.631, 750.875 672.254, 751.843 673.780 C 752.452 674.740, 756.011 674.990, 766.078 674.780 L 779.500 674.500 780 644.834 L 780.500 615.167 783.534 610.834 C 785.402 608.164, 788.667 605.360, 792.034 603.532 C 796.862 600.911, 798.697 600.518, 807.750 600.169 L 818 599.773 818 587.740 L 818 575.706 808.517 576.272 C 797.293 576.942, 790.600 579.562, 783.575 586.038 L 779 590.255 779 583.127 L 779 576 765.667 576 C 758.333 576, 752.033 576.300, 751.667 576.667 M 221.605 707.829 C 220.680 709.326, 231.309 734.438, 233 734.750 C 234.862 735.094, 245.796 709.396, 244.388 707.988 C 242.790 706.390, 241.518 708.296, 237.536 718.250 C 235.390 723.612, 233.379 727.991, 233.067 727.979 C 232.755 727.968, 230.700 723.387, 228.500 717.800 C 224.732 708.230, 222.950 705.653, 221.605 707.829 M 249 721 L 249 735 256.500 735 C 262.500 735, 264 734.700, 264 733.500 C 264 732.352, 262.735 732, 258.613 732 C 253.499 732, 253.207 731.861, 252.836 729.250 C 252.063 723.802, 252.735 723, 258.073 723 C 261.786 723, 263 722.630, 263 721.500 C 263 720.370, 261.787 720, 258.083 720 C 252.635 720, 252.294 719.606, 252.834 713.938 L 253.210 710 258.605 710 C 262.734 710, 264 709.648, 264 708.500 C 264 707.300, 262.500 707, 256.500 707 L 249 707 249 721 M 269.667 707.667 C 269.300 708.033, 269 714.333, 269 721.667 C 269 732.776, 269.247 735, 270.481 735 C 272.471 735, 273.066 731.921, 272.753 723.250 C 272.609 719.263, 272.779 716, 273.131 716 C 273.482 716, 276.761 720.032, 280.416 724.960 C 287.806 734.923, 288.834 735.871, 290.096 733.878 C 291.585 731.528, 291.208 709.418, 289.658 708.131 C 287.426 706.279, 287 707.899, 287 718.243 L 287 728.153 283.719 723.827 C 281.914 721.447, 278.474 716.688, 276.074 713.250 C 271.754 707.062, 270.961 706.372, 269.667 707.667 M 294.694 707.639 C 293.418 708.915, 295.194 710, 298.559 710 L 302 710 302.115 720.250 C 302.266 733.678, 302.225 733.414, 304.250 733.807 C 305.839 734.115, 306 733.034, 306 722.073 L 306 710 310 710 C 312.889 710, 314 709.583, 314 708.500 C 314 707.274, 312.296 707, 304.667 707 C 299.533 707, 295.046 707.288, 294.694 707.639 M 323.703 707.697 C 322.868 709.092, 313 733.664, 313 734.347 C 313 734.706, 313.682 735, 314.516 735 C 315.350 735, 316.783 733.425, 317.701 731.500 C 319.326 728.094, 319.526 728, 325.172 728 C 330.857 728, 331.003 728.070, 332.436 731.500 C 333.824 734.822, 337.035 736.416, 336.969 733.750 C 336.953 733.063, 334.590 726.911, 331.719 720.080 C 326.907 708.629, 324.952 705.609, 323.703 707.697 M 344.500 708.155 C 341.462 709.816, 340 712.090, 340 715.152 C 340 718.843, 343.166 721.602, 349.167 723.139 C 354.810 724.586, 356.433 726.060, 355.526 728.917 C 354.726 731.437, 348.861 732.713, 345.376 731.126 C 342.079 729.623, 341 729.707, 341 731.465 C 341 735.481, 352.318 736.428, 356.363 732.750 C 361.904 727.713, 359.687 722.166, 351.289 720.051 C 345.445 718.580, 344 717.450, 344 714.353 C 344 711.036, 348.196 709.458, 353.116 710.923 C 357.739 712.300, 358 712.282, 358 710.598 C 358 707.720, 348.454 705.992, 344.500 708.155 M 378.688 707.646 C 378.309 708.024, 378 714.333, 378 721.667 C 378 732.397, 378.272 735, 379.393 735 C 381.445 735, 381.854 733.126, 381.763 724.122 C 381.718 719.657, 381.877 715.890, 382.117 715.752 C 382.357 715.613, 384.281 717.413, 386.393 719.750 C 388.505 722.087, 390.518 723.983, 390.866 723.962 C 391.215 723.941, 393.073 721.916, 394.995 719.462 C 396.918 717.008, 398.727 715, 399.015 715 C 399.303 715, 399.369 718.374, 399.160 722.497 C 398.721 731.202, 399.437 735, 401.519 735 C 402.754 735, 403 732.763, 403 721.559 C 403 707.372, 402.284 705.118, 399.063 709.166 C 398.042 710.450, 396.036 712.850, 394.605 714.500 C 393.173 716.150, 392.002 717.837, 392.001 718.250 C 391.998 720.241, 389.687 718.479, 385.444 713.250 C 380.494 707.150, 379.778 706.555, 378.688 707.646 M 417.020 709.171 C 411.846 721.122, 407.186 733.492, 407.604 734.168 C 408.743 736.012, 410.668 734.806, 411.864 731.500 C 413.116 728.037, 413.191 728, 419.051 728 C 424.874 728, 424.998 728.059, 426.436 731.500 C 427.824 734.822, 431.035 736.416, 430.969 733.750 C 430.909 731.278, 420.472 707.652, 419.264 707.252 C 418.585 707.027, 417.575 707.891, 417.020 709.171 M 429.493 708.011 C 429.150 708.567, 430.574 711.829, 432.658 715.260 C 435.544 720.010, 436.603 723, 437.099 727.791 C 437.457 731.252, 438.002 734.335, 438.309 734.642 C 439.753 736.086, 441 733.410, 441 728.866 C 441 724.780, 441.762 722.566, 445.110 716.932 C 447.496 712.916, 448.967 709.356, 448.617 708.444 C 447.747 706.178, 446.331 707.444, 442.867 713.583 C 441.185 716.562, 439.385 718.738, 438.867 718.418 C 438.348 718.097, 436.548 715.397, 434.867 712.417 C 431.822 707.023, 430.682 706.088, 429.493 708.011 M 459.457 708.863 C 451.061 713.983, 450.086 725.002, 457.432 731.750 C 460.460 734.531, 461.708 735, 466.081 735 C 474.459 735, 480.002 729.337, 479.998 720.782 C 479.994 710.400, 468.178 703.545, 459.457 708.863 M 485 721 C 485 732.300, 485.269 735, 486.393 735 C 488.192 735, 489 732.804, 489 727.918 C 489 722.322, 491.217 722.851, 495.631 729.500 C 499.098 734.720, 502 736.607, 502 733.640 C 502 732.891, 500.875 730.621, 499.500 728.595 C 498.125 726.569, 497 724.727, 497 724.501 C 497 724.275, 498.125 722.966, 499.500 721.591 C 502.986 718.105, 502.921 712.758, 499.354 709.452 C 497.172 707.430, 495.682 707, 490.854 707 L 485 707 485 721 M 517.646 709.452 C 514.402 712.458, 514.095 717.244, 516.986 719.720 C 518.078 720.655, 521.559 722.338, 524.722 723.460 C 530.904 725.653, 532.218 727.639, 529.369 730.488 C 527.629 732.228, 521.974 732.235, 517.750 730.503 C 516.521 730, 516 730.254, 516 731.358 C 516 735.469, 527.251 736.488, 531.363 732.750 C 536.904 727.713, 534.687 722.166, 526.289 720.051 C 520.445 718.580, 519 717.450, 519 714.353 C 519 712.653, 519.803 711.645, 521.747 710.906 C 524.384 709.904, 525.804 710.003, 530.750 711.536 C 534.393 712.665, 533.534 709.382, 529.851 708.098 C 524.688 706.298, 520.555 706.757, 517.646 709.452 M 537.667 707.667 C 536.121 709.212, 537.247 710, 541 710 L 545 710 545.125 720.500 C 545.285 733.944, 545.201 733.415, 547.250 733.810 C 548.839 734.116, 549 733.033, 549 722.073 L 549 710 553 710 C 555.889 710, 557 709.583, 557 708.500 C 557 707.274, 555.296 707, 547.667 707 C 542.533 707, 538.033 707.300, 537.667 707.667 M 566.001 709.171 C 562.062 718.091, 556.271 733.630, 556.654 734.250 C 557.746 736.017, 559.689 734.748, 560.864 731.500 C 562.118 728.031, 562.182 728, 568.116 728 C 574.012 728, 574.124 728.053, 575.564 731.500 C 576.956 734.830, 580.034 736.402, 579.969 733.750 C 579.909 731.278, 569.472 707.652, 568.264 707.252 C 567.585 707.027, 566.566 707.891, 566.001 709.171 M 586.973 708.692 C 583.671 710.951, 583.033 712.002, 583.015 715.211 C 582.997 718.499, 586.165 721.663, 590.385 722.571 C 594.998 723.563, 599 725.854, 599 727.503 C 599 731.302, 591.877 732.901, 585.750 730.478 C 584.438 729.959, 584 730.284, 584 731.776 C 584 735.700, 595.300 736.367, 599.569 732.694 C 604.905 728.104, 602.353 722.082, 594.202 720.029 C 588.445 718.580, 587 717.440, 587 714.353 C 587 711.036, 591.196 709.458, 596.116 710.923 C 600.739 712.300, 601 712.282, 601 710.598 C 601 709.009, 596.016 707, 592.073 707 C 590.628 707, 588.332 707.761, 586.973 708.692 M 657.688 707.646 C 657.309 708.024, 657 714.333, 657 721.667 C 657 732.397, 657.272 735, 658.393 735 C 660.523 735, 661.134 732.267, 660.909 723.750 C 660.796 719.468, 660.947 715.720, 661.244 715.423 C 661.542 715.125, 663.071 716.694, 664.643 718.909 C 668.952 724.984, 669.485 724.989, 674.412 719 C 675.996 717.075, 677.513 715.612, 677.783 715.749 C 678.054 715.887, 678.326 720.156, 678.387 725.236 C 678.484 733.185, 678.744 734.520, 680.250 734.810 C 681.847 735.117, 682 733.965, 682 721.632 C 682 712.941, 681.610 707.877, 680.908 707.443 C 680.305 707.070, 678.401 708.489, 676.658 710.609 C 674.921 712.722, 672.566 715.540, 671.425 716.872 L 669.350 719.295 664.564 713.397 C 659.494 707.149, 658.781 706.552, 657.688 707.646 M 697.598 707.736 C 697.269 708.064, 697 714.333, 697 721.667 C 697 732.776, 697.247 735, 698.481 735 C 700.543 735, 701.292 731.168, 700.829 722.986 C 700.612 719.144, 700.761 716, 701.160 716 C 701.558 716, 704.948 720.260, 708.692 725.466 C 715.467 734.887, 717.259 736.372, 718.367 733.485 C 719.302 731.049, 718.966 712.040, 717.941 709.344 C 716.154 704.643, 715 708.116, 715 718.196 L 715 728.273 710.250 721.827 C 707.638 718.281, 704.375 713.727, 703 711.706 C 700.458 707.969, 698.674 706.659, 697.598 707.736 M 731.457 708.863 C 723.061 713.983, 722.086 725.002, 729.432 731.750 C 732.460 734.531, 733.708 735, 738.081 735 C 746.459 735, 752.002 729.337, 751.998 720.782 C 751.994 710.400, 740.178 703.545, 731.457 708.863 M 757 721 C 757 732.300, 757.269 735, 758.393 735 C 760.192 735, 761 732.804, 761 727.918 C 761 722.322, 763.217 722.851, 767.631 729.500 C 771.098 734.720, 774 736.607, 774 733.640 C 774 732.891, 772.875 730.621, 771.500 728.595 C 770.125 726.569, 769 724.727, 769 724.501 C 769 724.275, 770.125 722.966, 771.500 721.591 C 774.986 718.105, 774.921 712.758, 771.354 709.452 C 769.172 707.430, 767.682 707, 762.854 707 L 757 707 757 721 M 789.646 709.452 C 786.402 712.458, 786.095 717.244, 788.986 719.720 C 790.078 720.655, 793.559 722.338, 796.722 723.460 C 802.904 725.653, 804.218 727.639, 801.369 730.488 C 799.629 732.228, 793.974 732.235, 789.750 730.503 C 788.521 730, 788 730.254, 788 731.358 C 788 735.469, 799.251 736.488, 803.363 732.750 C 808.904 727.713, 806.687 722.166, 798.289 720.051 C 792.445 718.580, 791 717.450, 791 714.353 C 791 712.653, 791.803 711.645, 793.747 710.906 C 796.384 709.904, 797.804 710.003, 802.750 711.536 C 806.393 712.665, 805.534 709.382, 801.851 708.098 C 796.688 706.298, 792.555 706.757, 789.646 709.452 M 809.667 707.667 C 808.121 709.212, 809.247 710, 813 710 L 817 710 817.125 720.500 C 817.285 733.944, 817.201 733.415, 819.250 733.810 C 820.839 734.116, 821 733.033, 821 722.073 L 821 710 825 710 C 827.889 710, 829 709.583, 829 708.500 C 829 707.274, 827.296 707, 819.667 707 C 814.533 707, 810.033 707.300, 809.667 707.667 M 838.001 709.171 C 834.062 718.091, 828.271 733.630, 828.654 734.250 C 829.746 736.017, 831.689 734.748, 832.864 731.500 C 834.118 728.031, 834.182 728, 840.116 728 C 846.012 728, 846.124 728.053, 847.564 731.500 C 848.956 734.830, 852.034 736.402, 851.969 733.750 C 851.909 731.278, 841.472 707.652, 840.264 707.252 C 839.585 707.027, 838.566 707.891, 838.001 709.171 M 858.973 708.692 C 855.671 710.951, 855.033 712.002, 855.015 715.211 C 854.997 718.499, 858.165 721.663, 862.385 722.571 C 866.998 723.563, 871 725.854, 871 727.503 C 871 731.302, 863.877 732.901, 857.750 730.478 C 856.438 729.959, 856 730.284, 856 731.776 C 856 735.700, 867.300 736.367, 871.569 732.694 C 876.905 728.104, 874.353 722.082, 866.202 720.029 C 860.445 718.580, 859 717.440, 859 714.353 C 859 711.036, 863.196 709.458, 868.116 710.923 C 872.739 712.300, 873 712.282, 873 710.598 C 873 709.009, 868.016 707, 864.073 707 C 862.628 707, 860.332 707.761, 858.973 708.692 M 506 721.427 C 506 732.362, 506.271 735, 507.393 735 C 509.550 735, 509.831 733.195, 509.659 720.420 C 509.519 709.967, 509.289 708.489, 507.750 708.192 C 506.153 707.883, 506 709.037, 506 721.427 M 688 721.427 C 688 732.637, 688.253 735, 689.455 735 C 691.484 735, 692.157 730.272, 691.802 718.512 C 691.543 709.935, 691.253 708.476, 689.750 708.188 C 688.153 707.883, 688 709.039, 688 721.427 M 778 721.427 C 778 732.362, 778.271 735, 779.393 735 C 781.550 735, 781.831 733.195, 781.659 720.420 C 781.519 709.967, 781.289 708.489, 779.750 708.192 C 778.153 707.883, 778 709.037, 778 721.427 M 461.225 712.004 C 454.952 715.829, 454.411 724.229, 460.107 729.363 C 462.838 731.824, 463.860 732.148, 467.390 731.674 C 473.115 730.907, 476.010 727.369, 475.967 721.194 C 475.930 715.948, 473.849 712.653, 469.536 711.014 C 465.855 709.614, 464.973 709.719, 461.225 712.004 M 488.940 710.250 C 488.907 710.388, 488.794 712.863, 488.690 715.751 L 488.500 721.001 492.050 721.001 C 494.002 721, 496.140 720.460, 496.800 719.800 C 498.587 718.013, 498.253 712.913, 496.250 711.392 C 494.798 710.290, 489.143 709.406, 488.940 710.250 M 733.225 712.004 C 726.952 715.829, 726.411 724.229, 732.107 729.363 C 734.838 731.824, 735.860 732.148, 739.390 731.674 C 745.115 730.907, 748.010 727.369, 747.967 721.194 C 747.930 715.948, 745.849 712.653, 741.536 711.014 C 737.855 709.614, 736.973 709.719, 733.225 712.004 M 760.940 710.250 C 760.907 710.388, 760.794 712.863, 760.690 715.751 L 760.500 721.001 764.050 721.001 C 766.003 721, 768.140 720.460, 768.800 719.800 C 770.587 718.013, 770.253 712.913, 768.250 711.392 C 766.798 710.290, 761.143 709.406, 760.940 710.250 M 323.096 718.333 C 321.943 720.991, 321 723.579, 321 724.083 C 321 724.587, 322.800 725, 325 725 C 329.569 725, 329.712 724.507, 327.040 718 L 325.193 713.500 323.096 718.333 M 417.096 718.333 C 415.943 720.991, 415 723.579, 415 724.083 C 415 724.587, 416.800 725, 419 725 C 423.569 725, 423.712 724.507, 421.040 718 L 419.193 713.500 417.096 718.333 M 566.096 718.333 C 564.943 720.991, 564 723.579, 564 724.083 C 564 724.587, 565.800 725, 568 725 C 572.569 725, 572.712 724.507, 570.040 718 L 568.193 713.500 566.096 718.333 M 838.096 718.333 C 836.943 720.991, 836 723.579, 836 724.083 C 836 724.587, 837.800 725, 840 725 C 844.569 725, 844.712 724.507, 842.040 718 L 840.193 713.500 838.096 718.333 M 619 716.103 C 619 716.709, 620.790 721.025, 622.978 725.695 C 626.747 733.737, 626.879 734.334, 625.478 737.042 C 623.646 740.585, 623.582 743, 625.321 743 C 626.564 743, 639 718.578, 639 716.136 C 639 715.511, 638.299 715, 637.443 715 C 636.476 715, 634.714 717.654, 632.794 722 C 631.094 725.850, 629.392 729, 629.013 729 C 628.635 729, 626.891 725.850, 625.139 722 C 623.288 717.933, 621.334 715, 620.476 715 C 619.664 715, 619 715.496, 619 716.103 M 72.250 833.706 C 71.013 833.944, 70 834.336, 70 834.577 C 70 835.494, 85.001 858.934, 91.350 867.938 C 98.280 877.767, 99.820 878.871, 108.792 880.443 C 112.730 881.133, 124.487 885.646, 127 887.433 C 127.825 888.020, 129.512 889.063, 130.750 889.750 C 131.988 890.438, 134.012 891.563, 135.250 892.250 C 142.015 896.008, 154.155 907.455, 161.501 917.001 C 169.750 927.721, 178.253 947.902, 179.713 960.225 C 180.267 964.906, 180.385 965.036, 192.386 974.280 C 205.361 984.273, 221.664 996, 222.583 996 C 222.891 996, 223.044 994.987, 222.923 993.750 C 222.802 992.513, 223.040 990.720, 223.452 989.766 C 224.278 987.855, 223.618 964.555, 222.580 959 C 222.220 957.075, 221.748 953.925, 221.530 952 C 220.174 940.012, 211.730 917.159, 203.848 904.148 C 201.732 900.654, 200 897.429, 200 896.981 C 200 896.533, 199.636 896.017, 199.192 895.833 C 198.747 895.650, 196.983 893.446, 195.272 890.937 C 187.769 879.931, 163.565 857.984, 160.730 859.614 C 160.053 860.003, 159.831 859.955, 160.237 859.507 C 161.451 858.166, 154.854 853.921, 152.550 854.562 C 151.023 854.986, 150.858 854.884, 151.901 854.163 C 152.987 853.413, 152.313 852.676, 148.901 850.886 C 130.583 841.276, 112.729 835.942, 92.500 834.038 C 81.408 832.993, 76.378 832.911, 72.250 833.706 M 193 892 C 193 892.550, 193.477 893, 194.059 893 C 194.641 893, 194.840 892.550, 194.500 892 C 194.160 891.450, 193.684 891, 193.441 891 C 193.198 891, 193 891.450, 193 892" stroke="none" fill="black" fill-rule="evenodd"/>
</svg>