<svg xmlns="http://www.w3.org/2000/svg" width="500" height="500" viewBox="0 0 500 500" version="1.1">
	<path d="M 173.046 127.445 C 172.386 128.240, 171.994 129.927, 172.173 131.195 C 172.631 134.426, 178.362 135.060, 179.969 132.058 C 182.319 127.667, 176.229 123.609, 173.046 127.445 M 173.460 148.250 C 173.198 148.938, 173.099 183.250, 173.241 224.500 L 173.500 299.500 206.500 300 C 230.958 300.371, 240.089 300.836, 241.776 301.799 C 245.807 304.100, 261.258 306.956, 269.792 306.978 C 279.976 307.005, 291.207 304.783, 300.603 300.884 C 311.587 296.325, 311.637 296.260, 307.995 291.308 C 305.969 288.552, 303.784 283.123, 301.561 275.318 C 299.709 268.818, 296.993 259.450, 295.525 254.500 C 292.603 244.650, 285.712 221.041, 280.493 203 C 278.664 196.675, 275.955 187.450, 274.474 182.500 C 272.994 177.550, 271.344 171.925, 270.810 170 C 270.275 168.075, 269.199 164.572, 268.419 162.215 C 267.638 159.858, 267 157.654, 267 157.317 C 267 156.979, 270.784 156.970, 275.410 157.296 C 283.357 157.857, 297.836 161.789, 300.697 164.164 C 301.463 164.800, 302.035 168.638, 302.214 174.342 L 302.500 183.500 306.750 183.807 L 311 184.115 311 171.191 L 311 158.268 304.090 155.178 C 287.690 147.845, 267.963 145.898, 251.665 150.005 C 202.329 162.437, 176.735 217.243, 199.169 262.421 C 201.333 266.777, 204.516 272.177, 206.243 274.421 C 210.786 280.321, 220.250 290.387, 222 291.180 C 222.825 291.554, 214.162 291.891, 202.750 291.930 L 182 292 182 219.500 L 182 147 177.969 147 C 175.665 147, 173.733 147.536, 173.460 148.250 M 248.854 160.388 C 225.168 168.749, 207.380 188.614, 202.331 212.343 C 200.227 222.232, 201.013 241.295, 203.854 249.275 C 206.877 257.767, 211.410 265.800, 217.257 273.026 L 222.434 279.424 223.804 274.962 C 224.558 272.508, 225.989 267.575, 226.985 264 C 227.980 260.425, 230.008 253.450, 231.491 248.500 C 232.974 243.550, 236.584 231.175, 239.514 221 C 242.444 210.825, 246.054 198.450, 247.536 193.500 C 249.018 188.550, 250.577 183.150, 251 181.500 C 251.423 179.850, 252.946 174.512, 254.384 169.638 C 257.118 160.378, 257.502 157.986, 256.250 158.021 C 255.838 158.033, 252.509 159.098, 248.854 160.388 M 259.988 176.119 C 258.805 180.178, 257.455 184.625, 256.987 186 C 256.519 187.375, 253.814 196.600, 250.975 206.500 C 248.137 216.400, 244.957 227.360, 243.907 230.855 C 240.596 241.887, 238.961 241, 262.609 241 L 283.219 241 282.731 237.750 C 282.462 235.963, 281.357 231.575, 280.275 228 C 279.193 224.425, 275.027 210.025, 271.017 196 C 267.008 181.975, 263.369 170.103, 262.932 169.619 C 262.495 169.134, 261.170 172.059, 259.988 176.119 M 236.985 255.232 C 229.173 280.448, 228.610 282.825, 230.036 284.544 C 232.156 287.098, 243.414 292.777, 251 295.118 C 262.174 298.567, 279.258 298.332, 290.831 294.570 C 297.750 292.321, 299.041 291.577, 298.452 290.181 C 298.061 289.256, 295.154 279.500, 291.992 268.500 L 286.241 248.500 262.739 248.232 L 239.237 247.964 236.985 255.232 M 189.561 375.527 C 189.181 377.550, 189.125 379.458, 189.436 379.769 C 189.746 380.079, 190 379.258, 190 377.944 L 190 375.555 191.654 377.916 C 192.966 379.790, 193.068 380.662, 192.145 382.139 C 191.389 383.350, 191.346 384, 192.024 384 C 192.596 384, 193.502 385.012, 194.036 386.250 C 194.766 387.940, 194.854 387.380, 194.389 384 C 194.048 381.525, 193.497 379.050, 193.164 378.500 C 192.830 377.950, 192.419 376.610, 192.250 375.521 C 191.677 371.831, 190.254 371.834, 189.561 375.527 M 202.607 378.582 C 202.273 379.452, 202 381.440, 202 383 C 202 387.504, 202.979 389.007, 205.857 388.921 L 208.500 388.842 205.696 387.820 C 203.232 386.921, 202.928 386.357, 203.196 383.172 C 203.422 380.478, 204.143 379.223, 206 378.288 L 208.500 377.029 205.857 377.015 C 204.359 377.006, 202.951 377.685, 202.607 378.582 M 215.406 378.386 C 215.113 379.148, 215.015 381.735, 215.187 384.136 C 215.460 387.937, 215.822 388.541, 218 388.819 L 220.500 389.137 218.250 387.512 C 214.591 384.869, 215.372 378.763, 219.500 377.732 C 221.018 377.352, 220.830 377.204, 218.719 377.116 C 217.180 377.052, 215.700 377.619, 215.406 378.386 M 228.628 378.528 C 228.282 379.427, 228 381.342, 228 382.782 C 228 384.818, 228.267 385.133, 229.200 384.200 C 229.860 383.540, 231.465 383, 232.766 383 C 234.758 383, 235.083 382.564, 234.816 380.250 C 234.572 378.128, 233.902 377.431, 231.878 377.196 C 230.169 376.998, 229.037 377.462, 228.628 378.528 M 242 378.927 C 242 379.988, 243.176 381.780, 244.613 382.911 C 247.601 385.260, 247.254 387.607, 243.811 388.331 C 242.164 388.678, 242.362 388.772, 244.500 388.659 C 248.543 388.445, 249.105 385.015, 245.554 382.221 C 242.259 379.629, 242.319 378.236, 245.750 377.716 C 248.310 377.329, 248.275 377.289, 245.250 377.150 C 242.656 377.030, 242 377.389, 242 378.927 M 255.607 378.582 C 254.589 381.235, 254.929 386.529, 256.200 387.800 C 259.212 390.812, 263 387.942, 263 382.648 C 263 378.478, 261.953 377, 259 377 C 257.382 377, 255.960 377.663, 255.607 378.582 M 270.189 383.250 L 270.378 389.500 270.737 383.814 C 271.010 379.497, 271.506 378.020, 272.798 377.680 C 274.021 377.358, 273.866 377.199, 272.250 377.116 C 270.125 377.006, 270.011 377.349, 270.189 383.250 M 290.150 380 C 288.639 384.335, 290.416 389, 293.579 389 C 295.366 389, 296.113 388.312, 296.564 386.250 C 296.896 384.738, 297.295 383.050, 297.452 382.500 C 298.138 380.094, 295.988 377, 293.630 377 C 291.824 377, 290.926 377.775, 290.150 380 M 304.324 378.597 C 303.928 379.631, 304.704 380.986, 306.524 382.437 C 309.736 384.998, 309.425 387.571, 305.811 388.331 C 304.082 388.695, 304.230 388.777, 306.399 388.659 C 307.994 388.571, 309.794 387.689, 310.399 386.699 C 311.319 385.194, 310.923 384.422, 308 382.016 C 304.410 379.061, 304.507 378.779, 309.500 377.675 C 310.710 377.407, 310.204 377.186, 308.219 377.116 C 306.057 377.040, 304.728 377.545, 304.324 378.597 M 229.607 379.582 C 228.712 381.915, 228.778 382, 231.500 382 C 233.333 382, 234 381.467, 234 380 C 234 377.568, 230.507 377.235, 229.607 379.582 M 257.200 379.200 C 255.524 380.876, 255.702 385.508, 257.500 387 C 260.538 389.521, 263.235 384.381, 261.393 379.582 C 260.671 377.701, 258.864 377.536, 257.200 379.200 M 281.923 379.250 C 281.536 385.536, 281.603 387.255, 282.250 387.654 C 282.662 387.909, 283 385.841, 283 383.059 C 283 380.277, 282.775 378, 282.500 378 C 282.225 378, 281.965 378.563, 281.923 379.250 M 291.701 378.632 C 290.606 379.727, 290.879 386.807, 292.044 387.527 C 294.052 388.768, 296.111 385.791, 295.801 382.094 C 295.514 378.681, 293.420 376.913, 291.701 378.632 M 186.986 382.750 C 186.979 383.712, 186.712 385.625, 186.394 387 C 185.851 389.345, 185.914 389.322, 187.408 386.636 C 189.220 383.376, 189.470 381, 188 381 C 187.450 381, 186.994 381.788, 186.986 382.750 M 228.638 387.500 C 229.001 388.444, 230.379 388.944, 232.357 388.850 C 235.380 388.706, 235.395 388.684, 232.750 388.284 C 231.238 388.055, 230 387.447, 230 386.934 C 230 386.420, 229.564 386, 229.031 386 C 228.499 386, 228.322 386.675, 228.638 387.500" stroke="none" fill="black" fill-rule="evenodd"/>
</svg>