<svg xmlns="http://www.w3.org/2000/svg" width="410" height="410" viewBox="0 0 410 410" version="1.1">
	<path d="M 317.073 106.635 C 314.480 109.931, 314.464 111.047, 317 111.710 C 319.674 112.409, 319.542 115.600, 316.750 117.760 C 310.961 122.237, 303.139 131.253, 299.991 137.078 C 292.792 150.398, 285.901 168.192, 280.535 187.324 C 279.321 191.650, 277.959 193.965, 275.239 196.324 C 263.321 206.660, 251.646 220.871, 246.553 231.241 C 238.891 246.841, 239.957 259.487, 249.652 267.999 C 259.226 276.406, 275.464 280.247, 292.550 278.147 C 333.270 273.143, 365.552 244.300, 367.705 211 C 368.732 195.122, 364.226 182.993, 353.797 173.555 C 350.458 170.533, 345.651 167.298, 343.113 166.365 C 336.551 163.953, 336.287 163.404, 340.631 161.194 C 349.576 156.643, 357.974 154.829, 368.500 155.173 C 379.493 155.532, 382.870 154.055, 374.206 152.676 C 366.974 151.525, 351.993 153.997, 338.161 158.624 C 329.644 161.473, 326.443 162.118, 323.530 161.572 L 319.801 160.872 325.734 155.503 C 341.922 140.853, 341.808 117, 325.550 117 C 321.527 117, 321.405 116.668, 323.544 111.549 C 324.393 109.516, 324.813 106.986, 324.477 105.927 C 323.581 103.106, 319.545 103.492, 317.073 106.635 M 320.275 123.250 C 319.304 124.502, 303.212 169.603, 302.294 173.648 C 301.857 175.570, 302.842 175.262, 311.650 170.720 L 321.495 165.644 318.247 164.319 C 313.751 162.484, 314.139 160.242, 319.798 155.369 C 328.345 148.009, 333.920 134.049, 331.065 127.156 C 329.262 122.803, 322.517 120.361, 320.275 123.250 M 310.008 130.707 C 304.676 136.738, 293.483 159.517, 288.045 175.402 C 285.805 181.949, 284.201 187.535, 284.482 187.816 C 284.763 188.096, 287.553 186.338, 290.682 183.908 C 295.180 180.416, 296.737 178.445, 298.119 174.495 C 299.081 171.748, 303.254 159.845, 307.394 148.043 C 311.533 136.242, 314.769 126.435, 314.583 126.250 C 314.398 126.065, 312.339 128.070, 310.008 130.707 M 211.482 132.590 C 208.190 136.183, 199.755 152.093, 196.684 160.500 C 195.881 162.700, 193.313 169.776, 190.979 176.223 L 186.734 187.947 183.963 185.973 C 178.331 181.963, 171.159 184.186, 164.998 191.853 C 162.309 195.199, 160.438 196.303, 153.862 198.424 C 145.314 201.181, 141.146 203.042, 133.710 207.418 L 128.921 210.237 131.589 204.368 C 145.377 174.040, 148 166.672, 148 158.265 C 148 152.418, 146.424 150.563, 141.574 150.701 C 138.203 150.796, 129.886 154.323, 124.255 158.045 C 121.748 159.702, 120.904 159.884, 120.545 158.845 C 115.869 145.321, 112.606 140.657, 105.512 137.354 C 96.410 133.115, 86.672 134.809, 72.819 143.038 C 65.206 147.561, 49.063 162.457, 42.531 170.986 C 24.673 194.303, 18.775 219.898, 29.782 226.310 C 32.662 227.987, 33.642 228.080, 37.782 227.067 C 44.547 225.412, 48.451 223.460, 57.500 217.208 C 64.171 212.599, 74.043 205.025, 76 203.014 C 76.275 202.731, 78.748 200.700, 81.496 198.500 C 84.243 196.300, 88.771 192.475, 91.557 190 C 94.343 187.525, 100.120 182.575, 104.394 179 C 108.668 175.425, 113.097 171.713, 114.236 170.750 C 115.374 169.787, 116.687 169, 117.153 169 C 117.619 169, 118 171.958, 118 175.573 C 118 181.294, 118.227 182.103, 119.750 181.812 C 121.221 181.531, 121.547 180.147, 121.792 173.115 C 122.127 163.560, 122.458 163.083, 132.232 158.100 C 139.235 154.530, 142 154.894, 142 159.387 C 142 163.843, 138.797 174.859, 133.643 188.125 C 125.959 207.906, 122.669 214.196, 118.278 217.500 C 106.338 226.486, 86.023 247.218, 71.507 265.233 C 58.784 281.022, 44.910 303.303, 41.442 313.520 C 40.005 317.751, 40.008 318.364, 41.479 320.608 C 43.082 323.055, 45 323.045, 45 320.589 C 45 318.413, 55.612 297.530, 60.648 289.795 C 66.307 281.104, 78.348 264.854, 85.319 256.500 C 92.261 248.181, 114.972 225.639, 115.689 226.356 C 116.863 227.530, 99.880 257.872, 85.665 280 C 70.085 304.251, 55.275 321.764, 48.440 324.020 C 45.540 324.977, 45.121 325.441, 46.096 326.615 C 50.678 332.137, 71.275 310.747, 89.058 282 C 99.380 265.312, 109.544 247.352, 119.936 227.437 C 124.382 218.917, 125.270 218.120, 140.500 208.983 C 145.410 206.037, 156.842 201, 158.617 201 C 158.858 201, 158.769 203.813, 158.418 207.250 C 157.855 212.767, 158.023 213.719, 159.850 215.369 C 162.974 218.189, 165.909 216.875, 174.067 209.003 C 178.061 205.149, 181.485 202.152, 181.675 202.342 C 181.866 202.532, 181.321 204.671, 180.465 207.094 C 175.431 221.345, 171.387 243.775, 172.285 252.472 C 173.184 261.185, 178.361 269.039, 181.280 266.120 C 182.455 264.945, 181.353 263, 179.514 263 C 178.761 263, 177.212 261.814, 176.073 260.365 C 174.450 258.302, 174 256.295, 174.001 251.115 C 174.005 233.025, 183.787 198.890, 192.301 187.257 C 198.059 179.389, 207.938 163.089, 212.443 154.023 C 217.360 144.127, 219.287 137.765, 218.827 132.946 C 218.362 128.076, 215.733 127.948, 211.482 132.590 M 212.287 136.250 C 208.668 140.201, 204.120 149.327, 199.468 161.977 C 194.838 174.568, 194.202 178.445, 197.983 171.034 C 199.150 168.746, 201.021 165.243, 202.140 163.250 C 205.756 156.813, 214.753 138.567, 215.454 136.250 C 215.828 135.012, 215.733 134, 215.242 134 C 214.751 134, 213.421 135.012, 212.287 136.250 M 88 143.290 C 79.105 146.353, 70.189 152.693, 59.422 163.611 C 49.189 173.988, 39.712 187.195, 34.226 198.723 C 31.302 204.869, 30.450 207.970, 30.166 213.507 C 29.853 219.597, 30.078 220.760, 31.882 222.393 C 33.766 224.098, 34.388 224.151, 38.603 222.971 C 45.050 221.166, 61.632 210.127, 73.984 199.417 C 75.368 198.217, 79.875 194.442, 84 191.028 C 88.125 187.614, 93.078 183.399, 95.008 181.660 C 100.908 176.344, 111.504 167.546, 115.710 164.470 C 117.016 163.515, 117.002 162.745, 115.588 157.986 C 113.399 150.614, 109.322 145.052, 104.504 142.863 C 99.271 140.486, 95.890 140.573, 88 143.290 M 396.194 153.206 C 395.093 154.307, 394.464 159, 395.418 159 C 395.648 159, 396.548 159.273, 397.418 159.607 C 398.635 160.074, 398.996 159.554, 398.985 157.357 C 398.964 153.427, 397.762 151.638, 396.194 153.206 M 321 170.566 C 316.325 173.073, 309.234 177.234, 305.242 179.812 C 298.962 183.868, 297.844 185.039, 296.950 188.500 C 292.878 204.250, 281.848 231.692, 277.645 236.529 C 270.647 244.582, 269.110 236.870, 273.461 215.534 C 274.804 208.953, 275.760 203.427, 275.587 203.254 C 275.053 202.720, 263.882 215.165, 259.209 221.500 C 253.368 229.418, 248.540 239.162, 246.975 246.192 C 245.177 254.268, 246.913 260.024, 252.949 265.997 C 272.478 285.322, 327.789 272.996, 351.980 243.929 C 361.118 232.948, 365.292 221.831, 365.297 208.460 C 365.304 190.915, 356.966 177.331, 341.801 170.179 C 331.600 165.368, 330.659 165.386, 321 170.566 M 213.832 173.470 C 212.591 176.193, 214.018 179, 216.644 179 C 218.412 179, 220.458 174.637, 219.663 172.564 C 218.724 170.118, 215.102 170.682, 213.832 173.470 M 208.656 188.487 C 206.072 191.071, 203.877 199.480, 204.198 205.564 C 204.456 210.467, 204.896 211.591, 207.238 213.334 C 209.820 215.256, 210.359 215.296, 216.738 214.036 C 228.765 211.661, 264.141 199.200, 265.611 196.821 C 267.092 194.424, 263.389 194.389, 257.632 196.745 C 242.556 202.914, 221.406 210.217, 215.453 211.310 C 208.902 212.512, 207.991 208.002, 212.510 196.737 C 214.706 191.263, 214.988 189.690, 213.989 188.487 C 212.419 186.596, 210.547 186.595, 208.656 188.487 M 172.474 193.474 C 167.726 198.221, 163.027 206.800, 163.010 210.750 C 162.991 215.136, 164.960 213.690, 175.907 201.280 C 183.615 192.541, 184.514 189.735, 179.778 189.187 C 177.677 188.944, 176.046 189.902, 172.474 193.474 M 285.732 194.250 C 280.344 199.439, 280.257 199.619, 278.155 209.721 C 275.090 224.452, 273.614 233.947, 274.284 234.617 C 276.376 236.710, 280.700 227.835, 287.252 208 C 292.614 191.766, 293.322 189, 292.110 189 C 291.600 189, 288.729 191.363, 285.732 194.250" stroke="none" fill="black" fill-rule="evenodd"/>
</svg>