<svg xmlns="http://www.w3.org/2000/svg" width="712" height="712" viewBox="0 0 712 712" version="1.1">
	<path d="M 321.500 220.656 C 305.951 221.149, 272.130 224.292, 252 227.114 C 192.680 235.433, 136.302 253.261, 96.500 276.288 C 64.477 294.815, 42.785 314.481, 33.399 333.493 C 19.545 361.558, 27.061 389.307, 56.452 418.607 C 80.233 442.314, 120.293 465.562, 157.500 477.248 C 172.822 482.060, 174.837 481.762, 165.347 476.086 C 137.298 459.309, 112.409 430.700, 101.330 402.500 C 98.902 396.318, 98.587 394.214, 98.636 384.500 C 98.682 375.315, 99.129 372.218, 101.343 365.726 C 107.449 347.830, 118.403 331.031, 135.705 313.032 L 140 308.565 140 295.943 L 140 283.321 155.464 283.306 C 170.338 283.292, 171.055 283.197, 174.214 280.825 C 186.813 271.367, 215.787 255.703, 233.782 248.622 C 250.571 242.015, 263.302 238.820, 328 224.976 C 335.975 223.269, 342.928 221.452, 343.450 220.936 C 344.370 220.030, 342.154 220.002, 321.500 220.656 M 591.162 263.750 C 606.143 278.996, 618.271 298.773, 623.557 316.573 C 627.312 329.217, 627.965 346.012, 625.189 358.500 C 616.662 396.854, 581.634 430.566, 515.273 464.286 C 484.600 479.872, 455.435 490.737, 424.585 498.072 C 393.895 505.369, 393.359 505.775, 416.694 504.061 C 490.112 498.669, 554.505 482.884, 603.500 458.268 C 636.801 441.538, 662.339 418.972, 673.970 396 C 684.753 374.705, 685.711 353.611, 676.864 332.336 C 670.779 317.703, 663.369 307.738, 648.728 294.500 C 643.862 290.100, 639.315 285.988, 638.623 285.362 C 630.853 278.325, 590.747 256, 585.877 256 C 583.892 256, 584.674 257.147, 591.162 263.750 M 143.525 287.809 C 143.236 288.097, 143 316.833, 143 351.667 L 143 415 163.500 415 L 184 415 183.935 395.250 L 183.870 375.500 170.816 363.546 L 157.762 351.591 162.681 347.046 C 165.386 344.546, 171.298 339.160, 175.820 335.078 L 184.040 327.655 183.770 307.578 L 183.500 287.500 163.775 287.392 C 152.926 287.333, 143.813 287.520, 143.525 287.809 M 217 302.166 C 208.475 309.899, 197.225 320.147, 192 324.940 C 186.775 329.733, 178.113 337.608, 172.750 342.440 C 167.387 347.272, 163.034 351.512, 163.075 351.863 C 163.135 352.372, 191.957 378.692, 228.657 411.750 L 233.375 416 268.687 416 C 288.109 416, 304 415.642, 304 415.203 C 304 414.499, 287.915 399.537, 270.566 384.104 C 267.230 381.136, 260 374.577, 254.500 369.529 C 249 364.480, 242.568 358.626, 240.207 356.519 C 237.845 354.413, 236.045 352.141, 236.207 351.470 C 236.368 350.800, 241.450 345.783, 247.500 340.321 C 286.686 304.945, 303.542 289.535, 303.833 288.819 C 304.017 288.369, 288.042 288.024, 268.333 288.054 L 232.500 288.107 217 302.166 M 322 373 L 322 416 341.500 416 L 361 416 361 397.481 L 361 378.962 383.250 379.231 L 405.500 379.500 405.773 397.750 L 406.045 416 425.523 416 L 445 416 445 373 L 445 330 383.500 330 L 322 330 322 373 M 455.775 338.250 C 455.489 342.788, 455.310 354.375, 455.378 364 L 455.500 381.500 491 382 L 526.500 382.500 526.500 390.500 L 526.500 398.500 491.326 398.763 L 456.151 399.025 455.826 407.116 C 455.647 411.566, 455.754 415.615, 456.065 416.113 C 456.393 416.640, 478.121 416.910, 508.065 416.759 L 559.500 416.500 559.767 390.263 L 560.033 364.025 524.267 363.763 L 488.500 363.500 488.500 355.653 L 488.500 347.807 524.250 347.949 L 560 348.090 560 339.045 L 560 330 508.148 330 L 456.295 330 455.775 338.250 M 361 355 L 361 362 382.500 362 C 394.325 362, 404.337 362.113, 404.750 362.250 C 405.163 362.387, 405.632 359.238, 405.794 355.250 L 406.088 348 383.544 348 L 361 348 361 355" stroke="none" fill="black" fill-rule="evenodd"/>
</svg>